<?xml version="1.0" encoding="UTF-8" standalone="no"?>
<!-- Created with Inkscape (http://www.inkscape.org/) -->

<svg
   version="1.1"
   id="svg1"
   width="223"
   height="125"
   viewBox="0 0 223 125"
   sodipodi:docname="quarter.svg"
   inkscape:version="1.4.2 (f4327f4, 2025-05-13)"
   xmlns:inkscape="http://www.inkscape.org/namespaces/inkscape"
   xmlns:sodipodi="http://sodipodi.sourceforge.net/DTD/sodipodi-0.dtd"
   xmlns="http://www.w3.org/2000/svg"
   xmlns:svg="http://www.w3.org/2000/svg">
  <defs
     id="defs1">
    <clipPath
       clipPathUnits="userSpaceOnUse"
       id="clipPath5">
      <path
         id="path5"
         style="fill:#d40000;stroke-width:1.05612"
         d="M 110.33287,23.792403 A 34.755974,33.822926 0 0 0 75.577012,57.614668 34.755974,33.822926 0 0 0 110.33287,91.438887 34.755974,33.822926 0 0 0 145.08873,57.614668 34.755974,33.822926 0 0 0 110.33287,23.792403 Z" />
    </clipPath>
    <clipPath
       clipPathUnits="userSpaceOnUse"
       id="clipPath3">
      <path
         id="path3"
         style="fill:#030081;fill-opacity:1"
         d="m 9.875,15.521484 c -0.02491,0.0035 -0.050818,0.0043 -0.076172,0.0059 -0.037885,0.0016 -0.07543,0.0056 -0.1132812,0.0078 -0.027869,0.0021 -0.056128,0.0018 -0.083984,0.0039 -0.022787,0.0026 -0.045606,0.0031 -0.068359,0.0059 -0.023469,0.0034 -0.046655,0.0045 -0.070312,0.0059 -0.028681,0.0014 -0.057296,0.0039 -0.085937,0.0059 -0.023883,8e-4 -0.0485,0.0036 -0.072266,0.0059 -0.016218,0.0012 -0.031333,0.007 -0.046875,0.01172 -0.016541,0.0046 -0.032545,0.01218 -0.048828,0.01758 -0.016439,0.0053 -0.032326,0.0087 -0.048828,0.01367 -0.015409,0.0043 -0.031527,0.0092 -0.046875,0.01367 -0.016048,0.0047 -0.03301,0.01021 -0.048828,0.01563 -0.011621,0.0041 -0.023086,0.0055 -0.035156,0.0078 h -0.00195 -0.00195 c -0.00982,0.0014 -0.017927,0.0013 -0.025391,0 -0.050586,0.02299 -0.1003084,0.04827 -0.1523438,0.06836 -0.067877,0.02549 -0.1387643,0.04382 -0.2070312,0.06836 -0.062341,0.02298 -0.1212934,0.05277 -0.1777344,0.08789 -0.053634,0.03639 -0.1085462,0.07114 -0.1621094,0.107421 -0.049907,0.04848 -0.098223,0.0964 -0.1484374,0.144532 -0.05994,0.05494 -0.1185494,0.112237 -0.1777344,0.167968 -0.059511,0.04842 -0.117417,0.100374 -0.1738282,0.152344 -0.055414,0.05135 -0.1067693,0.1048 -0.1621093,0.15625 -0.052456,0.05883 -0.1086343,0.114188 -0.1601563,0.173828 -0.043881,0.05436 -0.087843,0.107299 -0.1230468,0.167969 -0.034365,0.05448 -0.065186,0.112232 -0.09375,0.169922 -0.030007,0.06877 -0.052317,0.140834 -0.083984,0.208984 -0.027174,0.07033 -0.057921,0.138391 -0.072266,0.212891 -0.00491,0.01705 -0.010199,0.03383 -0.015625,0.05078 V 61.445487 105.2326 c 0.00378,0.0177 0.00766,0.0351 0.011719,0.0527 0.015023,0.0659 0.03646,0.12896 0.056641,0.19336 0.025956,0.0852 0.041858,0.17276 0.060547,0.25976 0.012419,0.081 0.033856,0.15913 0.060547,0.23633 0.02336,0.0697 0.05325,0.13758 0.082031,0.20507 0.034399,0.0809 0.063028,0.16335 0.097656,0.24414 0.032836,0.0772 0.073731,0.15181 0.1152344,0.22461 0.03435,0.0592 0.079054,0.11015 0.1210937,0.16407 0.0304,0.0364 0.058634,0.0756 0.083984,0.11522 0.033199,0.0249 0.065222,0.0503 0.097656,0.0762 0.063205,0.0516 0.1262912,0.10466 0.1894531,0.15625 0.023717,0.0198 0.046559,0.0413 0.072266,0.0586 0.020068,0.0135 0.043599,0.0252 0.064453,0.0371 0.012113,0.007 0.023082,0.0145 0.035156,0.0215 0.079125,0.0451 0.1651259,0.0779 0.2480469,0.11524 0.087977,0.0395 0.1728578,0.0837 0.2617188,0.12109 0.071615,0.0289 0.1451151,0.0538 0.2207031,0.0703 0.067983,0.0181 0.1360589,0.0375 0.2011719,0.0645 0.060325,0.0255 0.1202854,0.0523 0.1777343,0.084 0.010217,0.006 0.020943,0.0135 0.03125,0.0195 h 0.00195 l 0.4589844,0.0742 c 1.5124998,0.24555 45.0441468,0.5392 96.7382718,0.65235 51.69418,0.11315 94.21917,0.441 94.5,0.72851 0.88669,0.90776 9.28714,-0.62025 11.54493,-2.09961 2.01994,-1.32352 2.20465,-2.47174 2.77734,-17.244134 0.33744,-8.70422 0.5631,-28.072755 0.5,-43.042969 -0.11312,-26.853254 -0.14598,-27.247027 -2.36328,-29.330078 -2.22222,-2.087661 -2.71748,-2.109695 -44.09766,-1.863281 -23.01774,0.13707 -68.9621,0.168375 -102.099602,0.06836 z m 2.488281,4.558594 C 14.365822,18.615669 205.6417,19.036353 209.52734,20.513672 l 2.80274,1.066406 -0.47266,41.107422 c -0.3892,33.814681 -0.72188,41.23851 -1.87109,41.85352 -1.86103,0.99593 -10.36488,2.19566 -11.00781,1.55273 -0.2792,-0.27919 -42.46816,-0.55187 -93.75196,-0.60547 l -93.242185,-0.0977 -1.009766,-2.65624 c -0.648837,-1.70657 -0.836,-16.772055 -0.523437,-42.134771 0.401869,-32.609384 0.734812,-39.658631 1.912109,-40.519531 z m 7.589844,2.96875 c -0.15647,0.04446 -0.313202,0.08971 -0.470703,0.13086 -0.166816,0.04359 -0.330968,0.09471 -0.494141,0.15039 -0.12693,0.04792 -0.255928,0.09227 -0.365234,0.175781 -0.14076,0.08497 -0.270303,0.18744 -0.423828,0.25 -0.145327,0.07918 -0.279539,0.175936 -0.410157,0.277344 -0.09594,0.07041 -0.189669,0.143281 -0.287109,0.210938 -0.05125,0.07276 -0.105983,0.142558 -0.164062,0.210937 -0.07701,0.09682 -0.149498,0.199156 -0.210938,0.306641 -0.05228,0.100795 -0.0938,0.206752 -0.134765,0.3125 -0.05589,0.160264 -0.13131,0.309534 -0.22461,0.451172 -0.06939,0.103088 -0.131722,0.211726 -0.195312,0.318359 -0.01353,0.02251 -0.02827,0.04482 -0.04297,0.06641 -5.03e-4,7.39e-4 -0.0014,0.0012 -0.002,0.002 l -0.728516,33.625 c -0.524731,24.211973 -0.449712,37.254492 0.222656,38.738282 l 1.013672,2.236328 34.277344,0.26367 c 37.379899,0.28698 65.915648,0.27922 118.503908,-0.0332 l 34.22656,-0.20508 1.63867,-2.498047 c 1.43903,-2.196229 1.62688,-6.561093 1.55078,-36.013671 -0.0538,-20.842672 -0.47471,-34.240415 -1.11328,-35.433594 -0.56474,-1.055232 -1.81621,-2.138414 -2.7793,-2.408203 -0.96308,-0.269789 -43.375,-0.638399 -94.25,-0.81836 z m 89.636715,5.5 -4.58007,2.427734 c -14.416508,7.64125 -17.254379,28.704063 -5.578129,41.408204 5.654389,6.15215 17.986319,8.796393 26.394529,5.658203 2.61997,-0.97784 5.47349,-2.392848 6.3418,-3.142578 2.83418,-2.44712 3.07826,-1.434448 0.47656,1.976562 -1.40061,1.83629 -4.8124,4.572648 -7.58203,6.080078 -6.83966,3.7226 -17.22198,4.452031 -24.79102,1.744141 C 89.638379,80.897035 82.895848,71.045457 82.71875,59.056641 82.579966,49.661472 84.219655,44.802368 89.332031,39.466797 96.302692,32.191814 100.74764,29.264038 105.38672,28.888672 Z m -34.499996,0.988281 c 0.55,-2e-6 1,0.874547 1,1.94336 0,1.068813 1.012502,2.655725 2.25,3.52539 l 2.25,1.582032 -2.25,0.591797 c -1.327284,0.349305 -2.25,1.363602 -2.25,2.474609 10e-7,1.891282 -1.090902,2.459881 -2.333985,1.216797 -0.366667,-0.366666 -0.666015,-1.491666 -0.666015,-2.5 0,-1.008333 -0.674998,-1.833988 -1.5,-1.833985 -0.825,0 -1.5,-0.450002 -1.5,-1 0,-0.55 0.900003,-1 2,-1 1.466668,0 2,-0.666669 2,-2.5 0,-1.375 0.450002,-2.5 1,-2.5 z m 74.999996,0 c 1.11111,-2e-6 2,0.666667 2,1.5 0,0.833331 -0.88889,1.5 -2,1.5 -1.11111,0 -2,-0.666669 -2,-1.5 0,-0.833333 0.88889,-1.500005 2,-1.5 z M 60.125,30.775391 c 1.056342,0.04226 1.976531,0.93458 1.421875,1.832031 -0.316431,0.511996 -0.971949,0.929687 -1.457031,0.929687 -1.400477,0 -2.135936,-1.797097 -1.017578,-2.488281 0.332996,-0.205802 0.70062,-0.287523 1.052734,-0.273437 z m 110.75586,1.808593 c 0.58626,0.0087 1.44336,0.533759 2.2793,1.541016 0.88481,1.06608 2.23713,1.400618 4.12304,1.023438 3.24822,-0.649646 3.36067,-0.387716 1.23438,2.857421 -1.21965,1.861417 -1.32365,2.860155 -0.46485,4.464844 1.18455,2.213349 0.45854,2.61891 -1.95703,1.091797 -1.10436,-0.69817 -2.07438,-0.237176 -3.71484,1.765625 -2.11654,2.584053 -2.22156,2.608451 -2.25586,0.541016 -0.054,-3.254536 -1.0833,-5.332032 -2.64258,-5.332032 -2.1019,0 -1.66998,-1.777181 0.60742,-2.5 1.93124,-0.612955 2.41714,-1.609209 2.07422,-4.25 -0.10621,-0.817926 0.19951,-1.210779 0.7168,-1.203125 z m -128.671876,0.002 c 0.53782,-0.0078 1.152359,0.498778 1.560547,1.5625 0.340051,0.886158 2.013563,2.200007 3.71875,2.917968 l 3.101563,1.304688 -2.75,0.691406 c -3.114978,0.783641 -3.150781,0.859942 -1.669922,3.626953 1.410137,2.634865 0.629402,3.309833 -1.958984,1.693359 -1.635341,-1.02129 -2.330262,-1.036954 -3.296876,-0.07031 -1.900269,1.90027 -2.824218,1.462332 -2.824218,-1.339844 0,-1.411158 -0.465806,-3.436158 -1.035156,-4.5 -0.896924,-1.675919 -0.696585,-1.935547 1.5,-1.935547 1.868515,0 2.535156,-0.525932 2.535156,-2 0,-1.272639 0.50961,-1.94232 1.11914,-1.951171 z m 103.962896,2.951171 c 1.16373,0 1.90861,0.524165 1.6875,1.1875 -0.48713,1.461342 -2.15557,2.094441 -3.08204,1.167969 -1.3041,-1.304099 -0.6828,-2.355469 1.39454,-2.355469 z m 9.99023,4 c 1.39797,-10e-7 1.96801,0.543885 1.75,1.667969 -0.58409,3.011747 -3.82227,2.728759 -3.82227,-0.333984 0,-0.733333 0.93195,-1.333988 2.07227,-1.333985 z m 37.21289,3.257813 c 0.25652,-0.0089 0.55807,0.186961 0.94727,0.576172 0.64197,0.641969 2.06796,1.166012 3.16796,1.166015 1.55556,-10e-7 1.73216,0.267839 0.79883,1.201172 -0.66,0.66 -1.20017,1.8975 -1.20117,2.75 -0.004,2.649054 -5.39729,2.163512 -6.70312,-0.603515 -0.86164,-1.825804 -0.81938,-2.347659 0.1914,-2.347657 0.71441,-10e-7 1.58759,-0.749046 1.93945,-1.666015 0.27431,-0.714775 0.52957,-1.064772 0.85938,-1.076172 z M 25.742188,45.537109 c 2.006315,-10e-7 2.423885,0.434305 2.166015,2.25 -0.356184,2.507933 -4.251385,3.708732 -5.044922,1.554688 -0.839517,-2.278859 0.314577,-3.804688 2.878907,-3.804688 z m 35.554687,9 c 0.0079,-8.13e-4 0.01539,0 0.02344,0 0.257614,0 0.587447,0.416665 1.201172,1.25 0.708852,0.962499 1.800859,1.749998 2.427735,1.75 0.626866,0 1.140625,0.449998 1.140625,1 0,0.549998 -0.45,1 -1,1 -0.549998,0 -1,0.948578 -1,2.107422 0,1.535004 -0.441823,1.937202 -1.626953,1.482422 -0.894712,-0.343333 -2.244712,-0.111209 -3,0.515625 -1.088036,0.902989 -1.373041,0.716434 -1.373047,-0.90039 0,-1.122361 -0.273578,-2.753063 -0.607422,-3.623047 -0.387243,-1.009139 -0.06438,-1.582032 0.892578,-1.582032 0.825,-10e-7 1.806562,-0.787501 2.179688,-1.75 0.312955,-0.807293 0.496823,-1.224772 0.742187,-1.25 z m 119.851565,1.203125 c 0.10959,-0.0055 0.22075,-0.0044 0.33203,0.002 0.8093,0.04652 1.65396,0.411801 2.39844,1.15625 1.27311,1.273108 1.34997,2.04085 0.41015,4.103515 -1.08272,2.376327 -4.03083,3.371511 -5.5332,1.869141 -0.36667,-0.366666 -0.66602,-1.910371 -0.66602,-3.431641 0,-2.209239 1.41464,-3.616373 3.0586,-3.699219 z M 47.261719,59.658203 c 2.015568,0.11245 3.774536,1.857166 3.162109,3.453125 -0.303743,0.791541 -1.868288,1.425781 -3.511719,1.425781 -2.49673,0 -2.911883,-0.35068 -2.642578,-2.238281 0.175753,-1.231882 1.128267,-2.395449 2.117188,-2.583984 0.292242,-0.05571 0.58706,-0.0727 0.875,-0.05664 z M 150.4668,60.884766 c 0.32734,-0.01966 1.05084,0.340574 2.3789,1.027343 1.68369,0.870668 3.95555,1.25194 5.32227,0.894532 l 2.38281,-0.623047 -1.82422,2.785156 c -1.31964,2.014033 -1.52127,3.086153 -0.73047,3.876953 1.85383,1.85383 1.21484,2.761431 -1.46875,2.087891 -2.06068,-0.5172 -2.66839,-0.228241 -3.11523,1.480468 -0.69837,2.670581 -2.32227,2.782917 -2.32227,0.160157 0,-1.08065 -0.98687,-2.494022 -2.1914,-3.138672 l -2.18946,-1.171875 2.26758,-1.833984 c 1.62408,-1.315089 2.07732,-2.4304 1.59961,-3.935547 -0.34161,-1.076332 -0.48036,-1.587099 -0.10937,-1.609375 z m 39.78711,1.251953 c 0.53451,0.0149 1.29671,0.459444 2.08398,1.378906 1.0397,1.214281 2.42251,1.696846 3.92773,1.373047 2.2225,-0.478094 2.24313,-0.432496 0.44922,1.027344 -1.07118,0.871702 -1.62055,2.190027 -1.28125,3.074218 0.662,1.72514 -1.82224,2.200912 -2.8457,0.544922 -0.34116,-0.55201 -1.83175,-0.710932 -3.31055,-0.351562 -2.66944,0.64872 -2.67427,0.638357 -0.8164,-1.458985 1.02921,-1.16187 1.6106,-2.789316 1.29297,-3.617187 -0.49883,-1.299908 -0.18728,-1.989867 0.5,-1.970703 z M 29.382812,62.826172 c 0.235242,6.88e-4 0.617902,0.326365 1.09961,0.960937 0.730642,0.9625 2.064928,1.75 2.966797,1.75 2.136606,0 2.06881,0.571815 -0.359375,3 -2.308247,2.308244 -5.999998,2.666462 -6,0.582032 0,-0.780014 -0.273578,-2.130016 -0.607422,-3 -0.398311,-1.037983 -0.05452,-1.582032 1,-1.582032 0.883844,0 1.621183,-0.5625 1.638672,-1.25 0.0079,-0.310131 0.100764,-0.461408 0.261718,-0.460937 z m 42.207032,11.710937 c 0.825002,0 1.5,0.674998 1.5,1.5 0,0.825 -0.674998,1.5 -1.5,1.5 -0.825,0 -1.5,-0.675 -1.5,-1.5 0,-0.825002 0.675,-1.5 1.5,-1.5 z m 93.585936,2.023438 c 0.46183,-0.01438 0.98461,0.282961 1.38672,0.933594 0.32507,0.52596 1.18805,0.727365 1.91797,0.447265 0.93654,-0.35938 1.29575,0.388226 1.21875,2.541016 -0.073,2.04073 -0.62329,3.051734 -1.66016,3.052734 -0.8525,0.0013 -1.9775,0.417087 -2.5,0.923828 -0.58656,0.5689 -1.60961,0.0329 -2.67383,-1.402343 -1.47816,-1.99348 -1.51376,-2.405665 -0.25,-2.890625 0.81049,-0.31101 1.47461,-1.253444 1.47461,-2.095704 0,-0.956744 0.49215,-1.491282 1.08594,-1.509765 z m 27.2461,1.275391 c 0.22558,-0.0144 0.59048,0.222862 1.1621,0.697265 0.82207,0.68221 2.43371,0.995103 3.58008,0.695313 1.67136,-0.43707 1.93359,-0.211958 1.32422,1.132812 -0.41796,0.92237 -0.74737,2.853569 -0.73047,4.292969 0.0242,2.06327 -0.3617,2.515269 -1.82422,2.132812 -1.0203,-0.26682 -2.52754,0.0736 -3.34961,0.75586 -1.19523,0.99199 -1.49414,0.98175 -1.49414,-0.05273 0,-0.711539 -0.71335,-2.080928 -1.58398,-3.042968 -1.4542,-1.60687 -1.41353,-1.841155 0.5,-2.865235 1.14563,-0.61313 2.08398,-1.828182 2.08398,-2.701172 0,-0.687975 0.0764,-1.028602 0.33204,-1.044921 z m -157.615239,0.07617 c 0.296808,0 0.642223,0.353701 1.230468,1.0625 0.713532,0.85975 2.028672,1.577049 2.923829,1.59375 1.451914,0.02713 1.444034,0.138794 -0.08008,1.027344 -0.939656,0.54782 -1.465346,1.629337 -1.167968,2.404297 0.840996,2.1916 -5.073736,1.647447 -6.47461,-0.595703 -1.497778,-2.39833 -1.449894,-2.867188 0.300781,-2.867188 0.79767,-10e-7 1.845032,-0.70275 2.326172,-1.5625 0.39666,-0.708799 0.6446,-1.0625 0.941407,-1.0625 z m -12.539063,0.722657 c 0.602744,0.04846 0.818449,0.41312 0.603516,1.058593 -0.246417,0.740029 -1.250203,1.499424 -2.230469,1.689453 -1.140016,0.220991 -1.62056,-0.13938 -1.333984,-1 0.246419,-0.74003 1.250202,-1.499426 2.230468,-1.689453 0.285004,-0.05525 0.529554,-0.07475 0.730469,-0.05859 z m 128.347652,0.08008 c 0.11411,-7e-5 0.23001,0.01238 0.34961,0.03516 2.04087,0.38866 2.75564,4.773816 0.96289,5.910156 -1.99487,1.26447 -2.64147,1.07219 -3.29296,-0.980468 -0.78539,-2.47456 0.26888,-4.963803 1.98046,-4.964844 z m -85.498042,1.865234 c 0.378951,-2.64e-4 0.644985,0.409171 1.103515,1.228516 0.532236,0.95105 1.732799,1.744219 2.667969,1.761718 1.576532,0.02949 1.573789,0.127646 -0.04883,1.359376 -0.9625,0.730638 -1.75,1.767534 -1.75,2.302734 0,0.5352 -1.349997,0.972656 -3,0.972656 -1.735309,0 -3,-0.528013 -3,-1.251953 1e-6,-0.68835 -0.297525,-2.076514 -0.660156,-3.083984 -0.362632,-1.0075 -0.285577,-1.491825 0.169921,-1.078125 0.455498,0.4137 1.688013,-0.02822 2.740235,-0.980469 0.90651,-0.82029 1.398385,-1.230205 1.777344,-1.230469 z m 74.500002,5.40625 c 0.10526,-0.0011 0.2081,0.01449 0.30469,0.05078 0.73248,0.27522 1.90438,0.499997 2.60546,0.5 0.77312,0 1.23257,1.179877 1.16797,2.998047 -0.0708,1.99407 -0.6252,2.999 -1.65625,3 -0.8525,0.0013 -2.09,0.543125 -2.75,1.203125 -0.93333,0.93334 -1.19922,0.841395 -1.19922,-0.416015 0,-0.88917 -0.46012,-1.769913 -1.02148,-1.957032 -0.65911,-0.21971 -0.57056,-1.312284 0.25,-3.083984 0.64514,-1.392956 1.56196,-2.287462 2.29883,-2.294921 z m 36.51172,2.550781 c 2.2834,0 3.53122,3.607328 1.91992,5.548829 -1.66454,2.00565 -3.70812,1.817959 -4.41406,-0.40625 -0.8428,-2.65544 0.36264,-5.142587 2.49414,-5.142579 z M 75.121094,90.777344 c 1.185537,0.03396 2.294375,1.423263 1.521484,2.673828 -0.369537,0.59792 -1.067645,1.085933 -1.552734,1.085937 -1.544588,-10e-7 -2.267205,-2.133179 -1.113282,-3.287109 0.344878,-0.344877 0.749354,-0.483974 1.144532,-0.472656 z m -67.5234378,16.240236 -0.00195,0.002 c -1.95e-5,0.002 4.89e-5,0.005 0,0.006 v 0.002 h 0.00195 v -0.002 -0.002 -0.002 c 2.24e-5,-8.1e-4 -3.18e-5,-0.002 0,-0.004 z m -0.1738281,0.0371 c 0.00344,0.006 0.00817,0.0135 0.011719,0.0195 h 0.00195 0.00195 c -0.00539,-0.006 -0.010446,-0.0131 -0.015625,-0.0195 z m 0.5253907,0.45898 v 0.002 0.002 l 0.00781,0.002 v -0.002 l -0.00195,-0.002 h -0.00195 l -0.00195,-0.002 z"
         clip-path="url(#clipPath5)"
         transform="matrix(-1.0094896,-0.00195145,-0.00189305,1.0146278,223.58077,-0.32587931)" />
    </clipPath>
    <clipPath
       clipPathUnits="userSpaceOnUse"
       id="clipPath3-8">
      <path
         id="path3-5"
         style="fill:#030081;fill-opacity:1"
         d="m 9.875,15.521484 c -0.02491,0.0035 -0.050818,0.0043 -0.076172,0.0059 -0.037885,0.0016 -0.07543,0.0056 -0.1132812,0.0078 -0.027869,0.0021 -0.056128,0.0018 -0.083984,0.0039 -0.022787,0.0026 -0.045606,0.0031 -0.068359,0.0059 -0.023469,0.0034 -0.046655,0.0045 -0.070312,0.0059 -0.028681,0.0014 -0.057296,0.0039 -0.085937,0.0059 -0.023883,8e-4 -0.0485,0.0036 -0.072266,0.0059 -0.016218,0.0012 -0.031333,0.007 -0.046875,0.01172 -0.016541,0.0046 -0.032545,0.01218 -0.048828,0.01758 -0.016439,0.0053 -0.032326,0.0087 -0.048828,0.01367 -0.015409,0.0043 -0.031527,0.0092 -0.046875,0.01367 -0.016048,0.0047 -0.03301,0.01021 -0.048828,0.01563 -0.011621,0.0041 -0.023086,0.0055 -0.035156,0.0078 h -0.00195 -0.00195 c -0.00982,0.0014 -0.017927,0.0013 -0.025391,0 -0.050586,0.02299 -0.1003084,0.04827 -0.1523438,0.06836 -0.067877,0.02549 -0.1387643,0.04382 -0.2070312,0.06836 -0.062341,0.02298 -0.1212934,0.05277 -0.1777344,0.08789 -0.053634,0.03639 -0.1085462,0.07114 -0.1621094,0.107421 -0.049907,0.04848 -0.098223,0.0964 -0.1484374,0.144532 -0.05994,0.05494 -0.1185494,0.112237 -0.1777344,0.167968 -0.059511,0.04842 -0.117417,0.100374 -0.1738282,0.152344 -0.055414,0.05135 -0.1067693,0.1048 -0.1621093,0.15625 -0.052456,0.05883 -0.1086343,0.114188 -0.1601563,0.173828 -0.043881,0.05436 -0.087843,0.107299 -0.1230468,0.167969 -0.034365,0.05448 -0.065186,0.112232 -0.09375,0.169922 -0.030007,0.06877 -0.052317,0.140834 -0.083984,0.208984 -0.027174,0.07033 -0.057921,0.138391 -0.072266,0.212891 -0.00491,0.01705 -0.010199,0.03383 -0.015625,0.05078 V 61.445487 105.2326 c 0.00378,0.0177 0.00766,0.0351 0.011719,0.0527 0.015023,0.0659 0.03646,0.12896 0.056641,0.19336 0.025956,0.0852 0.041858,0.17276 0.060547,0.25976 0.012419,0.081 0.033856,0.15913 0.060547,0.23633 0.02336,0.0697 0.05325,0.13758 0.082031,0.20507 0.034399,0.0809 0.063028,0.16335 0.097656,0.24414 0.032836,0.0772 0.073731,0.15181 0.1152344,0.22461 0.03435,0.0592 0.079054,0.11015 0.1210937,0.16407 0.0304,0.0364 0.058634,0.0756 0.083984,0.11522 0.033199,0.0249 0.065222,0.0503 0.097656,0.0762 0.063205,0.0516 0.1262912,0.10466 0.1894531,0.15625 0.023717,0.0198 0.046559,0.0413 0.072266,0.0586 0.020068,0.0135 0.043599,0.0252 0.064453,0.0371 0.012113,0.007 0.023082,0.0145 0.035156,0.0215 0.079125,0.0451 0.1651259,0.0779 0.2480469,0.11524 0.087977,0.0395 0.1728578,0.0837 0.2617188,0.12109 0.071615,0.0289 0.1451151,0.0538 0.2207031,0.0703 0.067983,0.0181 0.1360589,0.0375 0.2011719,0.0645 0.060325,0.0255 0.1202854,0.0523 0.1777343,0.084 0.010217,0.006 0.020943,0.0135 0.03125,0.0195 h 0.00195 l 0.4589844,0.0742 c 1.5124998,0.24555 45.0441468,0.5392 96.7382718,0.65235 51.69418,0.11315 94.21917,0.441 94.5,0.72851 0.88669,0.90776 9.28714,-0.62025 11.54493,-2.09961 2.01994,-1.32352 2.20465,-2.47174 2.77734,-17.244134 0.33744,-8.70422 0.5631,-28.072755 0.5,-43.042969 -0.11312,-26.853254 -0.14598,-27.247027 -2.36328,-29.330078 -2.22222,-2.087661 -2.71748,-2.109695 -44.09766,-1.863281 -23.01774,0.13707 -68.9621,0.168375 -102.099602,0.06836 z m 2.488281,4.558594 C 14.365822,18.615669 205.6417,19.036353 209.52734,20.513672 l 2.80274,1.066406 -0.47266,41.107422 c -0.3892,33.814681 -0.72188,41.23851 -1.87109,41.85352 -1.86103,0.99593 -10.36488,2.19566 -11.00781,1.55273 -0.2792,-0.27919 -42.46816,-0.55187 -93.75196,-0.60547 l -93.242185,-0.0977 -1.009766,-2.65624 c -0.648837,-1.70657 -0.836,-16.772055 -0.523437,-42.134771 0.401869,-32.609384 0.734812,-39.658631 1.912109,-40.519531 z m 7.589844,2.96875 c -0.15647,0.04446 -0.313202,0.08971 -0.470703,0.13086 -0.166816,0.04359 -0.330968,0.09471 -0.494141,0.15039 -0.12693,0.04792 -0.255928,0.09227 -0.365234,0.175781 -0.14076,0.08497 -0.270303,0.18744 -0.423828,0.25 -0.145327,0.07918 -0.279539,0.175936 -0.410157,0.277344 -0.09594,0.07041 -0.189669,0.143281 -0.287109,0.210938 -0.05125,0.07276 -0.105983,0.142558 -0.164062,0.210937 -0.07701,0.09682 -0.149498,0.199156 -0.210938,0.306641 -0.05228,0.100795 -0.0938,0.206752 -0.134765,0.3125 -0.05589,0.160264 -0.13131,0.309534 -0.22461,0.451172 -0.06939,0.103088 -0.131722,0.211726 -0.195312,0.318359 -0.01353,0.02251 -0.02827,0.04482 -0.04297,0.06641 -5.03e-4,7.39e-4 -0.0014,0.0012 -0.002,0.002 l -0.728516,33.625 c -0.524731,24.211973 -0.449712,37.254492 0.222656,38.738282 l 1.013672,2.236328 34.277344,0.26367 c 37.379899,0.28698 65.915648,0.27922 118.503908,-0.0332 l 34.22656,-0.20508 1.63867,-2.498047 c 1.43903,-2.196229 1.62688,-6.561093 1.55078,-36.013671 -0.0538,-20.842672 -0.47471,-34.240415 -1.11328,-35.433594 -0.56474,-1.055232 -1.81621,-2.138414 -2.7793,-2.408203 -0.96308,-0.269789 -43.375,-0.638399 -94.25,-0.81836 z m 89.636715,5.5 -4.58007,2.427734 c -14.416508,7.64125 -17.254379,28.704063 -5.578129,41.408204 5.654389,6.15215 17.986319,8.796393 26.394529,5.658203 2.61997,-0.97784 5.47349,-2.392848 6.3418,-3.142578 2.83418,-2.44712 3.07826,-1.434448 0.47656,1.976562 -1.40061,1.83629 -4.8124,4.572648 -7.58203,6.080078 -6.83966,3.7226 -17.22198,4.452031 -24.79102,1.744141 C 89.638379,80.897035 82.895848,71.045457 82.71875,59.056641 82.579966,49.661472 84.219655,44.802368 89.332031,39.466797 96.302692,32.191814 100.74764,29.264038 105.38672,28.888672 Z m -34.499996,0.988281 c 0.55,-2e-6 1,0.874547 1,1.94336 0,1.068813 1.012502,2.655725 2.25,3.52539 l 2.25,1.582032 -2.25,0.591797 c -1.327284,0.349305 -2.25,1.363602 -2.25,2.474609 10e-7,1.891282 -1.090902,2.459881 -2.333985,1.216797 -0.366667,-0.366666 -0.666015,-1.491666 -0.666015,-2.5 0,-1.008333 -0.674998,-1.833988 -1.5,-1.833985 -0.825,0 -1.5,-0.450002 -1.5,-1 0,-0.55 0.900003,-1 2,-1 1.466668,0 2,-0.666669 2,-2.5 0,-1.375 0.450002,-2.5 1,-2.5 z m 74.999996,0 c 1.11111,-2e-6 2,0.666667 2,1.5 0,0.833331 -0.88889,1.5 -2,1.5 -1.11111,0 -2,-0.666669 -2,-1.5 0,-0.833333 0.88889,-1.500005 2,-1.5 z M 60.125,30.775391 c 1.056342,0.04226 1.976531,0.93458 1.421875,1.832031 -0.316431,0.511996 -0.971949,0.929687 -1.457031,0.929687 -1.400477,0 -2.135936,-1.797097 -1.017578,-2.488281 0.332996,-0.205802 0.70062,-0.287523 1.052734,-0.273437 z m 110.75586,1.808593 c 0.58626,0.0087 1.44336,0.533759 2.2793,1.541016 0.88481,1.06608 2.23713,1.400618 4.12304,1.023438 3.24822,-0.649646 3.36067,-0.387716 1.23438,2.857421 -1.21965,1.861417 -1.32365,2.860155 -0.46485,4.464844 1.18455,2.213349 0.45854,2.61891 -1.95703,1.091797 -1.10436,-0.69817 -2.07438,-0.237176 -3.71484,1.765625 -2.11654,2.584053 -2.22156,2.608451 -2.25586,0.541016 -0.054,-3.254536 -1.0833,-5.332032 -2.64258,-5.332032 -2.1019,0 -1.66998,-1.777181 0.60742,-2.5 1.93124,-0.612955 2.41714,-1.609209 2.07422,-4.25 -0.10621,-0.817926 0.19951,-1.210779 0.7168,-1.203125 z m -128.671876,0.002 c 0.53782,-0.0078 1.152359,0.498778 1.560547,1.5625 0.340051,0.886158 2.013563,2.200007 3.71875,2.917968 l 3.101563,1.304688 -2.75,0.691406 c -3.114978,0.783641 -3.150781,0.859942 -1.669922,3.626953 1.410137,2.634865 0.629402,3.309833 -1.958984,1.693359 -1.635341,-1.02129 -2.330262,-1.036954 -3.296876,-0.07031 -1.900269,1.90027 -2.824218,1.462332 -2.824218,-1.339844 0,-1.411158 -0.465806,-3.436158 -1.035156,-4.5 -0.896924,-1.675919 -0.696585,-1.935547 1.5,-1.935547 1.868515,0 2.535156,-0.525932 2.535156,-2 0,-1.272639 0.50961,-1.94232 1.11914,-1.951171 z m 103.962896,2.951171 c 1.16373,0 1.90861,0.524165 1.6875,1.1875 -0.48713,1.461342 -2.15557,2.094441 -3.08204,1.167969 -1.3041,-1.304099 -0.6828,-2.355469 1.39454,-2.355469 z m 9.99023,4 c 1.39797,-10e-7 1.96801,0.543885 1.75,1.667969 -0.58409,3.011747 -3.82227,2.728759 -3.82227,-0.333984 0,-0.733333 0.93195,-1.333988 2.07227,-1.333985 z m 37.21289,3.257813 c 0.25652,-0.0089 0.55807,0.186961 0.94727,0.576172 0.64197,0.641969 2.06796,1.166012 3.16796,1.166015 1.55556,-10e-7 1.73216,0.267839 0.79883,1.201172 -0.66,0.66 -1.20017,1.8975 -1.20117,2.75 -0.004,2.649054 -5.39729,2.163512 -6.70312,-0.603515 -0.86164,-1.825804 -0.81938,-2.347659 0.1914,-2.347657 0.71441,-10e-7 1.58759,-0.749046 1.93945,-1.666015 0.27431,-0.714775 0.52957,-1.064772 0.85938,-1.076172 z M 25.742188,45.537109 c 2.006315,-10e-7 2.423885,0.434305 2.166015,2.25 -0.356184,2.507933 -4.251385,3.708732 -5.044922,1.554688 -0.839517,-2.278859 0.314577,-3.804688 2.878907,-3.804688 z m 35.554687,9 c 0.0079,-8.13e-4 0.01539,0 0.02344,0 0.257614,0 0.587447,0.416665 1.201172,1.25 0.708852,0.962499 1.800859,1.749998 2.427735,1.75 0.626866,0 1.140625,0.449998 1.140625,1 0,0.549998 -0.45,1 -1,1 -0.549998,0 -1,0.948578 -1,2.107422 0,1.535004 -0.441823,1.937202 -1.626953,1.482422 -0.894712,-0.343333 -2.244712,-0.111209 -3,0.515625 -1.088036,0.902989 -1.373041,0.716434 -1.373047,-0.90039 0,-1.122361 -0.273578,-2.753063 -0.607422,-3.623047 -0.387243,-1.009139 -0.06438,-1.582032 0.892578,-1.582032 0.825,-10e-7 1.806562,-0.787501 2.179688,-1.75 0.312955,-0.807293 0.496823,-1.224772 0.742187,-1.25 z m 119.851565,1.203125 c 0.10959,-0.0055 0.22075,-0.0044 0.33203,0.002 0.8093,0.04652 1.65396,0.411801 2.39844,1.15625 1.27311,1.273108 1.34997,2.04085 0.41015,4.103515 -1.08272,2.376327 -4.03083,3.371511 -5.5332,1.869141 -0.36667,-0.366666 -0.66602,-1.910371 -0.66602,-3.431641 0,-2.209239 1.41464,-3.616373 3.0586,-3.699219 z M 47.261719,59.658203 c 2.015568,0.11245 3.774536,1.857166 3.162109,3.453125 -0.303743,0.791541 -1.868288,1.425781 -3.511719,1.425781 -2.49673,0 -2.911883,-0.35068 -2.642578,-2.238281 0.175753,-1.231882 1.128267,-2.395449 2.117188,-2.583984 0.292242,-0.05571 0.58706,-0.0727 0.875,-0.05664 z M 150.4668,60.884766 c 0.32734,-0.01966 1.05084,0.340574 2.3789,1.027343 1.68369,0.870668 3.95555,1.25194 5.32227,0.894532 l 2.38281,-0.623047 -1.82422,2.785156 c -1.31964,2.014033 -1.52127,3.086153 -0.73047,3.876953 1.85383,1.85383 1.21484,2.761431 -1.46875,2.087891 -2.06068,-0.5172 -2.66839,-0.228241 -3.11523,1.480468 -0.69837,2.670581 -2.32227,2.782917 -2.32227,0.160157 0,-1.08065 -0.98687,-2.494022 -2.1914,-3.138672 l -2.18946,-1.171875 2.26758,-1.833984 c 1.62408,-1.315089 2.07732,-2.4304 1.59961,-3.935547 -0.34161,-1.076332 -0.48036,-1.587099 -0.10937,-1.609375 z m 39.78711,1.251953 c 0.53451,0.0149 1.29671,0.459444 2.08398,1.378906 1.0397,1.214281 2.42251,1.696846 3.92773,1.373047 2.2225,-0.478094 2.24313,-0.432496 0.44922,1.027344 -1.07118,0.871702 -1.62055,2.190027 -1.28125,3.074218 0.662,1.72514 -1.82224,2.200912 -2.8457,0.544922 -0.34116,-0.55201 -1.83175,-0.710932 -3.31055,-0.351562 -2.66944,0.64872 -2.67427,0.638357 -0.8164,-1.458985 1.02921,-1.16187 1.6106,-2.789316 1.29297,-3.617187 -0.49883,-1.299908 -0.18728,-1.989867 0.5,-1.970703 z M 29.382812,62.826172 c 0.235242,6.88e-4 0.617902,0.326365 1.09961,0.960937 0.730642,0.9625 2.064928,1.75 2.966797,1.75 2.136606,0 2.06881,0.571815 -0.359375,3 -2.308247,2.308244 -5.999998,2.666462 -6,0.582032 0,-0.780014 -0.273578,-2.130016 -0.607422,-3 -0.398311,-1.037983 -0.05452,-1.582032 1,-1.582032 0.883844,0 1.621183,-0.5625 1.638672,-1.25 0.0079,-0.310131 0.100764,-0.461408 0.261718,-0.460937 z m 42.207032,11.710937 c 0.825002,0 1.5,0.674998 1.5,1.5 0,0.825 -0.674998,1.5 -1.5,1.5 -0.825,0 -1.5,-0.675 -1.5,-1.5 0,-0.825002 0.675,-1.5 1.5,-1.5 z m 93.585936,2.023438 c 0.46183,-0.01438 0.98461,0.282961 1.38672,0.933594 0.32507,0.52596 1.18805,0.727365 1.91797,0.447265 0.93654,-0.35938 1.29575,0.388226 1.21875,2.541016 -0.073,2.04073 -0.62329,3.051734 -1.66016,3.052734 -0.8525,0.0013 -1.9775,0.417087 -2.5,0.923828 -0.58656,0.5689 -1.60961,0.0329 -2.67383,-1.402343 -1.47816,-1.99348 -1.51376,-2.405665 -0.25,-2.890625 0.81049,-0.31101 1.47461,-1.253444 1.47461,-2.095704 0,-0.956744 0.49215,-1.491282 1.08594,-1.509765 z m 27.2461,1.275391 c 0.22558,-0.0144 0.59048,0.222862 1.1621,0.697265 0.82207,0.68221 2.43371,0.995103 3.58008,0.695313 1.67136,-0.43707 1.93359,-0.211958 1.32422,1.132812 -0.41796,0.92237 -0.74737,2.853569 -0.73047,4.292969 0.0242,2.06327 -0.3617,2.515269 -1.82422,2.132812 -1.0203,-0.26682 -2.52754,0.0736 -3.34961,0.75586 -1.19523,0.99199 -1.49414,0.98175 -1.49414,-0.05273 0,-0.711539 -0.71335,-2.080928 -1.58398,-3.042968 -1.4542,-1.60687 -1.41353,-1.841155 0.5,-2.865235 1.14563,-0.61313 2.08398,-1.828182 2.08398,-2.701172 0,-0.687975 0.0764,-1.028602 0.33204,-1.044921 z m -157.615239,0.07617 c 0.296808,0 0.642223,0.353701 1.230468,1.0625 0.713532,0.85975 2.028672,1.577049 2.923829,1.59375 1.451914,0.02713 1.444034,0.138794 -0.08008,1.027344 -0.939656,0.54782 -1.465346,1.629337 -1.167968,2.404297 0.840996,2.1916 -5.073736,1.647447 -6.47461,-0.595703 -1.497778,-2.39833 -1.449894,-2.867188 0.300781,-2.867188 0.79767,-10e-7 1.845032,-0.70275 2.326172,-1.5625 0.39666,-0.708799 0.6446,-1.0625 0.941407,-1.0625 z m -12.539063,0.722657 c 0.602744,0.04846 0.818449,0.41312 0.603516,1.058593 -0.246417,0.740029 -1.250203,1.499424 -2.230469,1.689453 -1.140016,0.220991 -1.62056,-0.13938 -1.333984,-1 0.246419,-0.74003 1.250202,-1.499426 2.230468,-1.689453 0.285004,-0.05525 0.529554,-0.07475 0.730469,-0.05859 z m 128.347652,0.08008 c 0.11411,-7e-5 0.23001,0.01238 0.34961,0.03516 2.04087,0.38866 2.75564,4.773816 0.96289,5.910156 -1.99487,1.26447 -2.64147,1.07219 -3.29296,-0.980468 -0.78539,-2.47456 0.26888,-4.963803 1.98046,-4.964844 z m -85.498042,1.865234 c 0.378951,-2.64e-4 0.644985,0.409171 1.103515,1.228516 0.532236,0.95105 1.732799,1.744219 2.667969,1.761718 1.576532,0.02949 1.573789,0.127646 -0.04883,1.359376 -0.9625,0.730638 -1.75,1.767534 -1.75,2.302734 0,0.5352 -1.349997,0.972656 -3,0.972656 -1.735309,0 -3,-0.528013 -3,-1.251953 1e-6,-0.68835 -0.297525,-2.076514 -0.660156,-3.083984 -0.362632,-1.0075 -0.285577,-1.491825 0.169921,-1.078125 0.455498,0.4137 1.688013,-0.02822 2.740235,-0.980469 0.90651,-0.82029 1.398385,-1.230205 1.777344,-1.230469 z m 74.500002,5.40625 c 0.10526,-0.0011 0.2081,0.01449 0.30469,0.05078 0.73248,0.27522 1.90438,0.499997 2.60546,0.5 0.77312,0 1.23257,1.179877 1.16797,2.998047 -0.0708,1.99407 -0.6252,2.999 -1.65625,3 -0.8525,0.0013 -2.09,0.543125 -2.75,1.203125 -0.93333,0.93334 -1.19922,0.841395 -1.19922,-0.416015 0,-0.88917 -0.46012,-1.769913 -1.02148,-1.957032 -0.65911,-0.21971 -0.57056,-1.312284 0.25,-3.083984 0.64514,-1.392956 1.56196,-2.287462 2.29883,-2.294921 z m 36.51172,2.550781 c 2.2834,0 3.53122,3.607328 1.91992,5.548829 -1.66454,2.00565 -3.70812,1.817959 -4.41406,-0.40625 -0.8428,-2.65544 0.36264,-5.142587 2.49414,-5.142579 z M 75.121094,90.777344 c 1.185537,0.03396 2.294375,1.423263 1.521484,2.673828 -0.369537,0.59792 -1.067645,1.085933 -1.552734,1.085937 -1.544588,-10e-7 -2.267205,-2.133179 -1.113282,-3.287109 0.344878,-0.344877 0.749354,-0.483974 1.144532,-0.472656 z m -67.5234378,16.240236 -0.00195,0.002 c -1.95e-5,0.002 4.89e-5,0.005 0,0.006 v 0.002 h 0.00195 v -0.002 -0.002 -0.002 c 2.24e-5,-8.1e-4 -3.18e-5,-0.002 0,-0.004 z m -0.1738281,0.0371 c 0.00344,0.006 0.00817,0.0135 0.011719,0.0195 h 0.00195 0.00195 c -0.00539,-0.006 -0.010446,-0.0131 -0.015625,-0.0195 z m 0.5253907,0.45898 v 0.002 0.002 l 0.00781,0.002 v -0.002 l -0.00195,-0.002 h -0.00195 l -0.00195,-0.002 z"
         clip-path="url(#clipPath5-7)"
         transform="matrix(-1.0094896,-0.00195145,-0.00189305,1.0146278,223.58077,-0.32587931)" />
    </clipPath>
    <clipPath
       clipPathUnits="userSpaceOnUse"
       id="clipPath5-7">
      <path
         id="path5-6"
         style="fill:#d40000;stroke-width:1.05612"
         d="M 110.33287,23.792403 A 34.755974,33.822926 0 0 0 75.577012,57.614668 34.755974,33.822926 0 0 0 110.33287,91.438887 34.755974,33.822926 0 0 0 145.08873,57.614668 34.755974,33.822926 0 0 0 110.33287,23.792403 Z" />
    </clipPath>
    <clipPath
       clipPathUnits="userSpaceOnUse"
       id="clipPath3-8-7">
      <path
         id="path3-5-9"
         style="fill:#030081;fill-opacity:1"
         d="m 9.875,15.521484 c -0.02491,0.0035 -0.050818,0.0043 -0.076172,0.0059 -0.037885,0.0016 -0.07543,0.0056 -0.1132812,0.0078 -0.027869,0.0021 -0.056128,0.0018 -0.083984,0.0039 -0.022787,0.0026 -0.045606,0.0031 -0.068359,0.0059 -0.023469,0.0034 -0.046655,0.0045 -0.070312,0.0059 -0.028681,0.0014 -0.057296,0.0039 -0.085937,0.0059 -0.023883,8e-4 -0.0485,0.0036 -0.072266,0.0059 -0.016218,0.0012 -0.031333,0.007 -0.046875,0.01172 -0.016541,0.0046 -0.032545,0.01218 -0.048828,0.01758 -0.016439,0.0053 -0.032326,0.0087 -0.048828,0.01367 -0.015409,0.0043 -0.031527,0.0092 -0.046875,0.01367 -0.016048,0.0047 -0.03301,0.01021 -0.048828,0.01563 -0.011621,0.0041 -0.023086,0.0055 -0.035156,0.0078 h -0.00195 -0.00195 c -0.00982,0.0014 -0.017927,0.0013 -0.025391,0 -0.050586,0.02299 -0.1003084,0.04827 -0.1523438,0.06836 -0.067877,0.02549 -0.1387643,0.04382 -0.2070312,0.06836 -0.062341,0.02298 -0.1212934,0.05277 -0.1777344,0.08789 -0.053634,0.03639 -0.1085462,0.07114 -0.1621094,0.107421 -0.049907,0.04848 -0.098223,0.0964 -0.1484374,0.144532 -0.05994,0.05494 -0.1185494,0.112237 -0.1777344,0.167968 -0.059511,0.04842 -0.117417,0.100374 -0.1738282,0.152344 -0.055414,0.05135 -0.1067693,0.1048 -0.1621093,0.15625 -0.052456,0.05883 -0.1086343,0.114188 -0.1601563,0.173828 -0.043881,0.05436 -0.087843,0.107299 -0.1230468,0.167969 -0.034365,0.05448 -0.065186,0.112232 -0.09375,0.169922 -0.030007,0.06877 -0.052317,0.140834 -0.083984,0.208984 -0.027174,0.07033 -0.057921,0.138391 -0.072266,0.212891 -0.00491,0.01705 -0.010199,0.03383 -0.015625,0.05078 V 61.445487 105.2326 c 0.00378,0.0177 0.00766,0.0351 0.011719,0.0527 0.015023,0.0659 0.03646,0.12896 0.056641,0.19336 0.025956,0.0852 0.041858,0.17276 0.060547,0.25976 0.012419,0.081 0.033856,0.15913 0.060547,0.23633 0.02336,0.0697 0.05325,0.13758 0.082031,0.20507 0.034399,0.0809 0.063028,0.16335 0.097656,0.24414 0.032836,0.0772 0.073731,0.15181 0.1152344,0.22461 0.03435,0.0592 0.079054,0.11015 0.1210937,0.16407 0.0304,0.0364 0.058634,0.0756 0.083984,0.11522 0.033199,0.0249 0.065222,0.0503 0.097656,0.0762 0.063205,0.0516 0.1262912,0.10466 0.1894531,0.15625 0.023717,0.0198 0.046559,0.0413 0.072266,0.0586 0.020068,0.0135 0.043599,0.0252 0.064453,0.0371 0.012113,0.007 0.023082,0.0145 0.035156,0.0215 0.079125,0.0451 0.1651259,0.0779 0.2480469,0.11524 0.087977,0.0395 0.1728578,0.0837 0.2617188,0.12109 0.071615,0.0289 0.1451151,0.0538 0.2207031,0.0703 0.067983,0.0181 0.1360589,0.0375 0.2011719,0.0645 0.060325,0.0255 0.1202854,0.0523 0.1777343,0.084 0.010217,0.006 0.020943,0.0135 0.03125,0.0195 h 0.00195 l 0.4589844,0.0742 c 1.5124998,0.24555 45.0441468,0.5392 96.7382718,0.65235 51.69418,0.11315 94.21917,0.441 94.5,0.72851 0.88669,0.90776 9.28714,-0.62025 11.54493,-2.09961 2.01994,-1.32352 2.20465,-2.47174 2.77734,-17.244134 0.33744,-8.70422 0.5631,-28.072755 0.5,-43.042969 -0.11312,-26.853254 -0.14598,-27.247027 -2.36328,-29.330078 -2.22222,-2.087661 -2.71748,-2.109695 -44.09766,-1.863281 -23.01774,0.13707 -68.9621,0.168375 -102.099602,0.06836 z m 2.488281,4.558594 C 14.365822,18.615669 205.6417,19.036353 209.52734,20.513672 l 2.80274,1.066406 -0.47266,41.107422 c -0.3892,33.814681 -0.72188,41.23851 -1.87109,41.85352 -1.86103,0.99593 -10.36488,2.19566 -11.00781,1.55273 -0.2792,-0.27919 -42.46816,-0.55187 -93.75196,-0.60547 l -93.242185,-0.0977 -1.009766,-2.65624 c -0.648837,-1.70657 -0.836,-16.772055 -0.523437,-42.134771 0.401869,-32.609384 0.734812,-39.658631 1.912109,-40.519531 z m 7.589844,2.96875 c -0.15647,0.04446 -0.313202,0.08971 -0.470703,0.13086 -0.166816,0.04359 -0.330968,0.09471 -0.494141,0.15039 -0.12693,0.04792 -0.255928,0.09227 -0.365234,0.175781 -0.14076,0.08497 -0.270303,0.18744 -0.423828,0.25 -0.145327,0.07918 -0.279539,0.175936 -0.410157,0.277344 -0.09594,0.07041 -0.189669,0.143281 -0.287109,0.210938 -0.05125,0.07276 -0.105983,0.142558 -0.164062,0.210937 -0.07701,0.09682 -0.149498,0.199156 -0.210938,0.306641 -0.05228,0.100795 -0.0938,0.206752 -0.134765,0.3125 -0.05589,0.160264 -0.13131,0.309534 -0.22461,0.451172 -0.06939,0.103088 -0.131722,0.211726 -0.195312,0.318359 -0.01353,0.02251 -0.02827,0.04482 -0.04297,0.06641 -5.03e-4,7.39e-4 -0.0014,0.0012 -0.002,0.002 l -0.728516,33.625 c -0.524731,24.211973 -0.449712,37.254492 0.222656,38.738282 l 1.013672,2.236328 34.277344,0.26367 c 37.379899,0.28698 65.915648,0.27922 118.503908,-0.0332 l 34.22656,-0.20508 1.63867,-2.498047 c 1.43903,-2.196229 1.62688,-6.561093 1.55078,-36.013671 -0.0538,-20.842672 -0.47471,-34.240415 -1.11328,-35.433594 -0.56474,-1.055232 -1.81621,-2.138414 -2.7793,-2.408203 -0.96308,-0.269789 -43.375,-0.638399 -94.25,-0.81836 z m 89.636715,5.5 -4.58007,2.427734 c -14.416508,7.64125 -17.254379,28.704063 -5.578129,41.408204 5.654389,6.15215 17.986319,8.796393 26.394529,5.658203 2.61997,-0.97784 5.47349,-2.392848 6.3418,-3.142578 2.83418,-2.44712 3.07826,-1.434448 0.47656,1.976562 -1.40061,1.83629 -4.8124,4.572648 -7.58203,6.080078 -6.83966,3.7226 -17.22198,4.452031 -24.79102,1.744141 C 89.638379,80.897035 82.895848,71.045457 82.71875,59.056641 82.579966,49.661472 84.219655,44.802368 89.332031,39.466797 96.302692,32.191814 100.74764,29.264038 105.38672,28.888672 Z m -34.499996,0.988281 c 0.55,-2e-6 1,0.874547 1,1.94336 0,1.068813 1.012502,2.655725 2.25,3.52539 l 2.25,1.582032 -2.25,0.591797 c -1.327284,0.349305 -2.25,1.363602 -2.25,2.474609 10e-7,1.891282 -1.090902,2.459881 -2.333985,1.216797 -0.366667,-0.366666 -0.666015,-1.491666 -0.666015,-2.5 0,-1.008333 -0.674998,-1.833988 -1.5,-1.833985 -0.825,0 -1.5,-0.450002 -1.5,-1 0,-0.55 0.900003,-1 2,-1 1.466668,0 2,-0.666669 2,-2.5 0,-1.375 0.450002,-2.5 1,-2.5 z m 74.999996,0 c 1.11111,-2e-6 2,0.666667 2,1.5 0,0.833331 -0.88889,1.5 -2,1.5 -1.11111,0 -2,-0.666669 -2,-1.5 0,-0.833333 0.88889,-1.500005 2,-1.5 z M 60.125,30.775391 c 1.056342,0.04226 1.976531,0.93458 1.421875,1.832031 -0.316431,0.511996 -0.971949,0.929687 -1.457031,0.929687 -1.400477,0 -2.135936,-1.797097 -1.017578,-2.488281 0.332996,-0.205802 0.70062,-0.287523 1.052734,-0.273437 z m 110.75586,1.808593 c 0.58626,0.0087 1.44336,0.533759 2.2793,1.541016 0.88481,1.06608 2.23713,1.400618 4.12304,1.023438 3.24822,-0.649646 3.36067,-0.387716 1.23438,2.857421 -1.21965,1.861417 -1.32365,2.860155 -0.46485,4.464844 1.18455,2.213349 0.45854,2.61891 -1.95703,1.091797 -1.10436,-0.69817 -2.07438,-0.237176 -3.71484,1.765625 -2.11654,2.584053 -2.22156,2.608451 -2.25586,0.541016 -0.054,-3.254536 -1.0833,-5.332032 -2.64258,-5.332032 -2.1019,0 -1.66998,-1.777181 0.60742,-2.5 1.93124,-0.612955 2.41714,-1.609209 2.07422,-4.25 -0.10621,-0.817926 0.19951,-1.210779 0.7168,-1.203125 z m -128.671876,0.002 c 0.53782,-0.0078 1.152359,0.498778 1.560547,1.5625 0.340051,0.886158 2.013563,2.200007 3.71875,2.917968 l 3.101563,1.304688 -2.75,0.691406 c -3.114978,0.783641 -3.150781,0.859942 -1.669922,3.626953 1.410137,2.634865 0.629402,3.309833 -1.958984,1.693359 -1.635341,-1.02129 -2.330262,-1.036954 -3.296876,-0.07031 -1.900269,1.90027 -2.824218,1.462332 -2.824218,-1.339844 0,-1.411158 -0.465806,-3.436158 -1.035156,-4.5 -0.896924,-1.675919 -0.696585,-1.935547 1.5,-1.935547 1.868515,0 2.535156,-0.525932 2.535156,-2 0,-1.272639 0.50961,-1.94232 1.11914,-1.951171 z m 103.962896,2.951171 c 1.16373,0 1.90861,0.524165 1.6875,1.1875 -0.48713,1.461342 -2.15557,2.094441 -3.08204,1.167969 -1.3041,-1.304099 -0.6828,-2.355469 1.39454,-2.355469 z m 9.99023,4 c 1.39797,-10e-7 1.96801,0.543885 1.75,1.667969 -0.58409,3.011747 -3.82227,2.728759 -3.82227,-0.333984 0,-0.733333 0.93195,-1.333988 2.07227,-1.333985 z m 37.21289,3.257813 c 0.25652,-0.0089 0.55807,0.186961 0.94727,0.576172 0.64197,0.641969 2.06796,1.166012 3.16796,1.166015 1.55556,-10e-7 1.73216,0.267839 0.79883,1.201172 -0.66,0.66 -1.20017,1.8975 -1.20117,2.75 -0.004,2.649054 -5.39729,2.163512 -6.70312,-0.603515 -0.86164,-1.825804 -0.81938,-2.347659 0.1914,-2.347657 0.71441,-10e-7 1.58759,-0.749046 1.93945,-1.666015 0.27431,-0.714775 0.52957,-1.064772 0.85938,-1.076172 z M 25.742188,45.537109 c 2.006315,-10e-7 2.423885,0.434305 2.166015,2.25 -0.356184,2.507933 -4.251385,3.708732 -5.044922,1.554688 -0.839517,-2.278859 0.314577,-3.804688 2.878907,-3.804688 z m 35.554687,9 c 0.0079,-8.13e-4 0.01539,0 0.02344,0 0.257614,0 0.587447,0.416665 1.201172,1.25 0.708852,0.962499 1.800859,1.749998 2.427735,1.75 0.626866,0 1.140625,0.449998 1.140625,1 0,0.549998 -0.45,1 -1,1 -0.549998,0 -1,0.948578 -1,2.107422 0,1.535004 -0.441823,1.937202 -1.626953,1.482422 -0.894712,-0.343333 -2.244712,-0.111209 -3,0.515625 -1.088036,0.902989 -1.373041,0.716434 -1.373047,-0.90039 0,-1.122361 -0.273578,-2.753063 -0.607422,-3.623047 -0.387243,-1.009139 -0.06438,-1.582032 0.892578,-1.582032 0.825,-10e-7 1.806562,-0.787501 2.179688,-1.75 0.312955,-0.807293 0.496823,-1.224772 0.742187,-1.25 z m 119.851565,1.203125 c 0.10959,-0.0055 0.22075,-0.0044 0.33203,0.002 0.8093,0.04652 1.65396,0.411801 2.39844,1.15625 1.27311,1.273108 1.34997,2.04085 0.41015,4.103515 -1.08272,2.376327 -4.03083,3.371511 -5.5332,1.869141 -0.36667,-0.366666 -0.66602,-1.910371 -0.66602,-3.431641 0,-2.209239 1.41464,-3.616373 3.0586,-3.699219 z M 47.261719,59.658203 c 2.015568,0.11245 3.774536,1.857166 3.162109,3.453125 -0.303743,0.791541 -1.868288,1.425781 -3.511719,1.425781 -2.49673,0 -2.911883,-0.35068 -2.642578,-2.238281 0.175753,-1.231882 1.128267,-2.395449 2.117188,-2.583984 0.292242,-0.05571 0.58706,-0.0727 0.875,-0.05664 z M 150.4668,60.884766 c 0.32734,-0.01966 1.05084,0.340574 2.3789,1.027343 1.68369,0.870668 3.95555,1.25194 5.32227,0.894532 l 2.38281,-0.623047 -1.82422,2.785156 c -1.31964,2.014033 -1.52127,3.086153 -0.73047,3.876953 1.85383,1.85383 1.21484,2.761431 -1.46875,2.087891 -2.06068,-0.5172 -2.66839,-0.228241 -3.11523,1.480468 -0.69837,2.670581 -2.32227,2.782917 -2.32227,0.160157 0,-1.08065 -0.98687,-2.494022 -2.1914,-3.138672 l -2.18946,-1.171875 2.26758,-1.833984 c 1.62408,-1.315089 2.07732,-2.4304 1.59961,-3.935547 -0.34161,-1.076332 -0.48036,-1.587099 -0.10937,-1.609375 z m 39.78711,1.251953 c 0.53451,0.0149 1.29671,0.459444 2.08398,1.378906 1.0397,1.214281 2.42251,1.696846 3.92773,1.373047 2.2225,-0.478094 2.24313,-0.432496 0.44922,1.027344 -1.07118,0.871702 -1.62055,2.190027 -1.28125,3.074218 0.662,1.72514 -1.82224,2.200912 -2.8457,0.544922 -0.34116,-0.55201 -1.83175,-0.710932 -3.31055,-0.351562 -2.66944,0.64872 -2.67427,0.638357 -0.8164,-1.458985 1.02921,-1.16187 1.6106,-2.789316 1.29297,-3.617187 -0.49883,-1.299908 -0.18728,-1.989867 0.5,-1.970703 z M 29.382812,62.826172 c 0.235242,6.88e-4 0.617902,0.326365 1.09961,0.960937 0.730642,0.9625 2.064928,1.75 2.966797,1.75 2.136606,0 2.06881,0.571815 -0.359375,3 -2.308247,2.308244 -5.999998,2.666462 -6,0.582032 0,-0.780014 -0.273578,-2.130016 -0.607422,-3 -0.398311,-1.037983 -0.05452,-1.582032 1,-1.582032 0.883844,0 1.621183,-0.5625 1.638672,-1.25 0.0079,-0.310131 0.100764,-0.461408 0.261718,-0.460937 z m 42.207032,11.710937 c 0.825002,0 1.5,0.674998 1.5,1.5 0,0.825 -0.674998,1.5 -1.5,1.5 -0.825,0 -1.5,-0.675 -1.5,-1.5 0,-0.825002 0.675,-1.5 1.5,-1.5 z m 93.585936,2.023438 c 0.46183,-0.01438 0.98461,0.282961 1.38672,0.933594 0.32507,0.52596 1.18805,0.727365 1.91797,0.447265 0.93654,-0.35938 1.29575,0.388226 1.21875,2.541016 -0.073,2.04073 -0.62329,3.051734 -1.66016,3.052734 -0.8525,0.0013 -1.9775,0.417087 -2.5,0.923828 -0.58656,0.5689 -1.60961,0.0329 -2.67383,-1.402343 -1.47816,-1.99348 -1.51376,-2.405665 -0.25,-2.890625 0.81049,-0.31101 1.47461,-1.253444 1.47461,-2.095704 0,-0.956744 0.49215,-1.491282 1.08594,-1.509765 z m 27.2461,1.275391 c 0.22558,-0.0144 0.59048,0.222862 1.1621,0.697265 0.82207,0.68221 2.43371,0.995103 3.58008,0.695313 1.67136,-0.43707 1.93359,-0.211958 1.32422,1.132812 -0.41796,0.92237 -0.74737,2.853569 -0.73047,4.292969 0.0242,2.06327 -0.3617,2.515269 -1.82422,2.132812 -1.0203,-0.26682 -2.52754,0.0736 -3.34961,0.75586 -1.19523,0.99199 -1.49414,0.98175 -1.49414,-0.05273 0,-0.711539 -0.71335,-2.080928 -1.58398,-3.042968 -1.4542,-1.60687 -1.41353,-1.841155 0.5,-2.865235 1.14563,-0.61313 2.08398,-1.828182 2.08398,-2.701172 0,-0.687975 0.0764,-1.028602 0.33204,-1.044921 z m -157.615239,0.07617 c 0.296808,0 0.642223,0.353701 1.230468,1.0625 0.713532,0.85975 2.028672,1.577049 2.923829,1.59375 1.451914,0.02713 1.444034,0.138794 -0.08008,1.027344 -0.939656,0.54782 -1.465346,1.629337 -1.167968,2.404297 0.840996,2.1916 -5.073736,1.647447 -6.47461,-0.595703 -1.497778,-2.39833 -1.449894,-2.867188 0.300781,-2.867188 0.79767,-10e-7 1.845032,-0.70275 2.326172,-1.5625 0.39666,-0.708799 0.6446,-1.0625 0.941407,-1.0625 z m -12.539063,0.722657 c 0.602744,0.04846 0.818449,0.41312 0.603516,1.058593 -0.246417,0.740029 -1.250203,1.499424 -2.230469,1.689453 -1.140016,0.220991 -1.62056,-0.13938 -1.333984,-1 0.246419,-0.74003 1.250202,-1.499426 2.230468,-1.689453 0.285004,-0.05525 0.529554,-0.07475 0.730469,-0.05859 z m 128.347652,0.08008 c 0.11411,-7e-5 0.23001,0.01238 0.34961,0.03516 2.04087,0.38866 2.75564,4.773816 0.96289,5.910156 -1.99487,1.26447 -2.64147,1.07219 -3.29296,-0.980468 -0.78539,-2.47456 0.26888,-4.963803 1.98046,-4.964844 z m -85.498042,1.865234 c 0.378951,-2.64e-4 0.644985,0.409171 1.103515,1.228516 0.532236,0.95105 1.732799,1.744219 2.667969,1.761718 1.576532,0.02949 1.573789,0.127646 -0.04883,1.359376 -0.9625,0.730638 -1.75,1.767534 -1.75,2.302734 0,0.5352 -1.349997,0.972656 -3,0.972656 -1.735309,0 -3,-0.528013 -3,-1.251953 1e-6,-0.68835 -0.297525,-2.076514 -0.660156,-3.083984 -0.362632,-1.0075 -0.285577,-1.491825 0.169921,-1.078125 0.455498,0.4137 1.688013,-0.02822 2.740235,-0.980469 0.90651,-0.82029 1.398385,-1.230205 1.777344,-1.230469 z m 74.500002,5.40625 c 0.10526,-0.0011 0.2081,0.01449 0.30469,0.05078 0.73248,0.27522 1.90438,0.499997 2.60546,0.5 0.77312,0 1.23257,1.179877 1.16797,2.998047 -0.0708,1.99407 -0.6252,2.999 -1.65625,3 -0.8525,0.0013 -2.09,0.543125 -2.75,1.203125 -0.93333,0.93334 -1.19922,0.841395 -1.19922,-0.416015 0,-0.88917 -0.46012,-1.769913 -1.02148,-1.957032 -0.65911,-0.21971 -0.57056,-1.312284 0.25,-3.083984 0.64514,-1.392956 1.56196,-2.287462 2.29883,-2.294921 z m 36.51172,2.550781 c 2.2834,0 3.53122,3.607328 1.91992,5.548829 -1.66454,2.00565 -3.70812,1.817959 -4.41406,-0.40625 -0.8428,-2.65544 0.36264,-5.142587 2.49414,-5.142579 z M 75.121094,90.777344 c 1.185537,0.03396 2.294375,1.423263 1.521484,2.673828 -0.369537,0.59792 -1.067645,1.085933 -1.552734,1.085937 -1.544588,-10e-7 -2.267205,-2.133179 -1.113282,-3.287109 0.344878,-0.344877 0.749354,-0.483974 1.144532,-0.472656 z m -67.5234378,16.240236 -0.00195,0.002 c -1.95e-5,0.002 4.89e-5,0.005 0,0.006 v 0.002 h 0.00195 v -0.002 -0.002 -0.002 c 2.24e-5,-8.1e-4 -3.18e-5,-0.002 0,-0.004 z m -0.1738281,0.0371 c 0.00344,0.006 0.00817,0.0135 0.011719,0.0195 h 0.00195 0.00195 c -0.00539,-0.006 -0.010446,-0.0131 -0.015625,-0.0195 z m 0.5253907,0.45898 v 0.002 0.002 l 0.00781,0.002 v -0.002 l -0.00195,-0.002 h -0.00195 l -0.00195,-0.002 z"
         clip-path="url(#clipPath5-7-5)"
         transform="matrix(-1.0094896,-0.00195145,-0.00189305,1.0146278,223.58077,-0.32587931)" />
    </clipPath>
    <clipPath
       clipPathUnits="userSpaceOnUse"
       id="clipPath5-7-5">
      <path
         id="path5-6-4"
         style="fill:#d40000;stroke-width:1.05612"
         d="M 110.33287,23.792403 A 34.755974,33.822926 0 0 0 75.577012,57.614668 34.755974,33.822926 0 0 0 110.33287,91.438887 34.755974,33.822926 0 0 0 145.08873,57.614668 34.755974,33.822926 0 0 0 110.33287,23.792403 Z" />
    </clipPath>
    <clipPath
       clipPathUnits="userSpaceOnUse"
       id="clipPath5-3">
      <path
         id="path5-4"
         style="fill:#d40000;stroke-width:1.05612"
         d="M 110.33287,23.792403 A 34.755974,33.822926 0 0 0 75.577012,57.614668 34.755974,33.822926 0 0 0 110.33287,91.438887 34.755974,33.822926 0 0 0 145.08873,57.614668 34.755974,33.822926 0 0 0 110.33287,23.792403 Z" />
    </clipPath>
    <clipPath
       clipPathUnits="userSpaceOnUse"
       id="clipPath8">
      <ellipse
         style="fill:#ff0000;fill-opacity:1;stroke-width:1.29364"
         id="ellipse8"
         cx="-111.00677"
         cy="57.606483"
         rx="29.750057"
         ry="29.254547"
         transform="scale(-1,1)" />
    </clipPath>
    <clipPath
       clipPathUnits="userSpaceOnUse"
       id="clipPath9">
      <ellipse
         style="fill:#ff0000;fill-opacity:1;stroke-width:1.31199"
         id="ellipse9"
         cx="-113.14416"
         cy="56.169621"
         rx="27.959274"
         ry="28.047583"
         transform="scale(-1,1)" />
    </clipPath>
    <clipPath
       clipPathUnits="userSpaceOnUse"
       id="clipPath5-9">
      <path
         id="path5-3"
         style="fill:#d40000;stroke-width:1.05612"
         d="M 110.33287,23.792403 A 34.755974,33.822926 0 0 0 75.577012,57.614668 34.755974,33.822926 0 0 0 110.33287,91.438887 34.755974,33.822926 0 0 0 145.08873,57.614668 34.755974,33.822926 0 0 0 110.33287,23.792403 Z" />
    </clipPath>
  </defs>
  <sodipodi:namedview
     id="namedview1"
     pagecolor="#ffffff"
     bordercolor="#000000"
     borderopacity="0.25"
     inkscape:showpageshadow="2"
     inkscape:pageopacity="0.0"
     inkscape:pagecheckerboard="0"
     inkscape:deskcolor="#d1d1d1"
     showgrid="false"
     inkscape:zoom="4.287033"
     inkscape:cx="97.619963"
     inkscape:cy="42.803496"
     inkscape:window-width="1920"
     inkscape:window-height="1094"
     inkscape:window-x="-11"
     inkscape:window-y="-11"
     inkscape:window-maximized="1"
     inkscape:current-layer="g1" />
  <g
     inkscape:groupmode="layer"
     inkscape:label="Image"
     id="g1">
    <path
       id="path1"
       style="fill:#030081;fill-opacity:1"
       d="m 9.875,15.521484 c -0.02491,0.0035 -0.050818,0.0043 -0.076172,0.0059 -0.037885,0.0016 -0.07543,0.0056 -0.1132812,0.0078 -0.027869,0.0021 -0.056128,0.0018 -0.083984,0.0039 -0.022787,0.0026 -0.045606,0.0031 -0.068359,0.0059 -0.023469,0.0034 -0.046655,0.0045 -0.070312,0.0059 -0.028681,0.0014 -0.057296,0.0039 -0.085937,0.0059 -0.023883,8e-4 -0.0485,0.0036 -0.072266,0.0059 -0.016218,0.0012 -0.031333,0.007 -0.046875,0.01172 -0.016541,0.0046 -0.032545,0.01218 -0.048828,0.01758 -0.016439,0.0053 -0.032326,0.0087 -0.048828,0.01367 -0.015409,0.0043 -0.031527,0.0092 -0.046875,0.01367 -0.016048,0.0047 -0.03301,0.01021 -0.048828,0.01563 -0.011621,0.0041 -0.023086,0.0055 -0.035156,0.0078 h -0.00195 -0.00195 c -0.00982,0.0014 -0.017927,0.0013 -0.025391,0 -0.050586,0.02299 -0.1003084,0.04827 -0.1523438,0.06836 -0.067877,0.02549 -0.1387643,0.04382 -0.2070312,0.06836 -0.062341,0.02298 -0.1212934,0.05277 -0.1777344,0.08789 -0.053634,0.03639 -0.1085462,0.07114 -0.1621094,0.107421 -0.049907,0.04848 -0.098223,0.0964 -0.1484374,0.144532 -0.05994,0.05494 -0.1185494,0.112237 -0.1777344,0.167968 -0.059511,0.04842 -0.117417,0.100374 -0.1738282,0.152344 -0.055414,0.05135 -0.1067693,0.1048 -0.1621093,0.15625 -0.052456,0.05883 -0.1086343,0.114188 -0.1601563,0.173828 -0.043881,0.05436 -0.087843,0.107299 -0.1230468,0.167969 -0.034365,0.05448 -0.065186,0.112232 -0.09375,0.169922 -0.030007,0.06877 -0.052317,0.140834 -0.083984,0.208984 -0.027174,0.07033 -0.057921,0.138391 -0.072266,0.212891 -0.00491,0.01705 -0.010199,0.03383 -0.015625,0.05078 v 43.865234 43.787108 c 0.00378,0.0177 0.00766,0.0351 0.011719,0.0527 0.015023,0.0659 0.03646,0.12896 0.056641,0.19336 0.025956,0.0852 0.041858,0.17276 0.060547,0.25976 0.012419,0.081 0.033856,0.15914 0.060547,0.23633 0.02336,0.0697 0.05325,0.13758 0.082031,0.20508 0.034399,0.0809 0.063028,0.16334 0.097656,0.24414 0.032836,0.0772 0.073731,0.15181 0.1152344,0.22461 0.03435,0.0592 0.079054,0.11015 0.1210937,0.16406 0.0304,0.0364 0.058634,0.0756 0.083984,0.11523 0.033199,0.0249 0.065222,0.0503 0.097656,0.0762 0.063205,0.0516 0.1262912,0.10466 0.1894531,0.15625 0.023717,0.0198 0.046559,0.0413 0.072266,0.0586 0.020068,0.0135 0.043599,0.0252 0.064453,0.0371 0.012113,0.007 0.023082,0.0145 0.035156,0.0215 0.079125,0.0451 0.1651259,0.0779 0.2480469,0.11524 0.087977,0.0395 0.1728578,0.0837 0.2617188,0.12109 0.071615,0.0289 0.1451151,0.0538 0.2207031,0.0703 0.067983,0.0181 0.1360589,0.0375 0.2011719,0.0645 0.060325,0.0255 0.1202854,0.0523 0.1777343,0.084 0.010217,0.006 0.020943,0.0135 0.03125,0.0195 h 0.00195 l 0.4589844,0.0742 c 1.5125002,0.24555 45.0441472,0.5392 96.7382762,0.65235 51.69418,0.11315 94.21917,0.441 94.5,0.72851 0.88669,0.90776 9.28714,-0.62025 11.54493,-2.09961 2.01994,-1.32352 2.20465,-2.47174 2.77734,-17.244139 0.33744,-8.70422 0.5631,-28.072755 0.5,-43.042969 -0.11312,-26.853254 -0.14598,-27.247027 -2.36328,-29.330078 -2.22222,-2.087661 -2.71748,-2.109695 -44.09766,-1.863281 -23.01774,0.13707 -68.9621,0.168375 -102.099606,0.06836 z m 2.488281,4.558594 C 14.365822,18.615669 205.6417,19.036353 209.52734,20.513672 l 2.80274,1.066406 -0.47266,41.107422 c -0.3892,33.814681 -0.72188,41.23851 -1.87109,41.85352 -1.86103,0.99593 -10.36488,2.19566 -11.00781,1.55273 -0.2792,-0.27919 -42.46816,-0.55187 -93.75196,-0.60547 l -93.242185,-0.0977 -1.009766,-2.65624 c -0.648837,-1.70657 -0.836,-16.772055 -0.523437,-42.134771 0.401869,-32.609384 0.734812,-39.658631 1.912109,-40.519531 z m 7.589844,2.96875 c -0.15647,0.04446 -0.313202,0.08971 -0.470703,0.13086 -0.166816,0.04359 -0.330968,0.09471 -0.494141,0.15039 -0.12693,0.04792 -0.255928,0.09227 -0.365234,0.175781 -0.14076,0.08497 -0.270303,0.18744 -0.423828,0.25 -0.145327,0.07918 -0.279539,0.175936 -0.410157,0.277344 -0.09594,0.07041 -0.189669,0.143281 -0.287109,0.210938 -0.05125,0.07276 -0.105983,0.142558 -0.164062,0.210937 -0.07701,0.09682 -0.149498,0.199156 -0.210938,0.306641 -0.05228,0.100795 -0.0938,0.206752 -0.134765,0.3125 -0.05589,0.160264 -0.13131,0.309534 -0.22461,0.451172 -0.06939,0.103088 -0.131722,0.211726 -0.195312,0.318359 -0.01353,0.02251 -0.02827,0.04482 -0.04297,0.06641 -5.03e-4,7.39e-4 -0.0014,0.0012 -0.002,0.002 l -0.728516,33.625 c -0.524731,24.211973 -0.449712,37.254492 0.222656,38.738282 l 1.013672,2.236329 34.277344,0.26367 c 37.379899,0.28698 65.91565,0.27922 118.50391,-0.0332 l 34.22656,-0.20508 1.63867,-2.498048 c 1.43903,-2.196229 1.62688,-6.561093 1.55078,-36.013671 -0.0538,-20.842672 -0.47471,-34.240415 -1.11328,-35.433594 -0.56474,-1.055232 -1.81621,-2.138414 -2.7793,-2.408203 -0.96308,-0.269789 -43.375,-0.638399 -94.25,-0.81836 z m 89.636715,5.5 -4.58007,2.427734 c -14.416508,7.64125 -17.254379,28.704063 -5.578129,41.408204 5.654389,6.15215 17.986319,8.796393 26.394529,5.658203 2.61997,-0.97784 5.47349,-2.392848 6.3418,-3.142578 2.83418,-2.44712 3.07826,-1.434448 0.47656,1.976562 -1.40061,1.83629 -4.8124,4.572648 -7.58203,6.080078 -6.83966,3.7226 -17.22198,4.452031 -24.79102,1.744141 C 89.638379,80.897035 82.895848,71.045457 82.71875,59.056641 82.579966,49.661472 84.219655,44.802368 89.332031,39.466797 96.302692,32.191814 100.74764,29.264038 105.38672,28.888672 Z m -34.499996,0.988281 c 0.55,-2e-6 1,0.874547 1,1.94336 0,1.068813 1.012502,2.655725 2.25,3.52539 l 2.25,1.582032 -2.25,0.591797 c -1.327284,0.349305 -2.25,1.363602 -2.25,2.474609 10e-7,1.891282 -1.090902,2.459881 -2.333985,1.216797 -0.366667,-0.366666 -0.666015,-1.491666 -0.666015,-2.5 0,-1.008333 -0.674998,-1.833988 -1.5,-1.833985 -0.825,0 -1.5,-0.450002 -1.5,-1 0,-0.55 0.900003,-1 2,-1 1.466668,0 2,-0.666669 2,-2.5 0,-1.375 0.450002,-2.5 1,-2.5 z m 74.999996,0 c 1.11111,-2e-6 2,0.666667 2,1.5 0,0.833331 -0.88889,1.5 -2,1.5 -1.11111,0 -2,-0.666669 -2,-1.5 0,-0.833333 0.88889,-1.500005 2,-1.5 z M 60.125,30.775391 c 1.056342,0.04226 1.976531,0.93458 1.421875,1.832031 -0.316431,0.511996 -0.971949,0.929687 -1.457031,0.929687 -1.400477,0 -2.135936,-1.797097 -1.017578,-2.488281 0.332996,-0.205802 0.70062,-0.287523 1.052734,-0.273437 z m 110.75586,1.808593 c 0.58626,0.0087 1.44336,0.533759 2.2793,1.541016 0.88481,1.06608 2.23713,1.400618 4.12304,1.023438 3.24822,-0.649646 3.36067,-0.387716 1.23438,2.857421 -1.21965,1.861417 -1.32365,2.860155 -0.46485,4.464844 1.18455,2.213349 0.45854,2.61891 -1.95703,1.091797 -1.10436,-0.69817 -2.07438,-0.237176 -3.71484,1.765625 -2.11654,2.584053 -2.22156,2.608451 -2.25586,0.541016 -0.054,-3.254536 -1.0833,-5.332032 -2.64258,-5.332032 -2.1019,0 -1.66998,-1.777181 0.60742,-2.5 1.93124,-0.612955 2.41714,-1.609209 2.07422,-4.25 -0.10621,-0.817926 0.19951,-1.210779 0.7168,-1.203125 z m -128.671876,0.002 c 0.53782,-0.0078 1.152359,0.498778 1.560547,1.5625 0.340051,0.886158 2.013563,2.200007 3.71875,2.917968 l 3.101563,1.304688 -2.75,0.691406 c -3.114978,0.783641 -3.150781,0.859942 -1.669922,3.626953 1.410137,2.634865 0.629402,3.309833 -1.958984,1.693359 -1.635341,-1.02129 -2.330262,-1.036954 -3.296876,-0.07031 -1.900269,1.90027 -2.824218,1.462332 -2.824218,-1.339844 0,-1.411158 -0.465806,-3.436158 -1.035156,-4.5 -0.896924,-1.675919 -0.696585,-1.935547 1.5,-1.935547 1.868515,0 2.535156,-0.525932 2.535156,-2 0,-1.272639 0.50961,-1.94232 1.11914,-1.951171 z m 103.962896,2.951171 c 1.16373,0 1.90861,0.524165 1.6875,1.1875 -0.48713,1.461342 -2.15557,2.094441 -3.08204,1.167969 -1.3041,-1.304099 -0.6828,-2.355469 1.39454,-2.355469 z m 9.99023,4 c 1.39797,-10e-7 1.96801,0.543885 1.75,1.667969 -0.58409,3.011747 -3.82227,2.728759 -3.82227,-0.333984 0,-0.733333 0.93195,-1.333988 2.07227,-1.333985 z m 37.21289,3.257813 c 0.25652,-0.0089 0.55807,0.186961 0.94727,0.576172 0.64197,0.641969 2.06796,1.166012 3.16796,1.166015 1.55556,-10e-7 1.73216,0.267839 0.79883,1.201172 -0.66,0.66 -1.20017,1.8975 -1.20117,2.75 -0.004,2.649054 -5.39729,2.163512 -6.70312,-0.603515 -0.86164,-1.825804 -0.81938,-2.347659 0.1914,-2.347657 0.71441,-10e-7 1.58759,-0.749046 1.93945,-1.666015 0.27431,-0.714775 0.52957,-1.064772 0.85938,-1.076172 z M 25.742188,45.537109 c 2.006315,-10e-7 2.423885,0.434305 2.166015,2.25 -0.356184,2.507933 -4.251385,3.708732 -5.044922,1.554688 -0.839517,-2.278859 0.314577,-3.804688 2.878907,-3.804688 z m 35.554687,9 c 0.0079,-8.13e-4 0.01539,0 0.02344,0 0.257614,0 0.587447,0.416665 1.201172,1.25 0.708852,0.962499 1.800859,1.749998 2.427735,1.75 0.626866,0 1.140625,0.449998 1.140625,1 0,0.549998 -0.45,1 -1,1 -0.549998,0 -1,0.948578 -1,2.107422 0,1.535004 -0.441823,1.937202 -1.626953,1.482422 -0.894712,-0.343333 -2.244712,-0.111209 -3,0.515625 -1.088036,0.902989 -1.373041,0.716434 -1.373047,-0.90039 0,-1.122361 -0.273578,-2.753063 -0.607422,-3.623047 -0.387243,-1.009139 -0.06438,-1.582032 0.892578,-1.582032 0.825,-10e-7 1.806562,-0.787501 2.179688,-1.75 0.312955,-0.807293 0.496823,-1.224772 0.742187,-1.25 z m 119.851565,1.203125 c 0.10959,-0.0055 0.22075,-0.0044 0.33203,0.002 0.8093,0.04652 1.65396,0.411801 2.39844,1.15625 1.27311,1.273108 1.34997,2.04085 0.41015,4.103515 -1.08272,2.376327 -4.03083,3.371511 -5.5332,1.869141 -0.36667,-0.366666 -0.66602,-1.910371 -0.66602,-3.431641 0,-2.209239 1.41464,-3.616373 3.0586,-3.699219 z M 47.261719,59.658203 c 2.015568,0.11245 3.774536,1.857166 3.162109,3.453125 -0.303743,0.791541 -1.868288,1.425781 -3.511719,1.425781 -2.49673,0 -2.911883,-0.35068 -2.642578,-2.238281 0.175753,-1.231882 1.128267,-2.395449 2.117188,-2.583984 0.292242,-0.05571 0.58706,-0.0727 0.875,-0.05664 z M 150.4668,60.884766 c 0.32734,-0.01966 1.05084,0.340574 2.3789,1.027343 1.68369,0.870668 3.95555,1.25194 5.32227,0.894532 l 2.38281,-0.623047 -1.82422,2.785156 c -1.31964,2.014033 -1.52127,3.086153 -0.73047,3.876953 1.85383,1.85383 1.21484,2.761431 -1.46875,2.087891 -2.06068,-0.5172 -2.66839,-0.228241 -3.11523,1.480468 -0.69837,2.670581 -2.32227,2.782917 -2.32227,0.160157 0,-1.08065 -0.98687,-2.494022 -2.1914,-3.138672 l -2.18946,-1.171875 2.26758,-1.833984 c 1.62408,-1.315089 2.07732,-2.4304 1.59961,-3.935547 -0.34161,-1.076332 -0.48036,-1.587099 -0.10937,-1.609375 z m 39.78711,1.251953 c 0.53451,0.0149 1.29671,0.459444 2.08398,1.378906 1.0397,1.214281 2.42251,1.696846 3.92773,1.373047 2.2225,-0.478094 2.24313,-0.432496 0.44922,1.027344 -1.07118,0.871702 -1.62055,2.190027 -1.28125,3.074218 0.662,1.72514 -1.82224,2.200912 -2.8457,0.544922 -0.34116,-0.55201 -1.83175,-0.710932 -3.31055,-0.351562 -2.66944,0.64872 -2.67427,0.638357 -0.8164,-1.458985 1.02921,-1.16187 1.6106,-2.789316 1.29297,-3.617187 -0.49883,-1.299908 -0.18728,-1.989867 0.5,-1.970703 z M 29.382812,62.826172 c 0.235242,6.88e-4 0.617902,0.326365 1.09961,0.960937 0.730642,0.9625 2.064928,1.75 2.966797,1.75 2.136606,0 2.06881,0.571815 -0.359375,3 -2.308247,2.308244 -5.999998,2.666462 -6,0.582032 0,-0.780014 -0.273578,-2.130016 -0.607422,-3 -0.398311,-1.037983 -0.05452,-1.582032 1,-1.582032 0.883844,0 1.621183,-0.5625 1.638672,-1.25 0.0079,-0.310131 0.100764,-0.461408 0.261718,-0.460937 z m 42.207032,11.710937 c 0.825002,0 1.5,0.674998 1.5,1.5 0,0.825 -0.674998,1.5 -1.5,1.5 -0.825,0 -1.5,-0.675 -1.5,-1.5 0,-0.825002 0.675,-1.5 1.5,-1.5 z m 93.585936,2.023438 c 0.46183,-0.01438 0.98461,0.282961 1.38672,0.933594 0.32507,0.52596 1.18805,0.727365 1.91797,0.447265 0.93654,-0.35938 1.29575,0.388226 1.21875,2.541016 -0.073,2.04073 -0.62329,3.051734 -1.66016,3.052734 -0.8525,0.0013 -1.9775,0.417087 -2.5,0.923828 -0.58656,0.5689 -1.60961,0.0329 -2.67383,-1.402343 -1.47816,-1.99348 -1.51376,-2.405665 -0.25,-2.890625 0.81049,-0.31101 1.47461,-1.253444 1.47461,-2.095704 0,-0.956744 0.49215,-1.491282 1.08594,-1.509765 z m 27.2461,1.275391 c 0.22558,-0.0144 0.59048,0.222862 1.1621,0.697265 0.82207,0.68221 2.43371,0.995103 3.58008,0.695313 1.67136,-0.43707 1.93359,-0.211958 1.32422,1.132812 -0.41796,0.92237 -0.74737,2.853569 -0.73047,4.292969 0.0242,2.06327 -0.3617,2.515269 -1.82422,2.132812 -1.0203,-0.26682 -2.52754,0.0736 -3.34961,0.75586 -1.19523,0.99199 -1.49414,0.98175 -1.49414,-0.05273 0,-0.711539 -0.71335,-2.080928 -1.58398,-3.042968 -1.4542,-1.60687 -1.41353,-1.841155 0.5,-2.865235 1.14563,-0.61313 2.08398,-1.828182 2.08398,-2.701172 0,-0.687975 0.0764,-1.028602 0.33204,-1.044921 z m -157.615239,0.07617 c 0.296808,0 0.642223,0.353701 1.230468,1.0625 0.713532,0.85975 2.028672,1.577049 2.923829,1.59375 1.451914,0.02713 1.444034,0.138794 -0.08008,1.027344 -0.939656,0.54782 -1.465346,1.629337 -1.167968,2.404297 0.840996,2.1916 -5.073736,1.647447 -6.47461,-0.595703 -1.497778,-2.39833 -1.449894,-2.867188 0.300781,-2.867188 0.79767,-10e-7 1.845032,-0.70275 2.326172,-1.5625 0.39666,-0.708799 0.6446,-1.0625 0.941407,-1.0625 z m -12.539063,0.722657 c 0.602744,0.04846 0.818449,0.41312 0.603516,1.058593 -0.246417,0.740029 -1.250203,1.499424 -2.230469,1.689453 -1.140016,0.220991 -1.62056,-0.13938 -1.333984,-1 0.246419,-0.74003 1.250202,-1.499426 2.230468,-1.689453 0.285004,-0.05525 0.529554,-0.07475 0.730469,-0.05859 z m 128.347652,0.08008 c 0.11411,-7e-5 0.23001,0.01238 0.34961,0.03516 2.04087,0.38866 2.75564,4.773816 0.96289,5.910156 -1.99487,1.26447 -2.64147,1.07219 -3.29296,-0.980468 -0.78539,-2.47456 0.26888,-4.963803 1.98046,-4.964844 z m -85.498042,1.865234 c 0.378951,-2.64e-4 0.644985,0.409171 1.103515,1.228516 0.532236,0.95105 1.732799,1.744219 2.667969,1.761718 1.576532,0.02949 1.573789,0.127646 -0.04883,1.359376 -0.9625,0.730638 -1.75,1.767534 -1.75,2.302734 0,0.5352 -1.349997,0.972656 -3,0.972656 -1.735309,0 -3,-0.528013 -3,-1.251953 10e-7,-0.68835 -0.297525,-2.076514 -0.660156,-3.083984 -0.362632,-1.0075 -0.285577,-1.491825 0.169921,-1.078125 0.455498,0.4137 1.688013,-0.02822 2.740235,-0.980469 0.90651,-0.82029 1.398385,-1.230205 1.777344,-1.230469 z m 74.500002,5.40625 c 0.10526,-0.0011 0.2081,0.01449 0.30469,0.05078 0.73248,0.27522 1.90438,0.499997 2.60546,0.5 0.77312,0 1.23257,1.179877 1.16797,2.998047 -0.0708,1.99407 -0.6252,2.999 -1.65625,3 -0.8525,0.0013 -2.09,0.543125 -2.75,1.203125 -0.93333,0.93334 -1.19922,0.841395 -1.19922,-0.416015 0,-0.88917 -0.46012,-1.769913 -1.02148,-1.957032 -0.65911,-0.21971 -0.57056,-1.312284 0.25,-3.083984 0.64514,-1.392956 1.56196,-2.287462 2.29883,-2.294922 z m 36.51172,2.550781 c 2.2834,0 3.53122,3.607328 1.91992,5.548829 -1.66454,2.00565 -3.70812,1.817959 -4.41406,-0.40625 -0.8428,-2.65544 0.36264,-5.142587 2.49414,-5.142579 z M 75.121094,90.777344 c 1.185537,0.03396 2.294375,1.423263 1.521484,2.673828 -0.369537,0.59792 -1.067645,1.085933 -1.552734,1.085937 -1.544588,-10e-7 -2.267205,-2.133179 -1.113282,-3.287109 0.344878,-0.344877 0.749354,-0.483974 1.144532,-0.472656 z m -67.5234378,16.240236 -0.00195,0.002 c -1.95e-5,0.002 4.89e-5,0.005 0,0.006 v 0.002 h 0.00195 v -0.002 -0.002 -0.002 c 2.24e-5,-8.1e-4 -3.18e-5,-0.002 0,-0.004 z m -0.1738281,0.0371 c 0.00344,0.006 0.00817,0.0135 0.011719,0.0195 h 0.00195 0.00195 c -0.00539,-0.006 -0.010446,-0.0131 -0.015625,-0.0195 z m 0.5253907,0.45898 v 0.002 0.002 l 0.00781,0.002 v -0.002 l -0.00195,-0.002 h -0.00195 l -0.00195,-0.002 z" />
    <ellipse
       style="fill:#030081;fill-opacity:1"
       id="path4"
       cx="111.97824"
       cy="59.438736"
       rx="30.843935"
       ry="32.988167" />
    <path
       id="path1-8"
       style="fill:#ffffff;fill-opacity:1"
       d="m 9.875,15.521484 c -0.02491,0.0035 -0.050818,0.0043 -0.076172,0.0059 -0.037885,0.0016 -0.07543,0.0056 -0.1132812,0.0078 -0.027869,0.0021 -0.056128,0.0018 -0.083984,0.0039 -0.022787,0.0026 -0.045606,0.0031 -0.068359,0.0059 -0.023469,0.0034 -0.046655,0.0045 -0.070312,0.0059 -0.028681,0.0014 -0.057296,0.0039 -0.085937,0.0059 -0.023883,8e-4 -0.0485,0.0036 -0.072266,0.0059 -0.016218,0.0012 -0.031333,0.007 -0.046875,0.01172 -0.016541,0.0046 -0.032545,0.01218 -0.048828,0.01758 -0.016439,0.0053 -0.032326,0.0087 -0.048828,0.01367 -0.015409,0.0043 -0.031527,0.0092 -0.046875,0.01367 -0.016048,0.0047 -0.03301,0.01021 -0.048828,0.01563 -0.011621,0.0041 -0.023086,0.0055 -0.035156,0.0078 h -0.00195 -0.00195 c -0.00982,0.0014 -0.017927,0.0013 -0.025391,0 -0.050586,0.02299 -0.1003084,0.04827 -0.1523438,0.06836 -0.067877,0.02549 -0.1387643,0.04382 -0.2070312,0.06836 -0.062341,0.02298 -0.1212934,0.05277 -0.1777344,0.08789 -0.053634,0.03639 -0.1085462,0.07114 -0.1621094,0.107421 -0.049907,0.04848 -0.098223,0.0964 -0.1484374,0.144532 -0.05994,0.05494 -0.1185494,0.112237 -0.1777344,0.167968 -0.059511,0.04842 -0.117417,0.100374 -0.1738282,0.152344 -0.055414,0.05135 -0.1067693,0.1048 -0.1621093,0.15625 -0.052456,0.05883 -0.1086343,0.114188 -0.1601563,0.173828 -0.043881,0.05436 -0.087843,0.107299 -0.1230468,0.167969 -0.034365,0.05448 -0.065186,0.112232 -0.09375,0.169922 -0.030007,0.06877 -0.052317,0.140834 -0.083984,0.208984 -0.027174,0.07033 -0.057921,0.138391 -0.072266,0.212891 -0.00491,0.01705 -0.010199,0.03383 -0.015625,0.05078 V 61.445487 105.2326 c 0.00378,0.0177 0.00766,0.0351 0.011719,0.0527 0.015023,0.0659 0.03646,0.12896 0.056641,0.19336 0.025956,0.0852 0.041858,0.17276 0.060547,0.25976 0.012419,0.081 0.033856,0.15913 0.060547,0.23633 0.02336,0.0697 0.05325,0.13758 0.082031,0.20507 0.034399,0.0809 0.063028,0.16335 0.097656,0.24414 0.032836,0.0772 0.073731,0.15181 0.1152344,0.22461 0.03435,0.0592 0.079054,0.11015 0.1210937,0.16407 0.0304,0.0364 0.058634,0.0756 0.083984,0.11522 0.033199,0.0249 0.065222,0.0503 0.097656,0.0762 0.063205,0.0516 0.1262912,0.10466 0.1894531,0.15625 0.023717,0.0198 0.046559,0.0413 0.072266,0.0586 0.020068,0.0135 0.043599,0.0252 0.064453,0.0371 0.012113,0.007 0.023082,0.0145 0.035156,0.0215 0.079125,0.0451 0.1651259,0.0779 0.2480469,0.11524 0.087977,0.0395 0.1728578,0.0837 0.2617188,0.12109 0.071615,0.0289 0.1451151,0.0538 0.2207031,0.0703 0.067983,0.0181 0.1360589,0.0375 0.2011719,0.0645 0.060325,0.0255 0.1202854,0.0523 0.1777343,0.084 0.010217,0.006 0.020943,0.0135 0.03125,0.0195 h 0.00195 l 0.4589844,0.0742 c 1.5124998,0.24555 45.0441468,0.5392 96.7382718,0.65235 51.69418,0.11315 94.21917,0.441 94.5,0.72851 0.88669,0.90776 9.28714,-0.62025 11.54493,-2.09961 2.01994,-1.32352 2.20465,-2.47174 2.77734,-17.244134 0.33744,-8.70422 0.5631,-28.072755 0.5,-43.042969 -0.11312,-26.853254 -0.14598,-27.247027 -2.36328,-29.330078 -2.22222,-2.087661 -2.71748,-2.109695 -44.09766,-1.863281 -23.01774,0.13707 -68.9621,0.168375 -102.099602,0.06836 z m 2.488281,4.558594 C 14.365822,18.615669 205.6417,19.036353 209.52734,20.513672 l 2.80274,1.066406 -0.47266,41.107422 c -0.3892,33.814681 -0.72188,41.23851 -1.87109,41.85352 -1.86103,0.99593 -10.36488,2.19566 -11.00781,1.55273 -0.2792,-0.27919 -42.46816,-0.55187 -93.75196,-0.60547 l -93.242185,-0.0977 -1.009766,-2.65624 c -0.648837,-1.70657 -0.836,-16.772055 -0.523437,-42.134771 0.401869,-32.609384 0.734812,-39.658631 1.912109,-40.519531 z m 7.589844,2.96875 c -0.15647,0.04446 -0.313202,0.08971 -0.470703,0.13086 -0.166816,0.04359 -0.330968,0.09471 -0.494141,0.15039 -0.12693,0.04792 -0.255928,0.09227 -0.365234,0.175781 -0.14076,0.08497 -0.270303,0.18744 -0.423828,0.25 -0.145327,0.07918 -0.279539,0.175936 -0.410157,0.277344 -0.09594,0.07041 -0.189669,0.143281 -0.287109,0.210938 -0.05125,0.07276 -0.105983,0.142558 -0.164062,0.210937 -0.07701,0.09682 -0.149498,0.199156 -0.210938,0.306641 -0.05228,0.100795 -0.0938,0.206752 -0.134765,0.3125 -0.05589,0.160264 -0.13131,0.309534 -0.22461,0.451172 -0.06939,0.103088 -0.131722,0.211726 -0.195312,0.318359 -0.01353,0.02251 -0.02827,0.04482 -0.04297,0.06641 -5.03e-4,7.39e-4 -0.0014,0.0012 -0.002,0.002 l -0.728516,33.625 c -0.524731,24.211973 -0.449712,37.254492 0.222656,38.738282 l 1.013672,2.236328 34.277344,0.26367 c 37.379899,0.28698 65.915648,0.27922 118.503908,-0.0332 l 34.22656,-0.20508 1.63867,-2.498047 c 1.43903,-2.196229 1.62688,-6.561093 1.55078,-36.013671 -0.0538,-20.842672 -0.47471,-34.240415 -1.11328,-35.433594 -0.56474,-1.055232 -1.81621,-2.138414 -2.7793,-2.408203 -0.96308,-0.269789 -43.375,-0.638399 -94.25,-0.81836 z m 89.636715,5.5 -4.58007,2.427734 c -14.416508,7.64125 -17.254379,28.704063 -5.578129,41.408204 5.654389,6.15215 17.986319,8.796393 26.394529,5.658203 2.61997,-0.97784 5.47349,-2.392848 6.3418,-3.142578 2.83418,-2.44712 3.07826,-1.434448 0.47656,1.976562 -1.40061,1.83629 -4.8124,4.572648 -7.58203,6.080078 -6.83966,3.7226 -17.22198,4.452031 -24.79102,1.744141 C 89.638379,80.897035 82.895848,71.045457 82.71875,59.056641 82.579966,49.661472 84.219655,44.802368 89.332031,39.466797 96.302692,32.191814 100.74764,29.264038 105.38672,28.888672 Z m -34.499996,0.988281 c 0.55,-2e-6 1,0.874547 1,1.94336 0,1.068813 1.012502,2.655725 2.25,3.52539 l 2.25,1.582032 -2.25,0.591797 c -1.327284,0.349305 -2.25,1.363602 -2.25,2.474609 10e-7,1.891282 -1.090902,2.459881 -2.333985,1.216797 -0.366667,-0.366666 -0.666015,-1.491666 -0.666015,-2.5 0,-1.008333 -0.674998,-1.833988 -1.5,-1.833985 -0.825,0 -1.5,-0.450002 -1.5,-1 0,-0.55 0.900003,-1 2,-1 1.466668,0 2,-0.666669 2,-2.5 0,-1.375 0.450002,-2.5 1,-2.5 z m 74.999996,0 c 1.11111,-2e-6 2,0.666667 2,1.5 0,0.833331 -0.88889,1.5 -2,1.5 -1.11111,0 -2,-0.666669 -2,-1.5 0,-0.833333 0.88889,-1.500005 2,-1.5 z M 60.125,30.775391 c 1.056342,0.04226 1.976531,0.93458 1.421875,1.832031 -0.316431,0.511996 -0.971949,0.929687 -1.457031,0.929687 -1.400477,0 -2.135936,-1.797097 -1.017578,-2.488281 0.332996,-0.205802 0.70062,-0.287523 1.052734,-0.273437 z m 110.75586,1.808593 c 0.58626,0.0087 1.44336,0.533759 2.2793,1.541016 0.88481,1.06608 2.23713,1.400618 4.12304,1.023438 3.24822,-0.649646 3.36067,-0.387716 1.23438,2.857421 -1.21965,1.861417 -1.32365,2.860155 -0.46485,4.464844 1.18455,2.213349 0.45854,2.61891 -1.95703,1.091797 -1.10436,-0.69817 -2.07438,-0.237176 -3.71484,1.765625 -2.11654,2.584053 -2.22156,2.608451 -2.25586,0.541016 -0.054,-3.254536 -1.0833,-5.332032 -2.64258,-5.332032 -2.1019,0 -1.66998,-1.777181 0.60742,-2.5 1.93124,-0.612955 2.41714,-1.609209 2.07422,-4.25 -0.10621,-0.817926 0.19951,-1.210779 0.7168,-1.203125 z m -128.671876,0.002 c 0.53782,-0.0078 1.152359,0.498778 1.560547,1.5625 0.340051,0.886158 2.013563,2.200007 3.71875,2.917968 l 3.101563,1.304688 -2.75,0.691406 c -3.114978,0.783641 -3.150781,0.859942 -1.669922,3.626953 1.410137,2.634865 0.629402,3.309833 -1.958984,1.693359 -1.635341,-1.02129 -2.330262,-1.036954 -3.296876,-0.07031 -1.900269,1.90027 -2.824218,1.462332 -2.824218,-1.339844 0,-1.411158 -0.465806,-3.436158 -1.035156,-4.5 -0.896924,-1.675919 -0.696585,-1.935547 1.5,-1.935547 1.868515,0 2.535156,-0.525932 2.535156,-2 0,-1.272639 0.50961,-1.94232 1.11914,-1.951171 z m 103.962896,2.951171 c 1.16373,0 1.90861,0.524165 1.6875,1.1875 -0.48713,1.461342 -2.15557,2.094441 -3.08204,1.167969 -1.3041,-1.304099 -0.6828,-2.355469 1.39454,-2.355469 z m 9.99023,4 c 1.39797,-10e-7 1.96801,0.543885 1.75,1.667969 -0.58409,3.011747 -3.82227,2.728759 -3.82227,-0.333984 0,-0.733333 0.93195,-1.333988 2.07227,-1.333985 z m 37.21289,3.257813 c 0.25652,-0.0089 0.55807,0.186961 0.94727,0.576172 0.64197,0.641969 2.06796,1.166012 3.16796,1.166015 1.55556,-10e-7 1.73216,0.267839 0.79883,1.201172 -0.66,0.66 -1.20017,1.8975 -1.20117,2.75 -0.004,2.649054 -5.39729,2.163512 -6.70312,-0.603515 -0.86164,-1.825804 -0.81938,-2.347659 0.1914,-2.347657 0.71441,-10e-7 1.58759,-0.749046 1.93945,-1.666015 0.27431,-0.714775 0.52957,-1.064772 0.85938,-1.076172 z M 25.742188,45.537109 c 2.006315,-10e-7 2.423885,0.434305 2.166015,2.25 -0.356184,2.507933 -4.251385,3.708732 -5.044922,1.554688 -0.839517,-2.278859 0.314577,-3.804688 2.878907,-3.804688 z m 35.554687,9 c 0.0079,-8.13e-4 0.01539,0 0.02344,0 0.257614,0 0.587447,0.416665 1.201172,1.25 0.708852,0.962499 1.800859,1.749998 2.427735,1.75 0.626866,0 1.140625,0.449998 1.140625,1 0,0.549998 -0.45,1 -1,1 -0.549998,0 -1,0.948578 -1,2.107422 0,1.535004 -0.441823,1.937202 -1.626953,1.482422 -0.894712,-0.343333 -2.244712,-0.111209 -3,0.515625 -1.088036,0.902989 -1.373041,0.716434 -1.373047,-0.90039 0,-1.122361 -0.273578,-2.753063 -0.607422,-3.623047 -0.387243,-1.009139 -0.06438,-1.582032 0.892578,-1.582032 0.825,-10e-7 1.806562,-0.787501 2.179688,-1.75 0.312955,-0.807293 0.496823,-1.224772 0.742187,-1.25 z m 119.851565,1.203125 c 0.10959,-0.0055 0.22075,-0.0044 0.33203,0.002 0.8093,0.04652 1.65396,0.411801 2.39844,1.15625 1.27311,1.273108 1.34997,2.04085 0.41015,4.103515 -1.08272,2.376327 -4.03083,3.371511 -5.5332,1.869141 -0.36667,-0.366666 -0.66602,-1.910371 -0.66602,-3.431641 0,-2.209239 1.41464,-3.616373 3.0586,-3.699219 z M 47.261719,59.658203 c 2.015568,0.11245 3.774536,1.857166 3.162109,3.453125 -0.303743,0.791541 -1.868288,1.425781 -3.511719,1.425781 -2.49673,0 -2.911883,-0.35068 -2.642578,-2.238281 0.175753,-1.231882 1.128267,-2.395449 2.117188,-2.583984 0.292242,-0.05571 0.58706,-0.0727 0.875,-0.05664 z M 150.4668,60.884766 c 0.32734,-0.01966 1.05084,0.340574 2.3789,1.027343 1.68369,0.870668 3.95555,1.25194 5.32227,0.894532 l 2.38281,-0.623047 -1.82422,2.785156 c -1.31964,2.014033 -1.52127,3.086153 -0.73047,3.876953 1.85383,1.85383 1.21484,2.761431 -1.46875,2.087891 -2.06068,-0.5172 -2.66839,-0.228241 -3.11523,1.480468 -0.69837,2.670581 -2.32227,2.782917 -2.32227,0.160157 0,-1.08065 -0.98687,-2.494022 -2.1914,-3.138672 l -2.18946,-1.171875 2.26758,-1.833984 c 1.62408,-1.315089 2.07732,-2.4304 1.59961,-3.935547 -0.34161,-1.076332 -0.48036,-1.587099 -0.10937,-1.609375 z m 39.78711,1.251953 c 0.53451,0.0149 1.29671,0.459444 2.08398,1.378906 1.0397,1.214281 2.42251,1.696846 3.92773,1.373047 2.2225,-0.478094 2.24313,-0.432496 0.44922,1.027344 -1.07118,0.871702 -1.62055,2.190027 -1.28125,3.074218 0.662,1.72514 -1.82224,2.200912 -2.8457,0.544922 -0.34116,-0.55201 -1.83175,-0.710932 -3.31055,-0.351562 -2.66944,0.64872 -2.67427,0.638357 -0.8164,-1.458985 1.02921,-1.16187 1.6106,-2.789316 1.29297,-3.617187 -0.49883,-1.299908 -0.18728,-1.989867 0.5,-1.970703 z M 29.382812,62.826172 c 0.235242,6.88e-4 0.617902,0.326365 1.09961,0.960937 0.730642,0.9625 2.064928,1.75 2.966797,1.75 2.136606,0 2.06881,0.571815 -0.359375,3 -2.308247,2.308244 -5.999998,2.666462 -6,0.582032 0,-0.780014 -0.273578,-2.130016 -0.607422,-3 -0.398311,-1.037983 -0.05452,-1.582032 1,-1.582032 0.883844,0 1.621183,-0.5625 1.638672,-1.25 0.0079,-0.310131 0.100764,-0.461408 0.261718,-0.460937 z m 42.207032,11.710937 c 0.825002,0 1.5,0.674998 1.5,1.5 0,0.825 -0.674998,1.5 -1.5,1.5 -0.825,0 -1.5,-0.675 -1.5,-1.5 0,-0.825002 0.675,-1.5 1.5,-1.5 z m 93.585936,2.023438 c 0.46183,-0.01438 0.98461,0.282961 1.38672,0.933594 0.32507,0.52596 1.18805,0.727365 1.91797,0.447265 0.93654,-0.35938 1.29575,0.388226 1.21875,2.541016 -0.073,2.04073 -0.62329,3.051734 -1.66016,3.052734 -0.8525,0.0013 -1.9775,0.417087 -2.5,0.923828 -0.58656,0.5689 -1.60961,0.0329 -2.67383,-1.402343 -1.47816,-1.99348 -1.51376,-2.405665 -0.25,-2.890625 0.81049,-0.31101 1.47461,-1.253444 1.47461,-2.095704 0,-0.956744 0.49215,-1.491282 1.08594,-1.509765 z m 27.2461,1.275391 c 0.22558,-0.0144 0.59048,0.222862 1.1621,0.697265 0.82207,0.68221 2.43371,0.995103 3.58008,0.695313 1.67136,-0.43707 1.93359,-0.211958 1.32422,1.132812 -0.41796,0.92237 -0.74737,2.853569 -0.73047,4.292969 0.0242,2.06327 -0.3617,2.515269 -1.82422,2.132812 -1.0203,-0.26682 -2.52754,0.0736 -3.34961,0.75586 -1.19523,0.99199 -1.49414,0.98175 -1.49414,-0.05273 0,-0.711539 -0.71335,-2.080928 -1.58398,-3.042968 -1.4542,-1.60687 -1.41353,-1.841155 0.5,-2.865235 1.14563,-0.61313 2.08398,-1.828182 2.08398,-2.701172 0,-0.687975 0.0764,-1.028602 0.33204,-1.044921 z m -157.615239,0.07617 c 0.296808,0 0.642223,0.353701 1.230468,1.0625 0.713532,0.85975 2.028672,1.577049 2.923829,1.59375 1.451914,0.02713 1.444034,0.138794 -0.08008,1.027344 -0.939656,0.54782 -1.465346,1.629337 -1.167968,2.404297 0.840996,2.1916 -5.073736,1.647447 -6.47461,-0.595703 -1.497778,-2.39833 -1.449894,-2.867188 0.300781,-2.867188 0.79767,-10e-7 1.845032,-0.70275 2.326172,-1.5625 0.39666,-0.708799 0.6446,-1.0625 0.941407,-1.0625 z m -12.539063,0.722657 c 0.602744,0.04846 0.818449,0.41312 0.603516,1.058593 -0.246417,0.740029 -1.250203,1.499424 -2.230469,1.689453 -1.140016,0.220991 -1.62056,-0.13938 -1.333984,-1 0.246419,-0.74003 1.250202,-1.499426 2.230468,-1.689453 0.285004,-0.05525 0.529554,-0.07475 0.730469,-0.05859 z m 128.347652,0.08008 c 0.11411,-7e-5 0.23001,0.01238 0.34961,0.03516 2.04087,0.38866 2.75564,4.773816 0.96289,5.910156 -1.99487,1.26447 -2.64147,1.07219 -3.29296,-0.980468 -0.78539,-2.47456 0.26888,-4.963803 1.98046,-4.964844 z m -85.498042,1.865234 c 0.378951,-2.64e-4 0.644985,0.409171 1.103515,1.228516 0.532236,0.95105 1.732799,1.744219 2.667969,1.761718 1.576532,0.02949 1.573789,0.127646 -0.04883,1.359376 -0.9625,0.730638 -1.75,1.767534 -1.75,2.302734 0,0.5352 -1.349997,0.972656 -3,0.972656 -1.735309,0 -3,-0.528013 -3,-1.251953 1e-6,-0.68835 -0.297525,-2.076514 -0.660156,-3.083984 -0.362632,-1.0075 -0.285577,-1.491825 0.169921,-1.078125 0.455498,0.4137 1.688013,-0.02822 2.740235,-0.980469 0.90651,-0.82029 1.398385,-1.230205 1.777344,-1.230469 z m 74.500002,5.40625 c 0.10526,-0.0011 0.2081,0.01449 0.30469,0.05078 0.73248,0.27522 1.90438,0.499997 2.60546,0.5 0.77312,0 1.23257,1.179877 1.16797,2.998047 -0.0708,1.99407 -0.6252,2.999 -1.65625,3 -0.8525,0.0013 -2.09,0.543125 -2.75,1.203125 -0.93333,0.93334 -1.19922,0.841395 -1.19922,-0.416015 0,-0.88917 -0.46012,-1.769913 -1.02148,-1.957032 -0.65911,-0.21971 -0.57056,-1.312284 0.25,-3.083984 0.64514,-1.392956 1.56196,-2.287462 2.29883,-2.294921 z m 36.51172,2.550781 c 2.2834,0 3.53122,3.607328 1.91992,5.548829 -1.66454,2.00565 -3.70812,1.817959 -4.41406,-0.40625 -0.8428,-2.65544 0.36264,-5.142587 2.49414,-5.142579 z M 75.121094,90.777344 c 1.185537,0.03396 2.294375,1.423263 1.521484,2.673828 -0.369537,0.59792 -1.067645,1.085933 -1.552734,1.085937 -1.544588,-10e-7 -2.267205,-2.133179 -1.113282,-3.287109 0.344878,-0.344877 0.749354,-0.483974 1.144532,-0.472656 z m -67.5234378,16.240236 -0.00195,0.002 c -1.95e-5,0.002 4.89e-5,0.005 0,0.006 v 0.002 h 0.00195 v -0.002 -0.002 -0.002 c 2.24e-5,-8.1e-4 -3.18e-5,-0.002 0,-0.004 z m -0.1738281,0.0371 c 0.00344,0.006 0.00817,0.0135 0.011719,0.0195 h 0.00195 0.00195 c -0.00539,-0.006 -0.010446,-0.0131 -0.015625,-0.0195 z m 0.5253907,0.45898 v 0.002 0.002 l 0.00781,0.002 v -0.002 l -0.00195,-0.002 h -0.00195 l -0.00195,-0.002 z"
       clip-path="url(#clipPath9)"
       transform="matrix(-1.0094914,0,0,1.0146297,222.21815,-0.07554274)" />
    <ellipse
       style="fill:#ffffff;fill-opacity:1;stroke-width:1.18063"
       id="path18"
       cx="19.974945"
       cy="102.33056"
       rx="3.113483"
       ry="4.8707261"
       transform="matrix(0.99011993,-0.14022314,0.67001433,0.74234816,0,0)" />
    <rect
       style="fill:#030081;fill-opacity:1;stroke-width:1.21618"
       id="rect18"
       width="3.4697657"
       height="3.6010933"
       x="-7.3094907"
       y="115.1805"
       transform="matrix(0.99864188,-0.05209987,0.77104152,0.63678488,0,0)" />
    <rect
       style="fill:#030081;fill-opacity:1;stroke-width:1.21618"
       id="rect18-2"
       width="3.4697657"
       height="3.6010933"
       x="21.849003"
       y="96.78611"
       transform="matrix(0.9360594,-0.35184201,0.92758265,0.37361802,0,0)" />
    <path
       id="rect29"
       style="fill:#030081;fill-opacity:1;stroke-width:1.1698"
       d="M 79.666016 23.585938 L 79.666016 29.251953 A 8.3707476 7.958395 0 0 1 83.460938 35.916016 A 8.3707476 7.958395 0 0 1 79.666016 42.580078 L 79.666016 91.212891 L 109.68555 91.212891 L 109.68555 23.585938 L 79.666016 23.585938 z " />
  </g>
</svg>
