<?xml version="1.0" encoding="UTF-8" standalone="no"?>
<!-- Created with Inkscape (http://www.inkscape.org/) -->

<svg
   version="1.1"
   id="svg1"
   width="176"
   height="44.48"
   viewBox="0 0 176 44.48"
   sodipodi:docname="underConstruction.svg"
   inkscape:version="1.4.2 (f4327f4, 2025-05-13)"
   xmlns:inkscape="http://www.inkscape.org/namespaces/inkscape"
   xmlns:sodipodi="http://sodipodi.sourceforge.net/DTD/sodipodi-0.dtd"
   xmlns="http://www.w3.org/2000/svg"
   xmlns:svg="http://www.w3.org/2000/svg">
  <defs
     id="defs1" />
  <sodipodi:namedview
     id="namedview1"
     pagecolor="#ffffff"
     bordercolor="#000000"
     borderopacity="0.25"
     inkscape:showpageshadow="2"
     inkscape:pageopacity="0.0"
     inkscape:pagecheckerboard="0"
     inkscape:deskcolor="#d1d1d1"
     showgrid="false"
     inkscape:zoom="7.6818182"
     inkscape:cx="88.260355"
     inkscape:cy="22.195266"
     inkscape:window-width="1920"
     inkscape:window-height="1094"
     inkscape:window-x="-11"
     inkscape:window-y="-11"
     inkscape:window-maximized="1"
     inkscape:current-layer="g1" />
  <g
     inkscape:groupmode="layer"
     inkscape:label="Image"
     id="g1">
    <path
       style="fill:#020081;fill-opacity:1"
       d="m 85.939719,34.438775 c -0.316108,-0.661947 -0.140088,-6.418313 0.259031,-8.471043 0.146941,-0.755741 0.157498,-1.957801 0.02346,-2.671243 -0.279592,-1.488166 0.209581,-1.47367 -5.243288,-0.155372 -4.166451,1.00729 -7.444504,0.972528 -10.670802,-0.113165 -2.062673,-0.694115 -2.486371,-0.723838 -6.574941,-0.46123 C 60.6017,22.767858 58.497785,22.72903 56.310528,22.429731 54.011934,22.1152 52.746573,22.100275 51.187,22.369293 c -1.139087,0.196489 -3.609922,0.401937 -5.490746,0.456548 -1.880825,0.05458 -3.48916,0.218857 -3.574082,0.364988 -0.08492,0.146134 0.544306,1.08537 1.398283,2.087193 2.316152,2.717138 2.277958,2.651109 1.745211,3.017065 -0.419009,0.287828 -0.417054,0.359811 0.01759,0.647855 0.428234,0.283795 0.425867,0.313683 -0.01905,0.240605 -0.74995,-0.123178 -3.460323,-3.147318 -4.435841,-4.949359 -1.037854,-1.917191 -2.088242,-2.128242 -2.642129,-0.530875 -0.242093,0.698179 -0.519438,0.966307 -0.926193,0.895412 -0.47017,-0.08195 -0.568268,-0.358421 -0.515702,-1.453401 0.07631,-1.589596 -0.48544,-1.807133 -0.7482,-0.28974 -0.320285,1.849594 -0.457095,2.173207 -0.924107,2.185888 -0.252046,0.0069 -0.478406,-0.167075 -0.503019,-0.386488 -0.0806,-0.718514 0.0054,-2.309386 0.155988,-2.885297 0.08114,-0.310316 0.0042,-0.560321 -0.170893,-0.555566 -0.175132,0.0047 -0.396958,0.814509 -0.492948,1.799454 -0.10544,1.0819 -0.352213,1.864585 -0.623389,1.977181 -0.699528,0.290456 -0.868546,-0.08069 -0.836154,-1.836102 0.01983,-1.074584 -0.08251,-1.55337 -0.301358,-1.409768 -0.182261,0.1196 -0.318254,0.701 -0.302206,1.292 0.01605,0.591002 -0.05202,1.304613 -0.151247,1.585805 -0.197071,0.558426 -1.066291,0.731878 -1.080311,0.215575 -0.0047,-0.175935 -0.143813,-0.316212 -0.308968,-0.311729 -0.165155,0.0045 -0.367393,0.694229 -0.449419,1.532764 -0.438824,4.486007 -0.740639,6.532057 -0.987442,6.694009 -0.151344,0.09931 -0.283697,-0.133448 -0.294119,-0.517243 -0.0166,-0.611215 -0.08275,-0.641868 -0.533059,-0.247017 -0.452103,0.396421 -0.493656,0.373319 -0.344519,-0.191538 0.09327,-0.353281 0.289202,-2.014081 0.435393,-3.690667 0.14619,-1.676586 0.406966,-3.529997 0.579503,-4.118689 0.172535,-0.588692 0.244658,-1.135743 0.16027,-1.215669 -0.08439,-0.07993 -0.85191,0.03468 -1.705608,0.254692 -2.531216,0.65232 -6.421584,0.643677 -8.455979,-0.01879 -1.41305,-0.460134 -2.330543,-0.535335 -4.390585,-0.359867 -3.189865,0.271702 -4.250348,0.07836 -4.273633,-0.779154 -0.01457,-0.53652 0.215561,-0.646748 1.501038,-0.718975 l 1.518244,-0.0853 -1.528385,-0.28819 c -1.194709,-0.225273 -1.532127,-0.42593 -1.545518,-0.919095 -0.01555,-0.572431 0.144158,-0.618672 1.72307,-0.498922 0.957112,0.07259 2.425198,0.413011 3.262414,0.756493 1.870425,0.767372 2.143562,0.761044 7.670571,-0.177663 2.448541,-0.415862 5.197993,-0.778627 6.109891,-0.806142 1.569518,-0.04732 1.662125,-0.09712 1.73533,-0.932452 0.05537,-0.631818 0.280945,-0.917005 0.79429,-1.004186 0.613446,-0.104179 0.720913,0.02385 0.744345,0.886789 0.03941,1.451238 0.789639,1.026638 0.945818,-0.535294 0.1099,-1.099089 0.222928,-1.250865 0.890522,-1.195815 0.420555,0.03468 0.944419,-0.09458 1.164144,-0.287243 0.284784,-0.249711 0.470615,-0.241919 0.647168,0.02713 0.179994,0.274296 0.357026,0.219029 0.647864,-0.202257 0.616511,-0.893032 1.395873,-0.411485 1.431056,0.884212 0.01658,0.610912 0.152779,1.182006 0.302646,1.269098 0.445589,0.258943 0.958534,-2.954034 1.059834,-6.638553 0.07811,-2.8411247 0.171901,-3.3826239 0.536331,-3.0965175 0.347872,0.2731061 0.437642,0.198552 0.422718,-0.3510674 -0.01046,-0.3837963 0.127414,-0.6127554 0.306301,-0.5087987 0.580283,0.3372183 0.498894,3.8267576 -0.228773,9.8086796 l -0.180556,1.484304 2.523002,0.155314 c 1.387651,0.08543 4.396141,0.473549 6.685535,0.862502 4.159943,0.706747 4.164827,0.706799 7.845174,0.08409 4.932605,-0.834587 6.040352,-0.827922 8.837054,0.05317 l 2.382921,0.750732 4.23709,-0.609984 c 2.330402,-0.33549 6.000437,-0.65804 8.155637,-0.716774 2.255786,-0.06148 3.915051,-0.235481 3.91031,-0.410067 -0.0045,-0.166801 -0.714664,-1.120005 -1.578077,-2.11823 -2.670782,-3.087795 -2.649323,-3.057359 -1.997637,-2.833106 0.651428,0.224165 0.733672,-0.125204 0.157856,-0.670575 -0.306664,-0.290449 -0.281907,-0.376486 0.111407,-0.387167 0.644052,-0.01749 4.242231,4.285255 4.753995,5.684879 0.554096,1.515401 1.503176,1.533209 2.165826,0.04064 0.631709,-1.422881 1.65636,-1.488356 1.597838,-0.102102 -0.02406,0.569981 0.121561,0.864479 0.4234,0.856283 0.294157,-0.008 0.451011,-0.346227 0.434945,-0.937916 -0.01546,-0.569389 0.178257,-1.009872 0.503524,-1.144928 0.633555,-0.263061 1.129698,0.36638 0.908329,1.152372 -0.08744,0.310488 -0.01491,0.560612 0.161197,0.555829 0.176105,-0.0047 0.35499,-0.405785 0.397522,-0.891118 0.07113,-0.811629 0.188807,-0.885452 1.466814,-0.920154 0.764215,-0.02076 1.45939,0.06842 1.544832,0.19814 0.393951,0.598133 0.730769,0.09171 0.867294,-1.304021 0.438825,-4.486008 0.740639,-6.5320573 0.987444,-6.6940102 0.151339,-0.099314 0.283696,0.1334436 0.294118,0.5172393 0.0162,0.5964849 0.08988,0.6355919 0.507616,0.2693239 0.424795,-0.372477 0.46873,-0.3264876 0.336123,0.351823 -0.08388,0.42917 -0.261326,2.180648 -0.394257,3.892169 -0.13294,1.711522 -0.399216,3.484012 -0.591731,3.938866 -0.192515,0.454854 -0.289599,0.864204 -0.215748,0.909667 0.07386,0.04547 2.057319,0.41661 4.407715,0.824771 l 4.27344,0.742111 4.75011,-0.812444 4.7501,-0.812444 3.27295,0.974411 3.27294,0.974413 3.87693,-0.629241 c 2.13231,-0.346081 4.61037,-0.737718 5.5068,-0.870305 l 1.62988,-0.241065 -0.67659,-1.62687 c -1.06277,-2.555434 -2.18167,-9.7126006 -1.45213,-9.28864 0.18017,0.1047021 0.31651,-0.1333171 0.30564,-0.5336075 -0.0128,-0.4713714 0.0922,-0.6167001 0.30202,-0.4179829 0.29002,0.2746849 0.68734,2.250051 1.32374,6.5812384 0.21438,1.459013 0.56724,1.874541 0.98353,1.158192 0.3332,-0.573384 1.11879,0.293808 1.14514,1.264103 0.0354,1.301945 0.44043,2.869921 0.73933,2.861804 0.14371,-0.0039 0.1478,-1.02721 0.009,-2.274018 -0.23454,-2.108437 -0.20939,-2.259958 0.35992,-2.167305 0.48733,0.07931 0.68912,0.532551 0.98989,2.22332 0.20779,1.168036 0.48864,2.227334 0.62413,2.353996 0.3033,0.28354 0.26571,-0.523423 -0.11688,-2.510115 -0.20509,-1.064881 -0.17937,-1.61383 0.0865,-1.846975 0.62474,-0.547809 1.1665,0.41611 1.41467,2.517113 0.16196,1.371106 0.35873,1.922926 0.68255,1.914133 0.36258,-0.0098 0.39882,-0.319695 0.17842,-1.525405 -0.45409,-2.484167 -0.42364,-2.789528 0.28006,-2.808636 0.47695,-0.01295 0.81417,0.404717 1.32503,1.64108 0.3769,0.912149 0.78171,1.657435 0.89957,1.656192 0.11787,-0.0012 0.43375,-0.728263 0.70197,-1.615601 0.66805,-2.210151 3.93829,-6.829906 4.85235,-6.854726 0.27501,-0.0074 0.27448,0.09224 -0.002,0.384195 -0.53988,0.570028 -0.44435,1.060669 0.11161,0.573183 1.03924,-0.911256 0.44948,0.412353 -0.91518,2.053965 -1.39375,1.676589 -2.90584,4.591812 -2.87977,5.55203 0.0104,0.398512 0.40989,0.48887 1.97178,0.44646 2.29033,-0.0622 7.44183,0.524362 10.8787,1.238658 2.72687,0.566733 4.37677,0.396066 7.58479,-0.784577 1.91813,-0.705925 3.48532,-0.715747 3.08061,-0.01932 -0.10829,0.186337 -0.9249,0.694027 -1.8147,1.1282 -1.4938,0.7289 -1.54421,0.789156 -0.65754,0.786143 1.65879,-0.0057 2.40904,0.300259 2.42776,0.989859 0.0167,0.613954 -0.11538,0.63915 -2.62736,0.501308 -1.4547,-0.07982 -3.20669,-0.257152 -3.89331,-0.394059 -0.76461,-0.152461 -2.00376,-0.101453 -3.1976,0.131623 -2.44435,0.477215 -10.7001,0.802848 -12.79512,0.504679 l -1.57193,-0.223721 0.24205,1.05979 c 0.50849,2.226331 0.81542,7.496038 0.47319,8.124256 -0.30596,0.561654 -0.34228,0.53283 -0.37359,-0.296432 -0.0292,-0.779851 -0.10548,-0.856469 -0.50368,-0.507333 -0.40965,0.359201 -0.47742,0.112801 -0.53546,-1.947001 -0.0733,-2.588298 -0.69678,-6.350581 -1.12017,-6.755511 -0.14782,-0.141373 -0.41109,0.189895 -0.58504,0.736152 -0.34611,1.086936 -1.10994,1.333312 -1.46707,0.473209 -0.18279,-0.440244 -0.27606,-0.459527 -0.48484,-0.100247 -0.17269,0.297176 -0.45745,0.361611 -0.85783,0.194114 -0.32963,-0.137901 -0.88746,-0.251785 -1.23962,-0.253075 -0.4125,-0.0015 -0.68362,-0.257431 -0.76206,-0.719305 -0.12851,-0.756676 -0.90041,-0.967698 -1.10259,-0.301422 -0.0658,0.216921 -0.75129,0.433334 -1.53408,0.484336 -0.7783,0.0507 -2.94872,0.242877 -4.82314,0.427039 -2.88425,0.283375 -3.67227,0.253007 -5.12725,-0.197597 -1.37945,-0.427212 -2.85738,-0.511187 -7.47842,-0.424921 -3.16756,0.05913 -6.86638,-0.0497 -8.21958,-0.241863 -1.9229,-0.273053 -3.12312,-0.252912 -5.49406,0.0922 -1.66851,0.24287 -3.63891,0.458011 -4.378633,0.478097 l -1.344961,0.03652 0.255326,1.033451 c 0.831861,3.367073 1.281425,8.992289 0.746703,9.343173 -0.172983,0.113512 -0.323041,-0.10763 -0.333462,-0.491426 -0.01492,-0.549619 -0.108648,-0.619192 -0.441145,-0.327611 -0.348279,0.305384 -0.47331,-0.230822 -0.714113,-3.062562 -0.369316,-4.342806 -0.532388,-4.866763 -1.506451,-4.840314 -0.606528,0.01647 -0.766985,-0.148246 -0.784836,-0.80566 -0.03096,-1.140161 -0.792985,-0.802902 -0.89421,0.395763 -0.0997,1.18064 -0.52585,1.682272 -1.026389,1.208198 -0.2785,-0.263776 -0.483141,-0.237308 -0.806725,0.104338 -0.238462,0.251775 -0.662206,0.377083 -0.941655,0.278463 -0.279451,-0.09862 -0.617935,0.0096 -0.752187,0.240732 -0.418336,0.719868 -1.276935,0.130289 -1.304801,-0.895985 -0.0142,-0.522944 -0.159837,-1.028689 -0.323637,-1.123877 -0.437772,-0.254402 -0.935068,2.76219 -1.046838,6.350115 -0.07406,2.377359 -0.199027,3.104134 -0.514605,2.992766 -0.245263,-0.08656 -0.459809,0.143217 -0.521319,0.558315 -0.09561,0.645205 -0.12809,0.656066 -0.380618,0.127256 z M 90.168847,23.14898 c -0.08732,-0.395828 -0.146031,-0.14382 -0.130472,0.560016 0.01551,0.703839 0.087,1.027697 0.15876,0.719688 0.07176,-0.30801 0.05903,-0.883877 -0.02825,-1.279705 z m 2.025307,0.581508 c -0.02249,-0.706736 -0.117622,-0.897754 -0.297085,-0.596732 -0.240741,0.403808 -0.08329,1.647444 0.20758,1.639547 0.06744,-0.0018 0.107725,-0.471098 0.08951,-1.042815 z m 39.189816,-1.777964 c 1.3537,-0.297308 2.54556,-0.637849 2.64858,-0.756761 0.20262,-0.233869 -4.80335,0.197855 -6.75356,0.582442 -0.65673,0.129507 -1.19066,0.360582 -1.1865,0.513496 0.0115,0.425324 2.55201,0.262483 5.29148,-0.339177 z m 23.32235,-0.424135 c -0.39841,-0.328037 -4.32928,-0.82175 -7.93398,-0.996497 -2.45813,-0.119166 -2.80299,-0.07199 -2.79067,0.381751 0.008,0.284746 0.33982,0.578035 0.73797,0.651756 0.39814,0.07372 1.01345,0.1871 1.36734,0.251954 1.22465,0.22443 8.92915,-0.03386 8.61934,-0.288967 z m -73.836378,0.120567 c 1.798295,-0.401404 2.529623,-0.689795 2.300223,-0.907067 -0.3212,-0.304216 -11.14159,0.565691 -11.479943,0.922931 -0.28966,0.305831 0.318824,0.52638 1.964327,0.711984 2.029916,0.228963 3.67008,0.06352 7.215393,-0.727848 z m 36.549848,-0.444115 c -0.26853,-0.163381 -1.49588,-0.269696 -2.72742,-0.236254 -1.23154,0.03344 -2.4513,0.206203 -2.71058,0.383916 -0.32154,0.220395 0.54552,0.295501 2.72742,0.236254 2.18191,-0.05925 3.04362,-0.181291 2.71058,-0.383916 z m -23.049392,-0.03325 c -0.0098,-0.362253 -0.159416,-0.565769 -0.332399,-0.452258 -0.172982,0.113512 -0.308882,0.41381 -0.301997,0.667328 0.0069,0.25352 0.156463,0.457037 0.332399,0.45226 0.175935,-0.0047 0.311833,-0.305076 0.301997,-0.66733 z m 6.087562,0.195972 c -0.830659,-0.451914 -3.614574,-0.452121 -3.756792,-2.77e-4 -0.09368,0.297668 0.446608,0.385465 2.058577,0.334515 1.397385,-0.04414 2.009815,-0.164705 1.698215,-0.334236 z m -8.011198,-0.303796 c -0.0074,-0.274286 -0.155072,-0.405829 -0.328056,-0.292318 -0.172982,0.113512 -0.310835,0.341836 -0.30634,0.507387 0.0045,0.165553 0.152121,0.297096 0.328056,0.292319 0.175935,-0.0047 0.313788,-0.233103 0.30634,-0.507388 z m -28.331051,-0.02256 c 0.175485,-0.02134 -0.04244,-0.171756 -0.484263,-0.334258 -0.968254,-0.356115 -5.091106,0.119035 -4.425645,0.510051 0.353643,0.207795 2.340682,0.136653 4.909908,-0.175798 z m -36.881525,0.499407 c 1.530945,-0.324167 2.700031,-0.71665 2.597969,-0.872184 -0.102058,-0.155534 -0.714862,-0.201475 -1.361782,-0.102092 -0.646917,0.09939 -2.575138,0.386672 -4.284935,0.638417 -1.709796,0.251747 -3.105316,0.583142 -3.101153,0.736437 0.01201,0.443327 3.120646,0.240846 6.149901,-0.400578 z m 20.53233,-0.319739 c 0.186102,-0.320243 -3.644398,-0.906794 -5.578836,-0.854267 -1.339893,0.03638 -1.570861,0.275344 -0.889702,0.92049 0.457636,0.433439 6.212407,0.374524 6.468538,-0.06622 z M 35.064562,18.258066 c -0.0054,-0.297577 -0.156153,-0.626103 -0.335039,-0.73006 -0.195371,-0.113534 -0.310083,0.297489 -0.287267,1.029291 0.02816,0.904375 0.114526,1.092494 0.33504,0.730061 0.163381,-0.268534 0.292651,-0.731716 0.287266,-1.029292 z m 1.501569,-0.376051 c -0.08732,-0.395827 -0.14603,-0.14382 -0.130471,0.560017 0.01551,0.703838 0.087,1.027696 0.158761,0.719687 0.07176,-0.308009 0.05903,-0.883876 -0.02825,-1.279705 z"
       id="path1" />
  </g>
</svg>
