<?xml version="1.0" encoding="UTF-8" standalone="no"?>
<!-- Created with Inkscape (http://www.inkscape.org/) -->

<svg
   version="1.1"
   id="svg1"
   width="327.11111"
   height="313.77777"
   viewBox="0 0 327.11111 313.77777"
   sodipodi:docname="stardivider.svg"
   inkscape:version="1.4.2 (f4327f4, 2025-05-13)"
   xmlns:inkscape="http://www.inkscape.org/namespaces/inkscape"
   xmlns:sodipodi="http://sodipodi.sourceforge.net/DTD/sodipodi-0.dtd"
   xmlns="http://www.w3.org/2000/svg"
   xmlns:svg="http://www.w3.org/2000/svg">
  <defs
     id="defs1">
    <clipPath
       clipPathUnits="userSpaceOnUse"
       id="clipPath2">
      <ellipse
         style="fill:#000000"
         id="ellipse2"
         cx="83.17234"
         cy="194.13312"
         rx="58.857452"
         ry="56.734726" />
    </clipPath>
  </defs>
  <sodipodi:namedview
     id="namedview1"
     pagecolor="#ffffff"
     bordercolor="#000000"
     borderopacity="0.25"
     inkscape:showpageshadow="2"
     inkscape:pageopacity="0.0"
     inkscape:pagecheckerboard="0"
     inkscape:deskcolor="#d1d1d1"
     showgrid="false"
     inkscape:zoom="2.5910057"
     inkscape:cx="163.45004"
     inkscape:cy="156.88889"
     inkscape:window-width="1920"
     inkscape:window-height="1094"
     inkscape:window-x="-11"
     inkscape:window-y="-11"
     inkscape:window-maximized="1"
     inkscape:current-layer="g1" />
  <g
     inkscape:groupmode="layer"
     inkscape:label="Image"
     id="g1">
    <path
       style="fill:#020081;fill-opacity:1"
       d="m 142.33376,262.86004 c -0.34853,-0.6195 -0.62562,-3.27708 -0.72821,-6.98438 l -0.16559,-5.98438 -1.86622,-1.64271 c -1.02642,-0.90349 -2.43296,-2.46052 -3.12564,-3.46007 l -1.25943,-1.81735 -4.93955,-0.005 c -6.76586,-0.007 -8.35641,-0.29816 -8.18459,-1.49977 0.1808,-1.26438 3.24533,-1.95253 8.94318,-2.00823 l 4.36483,-0.0427 3.06874,-2.74752 3.06874,-2.74752 0.12199,-6.87133 c 0.10792,-6.07894 0.21489,-6.92809 0.92761,-7.36359 0.65594,-0.4008 0.9656,-0.29732 1.66666,0.55697 0.7624,0.92904 0.86105,1.77487 0.86105,7.38314 v 6.3339 l 1.93864,2.17242 c 1.06625,1.19483 2.55288,2.87242 3.30362,3.72797 1.09531,1.24825 1.4762,1.4458 1.92802,1 0.7369,-0.72709 8.02611,-0.74297 10.02039,-0.0218 1.0605,0.38349 1.47599,0.80799 1.47599,1.50801 0,1.35443 -0.68586,1.51275 -6.5919,1.52155 l -5.18587,0.008 -3.42948,2.99227 -3.42948,2.99227 -0.015,5.85996 c -0.008,3.22297 -0.21001,6.37297 -0.44841,7 -0.53491,1.40692 -1.57213,1.46953 -2.32012,0.14004 z m 4.02903,-17.76072 2.6848,-2.31628 -2.75791,-2.90594 c -1.51685,-1.59827 -2.86262,-2.95752 -2.99059,-3.02055 -0.12798,-0.063 -1.37394,1.03869 -2.7688,2.44826 l -2.53611,2.56286 2.47096,2.77396 c 1.35903,1.52568 2.63789,2.77397 2.84191,2.77397 0.20402,0 1.57911,-1.04233 3.05574,-2.31628 z m 7.64296,17.92701 c -0.7373,-1.37765 -0.56791,-2.19536 0.61537,-2.97068 1.40542,-0.92086 2.82465,-0.4708 3.19729,1.01391 0.39154,1.56004 -0.32198,2.54059 -1.9686,2.70533 -1.00348,0.10039 -1.49692,-0.0999 -1.84406,-0.74856 z M 88.890311,240.65004 c -0.595109,-0.84964 -0.695677,-3.32036 -0.719103,-17.66667 l -0.02724,-16.67888 -1.545338,3.11111 c -1.544269,3.10896 -2.626005,4.589 -3.046606,4.1684 -0.409249,-0.40925 0.584803,-5.23427 1.508634,-7.32274 0.795121,-1.7975 1.054096,-2.03391 2.024758,-1.84836 0.929722,0.17773 1.113022,0.0425 1.113022,-0.82107 0,-0.59979 -0.397188,-1.24641 -0.946034,-1.54015 -0.856057,-0.45815 -1.391064,-0.0686 -5.625227,4.09548 -2.573556,2.53097 -5.14362,5.12563 -5.711253,5.76589 -2.036471,2.29706 -7.239118,6.24093 -8.033171,6.08955 -1.490268,-0.2841 -1.1453,-1.88549 0.85123,-3.95153 2.107215,-2.18058 8.483488,-8.22573 12.517168,-11.86714 l 2.595155,-2.34279 -0.703165,-1.48181 -0.703164,-1.48181 -14.787437,-0.30182 c -16.559914,-0.33801 -19.326912,-0.53182 -20.569975,-1.44077 -0.681664,-0.49844 -0.762283,-0.7941 -0.381193,-1.39795 0.440774,-0.69843 1.593714,-0.75925 13.101297,-0.69111 6.939895,0.0411 14.817991,0.20647 17.50688,0.3675 l 4.888889,0.29278 0.574839,-1.86673 c 0.316162,-1.02671 0.516162,-1.9128 0.444445,-1.96909 -4.731082,-3.71381 -13.55929,-11.70582 -13.893948,-12.57793 -0.14801,-0.3857 0.03085,-1.00124 0.39747,-1.36786 1.083652,-1.08365 1.524415,-0.80334 9.565648,6.08358 1.331984,1.14078 3.355007,2.92628 4.495608,3.96778 1.943797,1.77491 2.145137,1.85663 3.211308,1.3035 l 1.137488,-0.59014 0.197953,-19.63271 c 0.209199,-20.74801 0.255469,-21.17623 2.256642,-20.88462 0.659595,0.0961 1.017703,0.6213 1.30261,1.91034 0.216111,0.97777 0.295621,9.99871 0.176689,20.04652 l -0.216239,18.26875 1.657419,0.73125 c 0.91158,0.40219 1.806844,0.73125 1.989475,0.73125 0.182631,0 3.265433,-2.65786 6.850665,-5.90636 8.11421,-7.35211 11.97316,-10.53808 12.76405,-10.53808 0.33669,0 0.83494,0.41626 1.10722,0.92502 0.43708,0.8167 0.19144,1.22007 -2.09754,3.44445 -1.42593,1.38568 -5.6504,5.21654 -9.38772,8.51303 -5.748802,5.0707 -6.775037,6.16569 -6.664609,7.11111 l 0.130527,1.1175 8.000002,0.30479 c 26.29535,1.00183 28.52052,1.13221 29.80178,1.74631 1.79745,0.86149 1.68293,1.87493 -0.24623,2.17902 -0.85555,0.13486 -9.52288,0.0656 -19.26072,-0.15396 -9.93524,-0.22399 -17.869512,-0.23076 -18.079662,-0.0154 -0.205971,0.21105 -0.512183,0.94112 -0.680472,1.62238 -0.282514,1.14367 0.175219,1.71058 5.968554,7.39216 4.90457,4.80995 6.27453,6.4075 6.27453,7.31689 0,0.94634 -0.20843,1.1634 -1.11712,1.1634 -1.14629,0 -8.06139,-5.95205 -12.117932,-10.43029 -1.398515,-1.5439 -2.104123,-2.01599 -2.666667,-1.78413 -0.420724,0.1734 -1.064952,0.40297 -1.431619,0.51015 -0.57744,0.1688 -0.669676,2.52656 -0.689151,17.61624 -0.0204,15.804 -0.09821,17.61736 -0.838159,19.53248 -0.917655,2.37505 -1.235973,2.53574 -2.225266,1.12333 z m 3.708647,-41.87839 c 2.544569,-1.31585 3.413231,-4.26367 2.039329,-6.9205 -0.849968,-1.64366 -1.91921,-2.21333 -4.154304,-2.21333 -1.258898,0 -2.169342,0.33359 -3.140329,1.15062 -1.204113,1.01319 -1.366621,1.42458 -1.360628,3.44444 0.0077,2.57914 0.124358,2.82413 1.993194,4.18421 1.567067,1.14045 2.904605,1.24304 4.622738,0.35456 z m -32.84496,26.42803 c 0,-1.04331 0.356326,-1.56014 1.666667,-2.41739 2.13102,-1.39415 4.112229,-1.91574 4.108182,-1.08154 -0.0079,1.63513 -3.211317,4.82596 -4.844951,4.82596 -0.735942,0 -0.929898,-0.27679 -0.929898,-1.32703 z m 55.819522,-4.59315 c -3.17209,-2.24481 -3.77291,-3.06494 -2.96155,-4.04257 0.81913,-0.98699 1.52902,-0.88187 3.12742,0.4631 1.59167,1.3393 3.37621,4.54243 2.8284,5.0768 -0.20314,0.19815 -1.55056,-0.47564 -2.99427,-1.49733 z m -35.148086,-0.46582 c -0.738378,-0.53991 -0.765539,-0.75828 -0.249335,-2.0045 0.624327,-1.50726 2.401308,-2.2972 3.252596,-1.44592 0.66917,0.66917 -0.05536,2.65673 -1.257989,3.45098 -0.773595,0.5109 -1.045926,0.51081 -1.745272,-5.6e-4 z m 89.452166,-1.4872 c -0.39008,-0.43641 -0.77746,-1.29347 -0.86086,-1.90458 -0.12882,-0.94397 -0.41821,-1.13281 -1.92378,-1.25534 -2.12586,-0.17302 -2.98356,-0.79273 -2.80486,-2.02661 0.0932,-0.64326 0.66095,-1.06302 1.91034,-1.4123 1.66943,-0.46672 1.79538,-0.61993 2.06653,-2.51397 0.37777,-2.63876 1.0884,-3.90289 2.19401,-3.90289 1.1281,0 2.31172,2.63873 2.01842,4.49979 -0.17583,1.11565 0.0237,1.46636 1.30682,2.29732 1.77636,1.15036 1.97459,2.09178 0.44045,2.09178 -1.22229,0 -1.54959,0.37318 -1.85799,2.11844 -0.11808,0.66819 -0.56685,1.57195 -0.99727,2.00836 -0.75122,0.76165 -0.81102,0.76165 -1.49181,0 z m -69.13285,-1.53605 c -0.843952,-0.84395 -0.64718,-2.05439 0.38732,-2.38273 1.18264,-0.37535 1.85084,0.27896 1.65956,1.62507 -0.16824,1.18394 -1.22823,1.57631 -2.04688,0.75766 z m -3.435196,-6.47029 c -3.379877,-4.50558 -4.112317,-6.5161 -2.587058,-7.1014 0.518899,-0.19912 1.094411,0.16437 1.888889,1.19301 1.331854,1.72441 3.235973,6.1662 2.886053,6.73238 -0.43359,0.70156 -1.283641,0.38142 -2.187884,-0.82399 z m -29.74887,-4.71103 c -0.570694,-0.4173 -0.713054,-0.87642 -0.489832,-1.57973 0.252464,-0.79545 0.592743,-0.96449 1.721134,-0.85503 1.672755,0.16227 1.934994,1.45486 0.489831,2.41441 -0.762461,0.50626 -1.051932,0.50968 -1.721133,0.0204 z m 44.937506,-0.0343 c -0.13189,-0.3437 0.13008,-0.95964 0.58215,-1.36876 0.65066,-0.58884 1.01394,-0.64109 1.74331,-0.25075 0.78638,0.42086 0.84124,0.62139 0.3745,1.36876 -0.63138,1.011 -2.34707,1.17034 -2.69996,0.25075 z m 132.32424,-1.49301 c -0.7639,-0.51206 -1.13861,-2.67694 -1.11404,-6.43644 0.0245,-3.75317 0.56947,-5.35875 1.74226,-5.13329 1.71151,0.32901 1.9097,11.93679 0.20324,11.90307 -0.18939,-0.004 -0.56354,-0.15375 -0.83146,-0.33334 z m -135.7351,-1.21545 c -0.3043,-0.36667 -0.90212,-0.66667 -1.32848,-0.66667 -1.15729,0 -5.43883,-1.80675 -6.39994,-2.70068 -1.08573,-1.00985 -0.63433,-2.18821 0.83826,-2.18821 2.60749,0 9.23805,4.49577 8.46804,5.74166 -0.40932,0.66229 -0.92416,0.60157 -1.57788,-0.1861 z m -36.426771,-0.2019 c -0.553085,-0.34984 -0.520244,-0.55333 0.222223,-1.37698 1.230069,-1.36455 4.98716,-3.08779 6.732173,-3.08779 2.699618,0 1.764246,1.18371 -3.108584,3.9339 -1.831891,1.0339 -2.832229,1.17199 -3.845812,0.53087 z m 164.723071,-5.64996 c -1.08982,-1.08981 1.64847,-4.7575 3.36867,-4.51202 1.48866,0.21244 1.43927,1.42101 -0.13117,3.20964 -1.31256,1.49492 -2.54798,1.99191 -3.2375,1.30238 z m 12.91607,-1.95828 c -1.68195,-1.38641 -2.12958,-2.87266 -1.15785,-3.84438 0.79587,-0.79587 2.27689,0.14966 3.66082,2.33718 1.94684,3.07729 0.47619,3.96287 -2.50297,1.5072 z M 77.087331,190.67401 c -3.027047,-1.03058 -6.222222,-3.29466 -6.222222,-4.40903 0,-1.16831 2.830136,-0.73192 4.933316,0.7607 3.682543,2.61348 4.425393,4.71617 1.288906,3.64833 z m 23.714109,-0.37518 c -0.53448,-1.39283 1.96584,-2.80526 5.57741,-3.15068 0.87855,-0.084 2.09113,-0.20822 2.69461,-0.27599 1.34203,-0.15072 1.85456,1.29272 0.60228,1.69619 -0.44585,0.14365 -1.21063,0.44165 -1.69952,0.66222 -3.83076,1.72832 -6.75444,2.16363 -7.17478,1.06826 z M 231.30955,189.213 c -0.36667,-0.24775 -1.22294,-0.45352 -1.90284,-0.45726 -1.55047,-0.009 -2.12426,-1.22948 -0.97331,-2.07108 0.98977,-0.72374 8.86145,-0.83945 10.65733,-0.15666 1.62984,0.61967 1.27696,1.86055 -0.67275,2.36569 -2.45558,0.63621 -6.37862,0.81243 -7.10843,0.31931 z m 20.88889,-0.8844 c 0,-1.76001 0.74297,-2.05248 6.26589,-2.46655 3.65505,-0.27403 4.34672,-0.21479 4.98875,0.42723 1.03658,1.03658 0.93009,1.95965 -0.25464,2.20734 -2.18097,0.45596 -4.70349,0.77671 -7.77778,0.98896 l -3.22222,0.22247 z m -80.05669,-0.31367 c -0.47009,-0.56567 -0.60998,-2.68059 -0.60998,-9.22222 v -8.48822 l 1.08621,-0.15332 c 1.99281,-0.28129 2.24713,0.75498 2.24713,9.15637 0,4.47307 -0.19358,8.08375 -0.46009,8.58172 -0.56376,1.0534 -1.45134,1.10269 -2.26327,0.12567 z m -59.2834,-1.95399 c -0.36584,-1.15264 0.48412,-2.2009 1.78454,-2.2009 1.44441,0 2.1886,1.03938 1.57076,2.19381 -0.67402,1.25943 -2.9563,1.26424 -3.3553,0.007 z m -47.669158,-0.94348 c -0.756063,-0.75606 -0.683499,-1.43994 0.241623,-2.27716 1.070898,-0.96915 1.986662,-0.31586 1.803217,1.28639 -0.158508,1.38444 -1.163993,1.87162 -2.04484,0.99077 z m 28.29111,-0.52624 c -0.632403,-1.38797 0.730588,-4.10035 3.403733,-6.77349 3.218345,-3.21835 4.230385,-2.41451 2.237493,1.77721 -1.119575,2.35484 -4.015517,6.04288 -4.745024,6.04288 -0.230637,0 -0.633928,-0.47097 -0.896202,-1.0466 z m -8.448159,-0.64648 c -1.070462,-1.11422 -3.143481,-5.74504 -2.972769,-6.64072 0.239011,-1.25404 1.977245,-1.21523 2.814672,0.0628 1.079579,1.64765 2.019661,5.11338 1.71561,6.32482 -0.309694,1.23391 -0.573931,1.27685 -1.557513,0.25306 z M 238.2026,182.66381 c -1.69904,-2.22517 -1.81732,-3.08116 -0.53438,-3.86724 1.46439,-0.89726 4.44386,3.35461 3.70321,5.2847 -0.45855,1.19496 -1.54526,0.70886 -3.16883,-1.41746 z m 12.06991,1.78883 c -0.16296,-0.16297 -0.29629,-0.86171 -0.29629,-1.55277 0,-0.96252 0.43151,-1.56906 1.84446,-2.5926 2.17708,-1.57706 3.04443,-1.68777 3.04443,-0.38858 0,2.39128 -3.38928,5.73726 -4.5926,4.53395 z m -6.30621,-3.37038 c -0.54902,-2.31038 -0.56399,-3.44355 -0.0965,-7.30722 0.45865,-3.79112 1.09113,-4.71985 2.4476,-3.59408 0.56284,0.46711 0.62637,1.4242 0.38836,5.85072 -0.15651,2.91074 -0.50916,5.56288 -0.78367,5.89364 -0.83463,1.00567 -1.59423,0.67823 -1.95574,-0.84306 z m -82.8092,-3.84576 c -1.0538,-0.65128 0.74404,-3.59868 2.1951,-3.59868 1.81854,0 1.51715,2.2969 -0.43376,3.30575 -0.66936,0.34614 -1.46196,0.47796 -1.76134,0.29293 z m 21.51571,-2.23228 c -1.66359,-1.83824 0.18942,-3.5915 1.94275,-1.83817 0.50392,0.50392 0.91621,1.31621 0.91621,1.8051 0,1.17775 -1.80415,1.19862 -2.85896,0.0331 z M 64.198442,172.91091 c -4.394489,-2.4913 -6.224595,-5.53646 -3.516512,-5.85121 0.923523,-0.10734 1.689804,0.44321 3.888888,2.79404 3.820522,4.08415 3.666703,5.34698 -0.372376,3.05717 z m 36.674478,0.12091 c -0.80846,-0.59116 -0.81231,-0.673 -0.084,-1.78456 0.84847,-1.29494 2.40147,-1.54817 2.81916,-0.45969 0.16344,0.42591 -0.15688,1.13282 -0.80861,1.78456 -0.95701,0.95701 -1.17524,1.00908 -1.92657,0.45969 z m 64.21441,-0.97877 c 0,-1.41159 2.57695,-4.19301 3.88477,-4.19301 1.65479,0 1.20177,2.13371 -0.72828,3.43009 -1.39011,0.93372 -3.15649,1.36065 -3.15649,0.76292 z m 12.82185,-2.41389 c -1.47975,-1.47975 -1.52635,-2.81972 -0.10516,-3.02365 1.01385,-0.14548 3.72775,2.55145 3.72775,3.70444 0,1.15631 -2.19869,0.74311 -3.62259,-0.68079 z m -98.871386,-0.19239 c -0.44252,-1.15319 0.177725,-2.1063 1.269773,-1.95123 0.734547,0.1043 1.001987,0.43885 1.001987,1.25339 0,0.81455 -0.26744,1.14909 -1.001987,1.2534 -0.601013,0.0853 -1.10915,-0.13698 -1.269773,-0.55556 z m 38.493986,-0.82075 c 0,-1.22211 0.30015,-1.65087 1.86674,-2.66667 3.12496,-2.02626 4.32678,-1.59096 2.94209,1.06562 -1.04679,2.00831 -2.34944,3.05729 -3.79661,3.05729 -0.84738,0 -1.01222,-0.23715 -1.01222,-1.45624 z m 163.50998,0.4822 c -0.28672,-0.53572 -0.65832,-1.48572 -0.82579,-2.11111 -0.25974,-0.96998 -0.51713,-1.11528 -1.7516,-0.98878 -1.50184,0.15389 -3.15482,-0.87817 -3.15482,-1.96975 0,-0.81116 1.77927,-1.95631 3.03959,-1.95631 0.90875,0 1.0315,-0.17022 0.84108,-1.16634 -0.48723,-2.54879 0.90907,-4.96269 2.5143,-4.3467 0.59498,0.22831 1.83381,3.03318 2.13189,4.82688 0.0824,0.49601 0.62068,0.98182 1.25325,1.13115 1.49704,0.3534 1.49545,1.86899 -0.002,2.2191 -0.85023,0.19874 -1.14323,0.58701 -1.24791,1.65361 -0.0752,0.76663 -0.42524,1.63326 -0.77778,1.92584 -0.35254,0.29258 -0.64098,0.80747 -0.64098,1.14421 0,0.9371 -0.79545,0.72839 -1.3789,-0.3618 z m -131.17665,-3.60609 c -1.74359,-0.37804 -2.11112,-0.62872 -2.11112,-1.43993 0,-1.88459 0.78387,-2.04525 9.25658,-1.89723 7.11293,0.12427 8.08807,0.23207 8.92024,0.98618 1.23652,1.12053 1.18191,1.44691 -0.37697,2.25304 -1.54249,0.79765 -12.15601,0.86391 -15.68873,0.0979 z m 35.66666,-0.29011 c -6.19913,-0.2317 -6.4497,-0.27779 -6.58252,-1.21079 -0.26179,-1.83886 1.1368,-2.07651 10.11751,-1.71917 10.76858,0.42847 12.20442,0.6426 12.37621,1.84567 0.11973,0.83846 -0.14926,0.9639 -2.62075,1.22222 -1.5148,0.15833 -3.67483,0.24626 -4.80009,0.1954 -1.12525,-0.0508 -4.94591,-0.20085 -8.49036,-0.33333 z m -8.88889,-6.14197 c 0,-1.95416 1.14008,-3.21001 2.91409,-3.21001 1.18536,0 1.53036,0.18293 1.53036,0.81142 0,0.86358 -1.37034,2.30877 -2.97078,3.13304 -1.36807,0.7046 -1.47367,0.65197 -1.47367,-0.73445 z m -10.50883,0.33635 c -1.03185,-0.4027 -3.26894,-3.08646 -3.26894,-3.92164 0,-0.83185 2.4525,-0.58778 3.6632,0.36456 2.04515,1.60872 1.73701,4.38884 -0.39426,3.55708 z m 5.70883,-3.1908 c -0.849,-0.84901 -0.74472,-17.84906 0.11387,-18.56162 1.82372,-1.51355 2.90836,2.62857 2.90836,11.10674 0,5.74923 -0.0958,6.60378 -0.81278,7.25266 -0.96549,0.87376 -1.48991,0.92175 -2.20945,0.20222 z m -11.54555,-1.93631 c -0.54328,-0.38053 -0.98778,-1.08053 -0.98778,-1.55556 0,-1.28206 2.93138,-1.24123 3.3401,0.0465 0.26692,0.84098 -0.39633,2.20089 -1.07341,2.20089 -0.16012,0 -0.73563,-0.31134 -1.27891,-0.69186 z m 22.12333,-0.7648 c 0,-1.36418 1.19544,-2.98778 2.19988,-2.98778 1.42064,0 1.44776,1.30962 0.0559,2.70145 -1.56032,1.56036 -2.25578,1.64863 -2.25578,0.28633 z m 34.64463,-0.12545 c -0.90093,-1.08555 -0.0243,-3.05136 1.43651,-3.2215 1.34268,-0.15638 1.96361,1.01273 1.50608,2.83569 -0.31758,1.26536 -2.02666,1.48944 -2.94259,0.38581 z m -94.62898,-3.722 c -0.55194,-1.0313 -0.60629,-9.33258 -0.0667,-10.18406 0.20888,-0.32961 0.74966,-0.52805 1.20174,-0.44099 0.67007,0.12904 0.94098,0.9201 1.4662,4.28127 0.58584,3.74915 0.57765,4.26262 -0.0902,5.66321 -0.81738,1.71406 -1.81343,1.98402 -2.51101,0.68057 z m 94.64002,-4.28037 c -0.2384,-0.62703 -0.43345,-2.02322 -0.43345,-3.10265 0,-1.7106 0.13943,-1.99759 1.08586,-2.23513 1.40723,-0.35319 1.8942,-0.0195 2.23481,1.53124 0.33696,1.53419 -0.92158,4.94658 -1.82437,4.94658 -0.34617,0 -0.82446,-0.51302 -1.06285,-1.14004 z m -101.76677,-2.83833 c 0,-0.50796 0.68936,-1.67064 1.5319,-2.58371 1.25661,-1.3618 1.67118,-1.57457 2.30688,-1.18395 1.16256,0.71435 1.17051,1.21318 0.046,2.88751 -0.75257,1.12057 -1.40374,1.56213 -2.45456,1.66446 -1.19655,0.11651 -1.43026,-0.0117 -1.43026,-0.78431 z m 13.82371,-0.71785 c -1.76143,-1.48215 -2.39446,-2.65011 -2.0406,-3.76501 0.41878,-1.31948 1.48638,-1.05353 3.17607,0.79118 1.02864,1.12302 1.48121,2.01417 1.39328,2.74351 -0.18382,1.52462 -0.91176,1.59093 -2.52875,0.23032 z m 112.04295,-5.17045 c -0.63968,-0.63967 -0.7093,-2.86101 -0.10144,-3.23668 0.54788,-0.33861 2.51879,0.93311 2.87179,1.85301 0.56519,1.47288 -1.59982,2.55421 -2.77035,1.38367 z m -132.08889,-1.51187 c -3.01013,-0.55169 -3.17085,-0.63856 -3.02885,-1.63717 0.13474,-0.94751 0.3452,-0.98897 5.63303,-1.10947 5.48035,-0.12489 6.72916,0.14706 6.72916,1.46538 0,0.31059 -0.34089,0.69551 -0.75753,0.85539 -0.99279,0.38097 -7.15194,0.68683 -8.57581,0.42587 z m 21.17136,-0.40253 c -0.50889,-1.32613 0.858,-2.3115 3.62841,-2.61564 1.39346,-0.15297 3.44075,-0.39303 4.54952,-0.53345 2.32705,-0.29472 4.26231,0.79897 3.75465,2.12191 -0.40556,1.05687 -0.93949,1.18004 -6.57565,1.51701 -4.5989,0.27494 -5.08036,0.23092 -5.35693,-0.48983 z m 87.01202,-0.10782 c -0.19589,-0.42778 -0.43491,-4.93857 -0.53115,-10.02398 -0.0963,-5.08541 -0.32449,-9.18541 -0.5072,-9.11111 -0.1827,0.0743 -1.55184,1.55883 -3.04253,3.29896 -4.15949,4.85552 -10.89803,11.32067 -11.65091,11.17823 -0.3706,-0.0701 -0.73676,-0.67227 -0.8137,-1.33812 -0.11222,-0.97124 0.30945,-1.62965 2.13233,-3.32953 2.27019,-2.11701 10.67422,-11.39946 10.67422,-11.78992 0,-0.11358 -3.85,-0.46007 -8.55555,-0.76997 -4.70556,-0.30991 -8.90556,-0.7445 -9.33334,-0.96576 -0.97047,-0.50196 -1.02075,-2.4049 -0.0731,-2.76853 0.38755,-0.14872 3.53755,-0.0546 7,0.20903 7.87882,0.60002 10.68063,0.45825 10.87197,-0.55011 0.0846,-0.44599 -1.60618,-2.55883 -4.26801,-5.33333 -8.72018,-9.089287 -11.10733,-12.141517 -10.57692,-13.523747 0.68787,-1.79257 3.76401,0.74211 10.02734,8.26234 5.70407,6.848727 7.4572,8.379297 8.20738,7.165487 0.13259,-0.21454 0.44186,-4.41965 0.68728,-9.344697 0.52467,-10.52932 0.65254,-11.25277 1.95604,-11.06683 0.9291,0.13254 0.94796,0.31395 1.0653,10.24604 0.0657,5.561107 0.24871,10.111107 0.40669,10.111107 0.15799,0 1.51839,-1.15 3.02313,-2.55556 9.74273,-9.100587 13.71193,-11.888287 14.68502,-10.313787 0.4886,0.79056 -0.91648,2.41525 -5.81198,6.720395 -9.5732,8.418752 -9.83032,8.685712 -9.08898,9.436792 0.51424,0.52101 2.59734,0.77955 9.11111,1.13081 10.46929,0.56458 11.96328,0.78079 12.95317,1.87461 1.40977,1.55777 0.14441,1.77693 -8.50873,1.4737 -13.3384,-0.4674 -13.68871,-0.46571 -13.86848,0.067 -0.0929,0.27533 3.21334,3.98545 7.34725,8.24473 6.77809,6.98364 8.61928,9.30478 7.92864,9.99542 -0.7153,0.7153 -3.09611,-1.21008 -10.05706,-8.13323 -4.26843,-4.24524 -7.91843,-7.71862 -8.11112,-7.71862 -0.19269,0 -0.35034,3.43269 -0.35034,7.6282 0,6.06633 -0.15925,8.11316 -0.77778,9.99678 -0.79809,2.43045 -1.5221,2.96833 -2.14995,1.59724 z m 3.11821,-23.03174 c 0.94241,-0.94241 0.8794,-2.11114 -0.16476,-3.0561 -1.25613,-1.13678 -3.30667,-0.39901 -3.50228,1.2601 -0.0788,0.66816 0.0957,1.50273 0.38775,1.85462 0.70144,0.84518 2.40595,0.81471 3.27929,-0.0586 z m -25.76165,22.89537 c -0.51357,-0.83097 0.18201,-2.46132 1.30697,-3.06339 2.52734,-1.35259 3.50956,1.14456 1.04198,2.64908 -1.65861,1.01127 -1.94842,1.06238 -2.34895,0.41431 z m -77.16774,-4.5303 c -1.21312,-0.98159 -2.14997,-2.71928 -2.14997,-3.98778 0,-1.01878 0.19314,-1.23444 1.10554,-1.23444 1.29907,0 3.3389,2.84561 3.3389,4.65784 0,1.24845 -1.11124,1.5218 -2.29447,0.56438 z m 10.59077,0.25926 c -1.13422,-1.13422 2.25304,-5.03703 4.37165,-5.03703 1.22099,0 1.36473,0.45118 0.61108,1.9181 -1.30349,2.53716 -3.92412,4.17754 -4.98273,3.11893 z m -5.85006,-2.48148 c -0.27657,-0.79804 -0.41321,-4.08878 -0.31168,-7.50632 0.0658,-2.21521 0.30924,-3.21231 0.97656,-4 l 0.88888,-1.04923 0.88889,1.04923 c 1.13805,1.34334 1.07813,3.7418 -0.27634,11.06188 -0.20117,1.08719 -1.8279,1.42093 -2.16631,0.44444 z m 131.19247,-14.7581 c -0.89034,-0.89034 -0.9273,-1.21998 -0.21649,-1.93079 0.63618,-0.63618 6.0544,-0.7108 7.02222,-0.0967 1.21625,0.77173 -0.78463,2.16109 -3.5835,2.48829 -1.99351,0.23305 -2.61763,0.1438 -3.22223,-0.46079 z m 13.95039,-0.87285 c -1.59672,-1.69963 -0.13984,-3.72371 2.07756,-2.88641 0.77703,0.29341 1,0.72764 1,1.94749 0,0.86343 -0.18364,1.56987 -0.40809,1.56987 -0.22445,0 -0.68405,0.1059 -1.02133,0.23532 -0.33728,0.12943 -1.07894,-0.26039 -1.64814,-0.86627 z m -95.54589,-0.39249 c -0.26821,-0.26822 -0.48766,-0.94386 -0.48766,-1.50142 0,-1.21878 1.86558,-1.87996 2.89466,-1.0259 0.80197,0.66558 0.87946,2.6485 0.10534,2.69588 -0.30555,0.0187 -0.88611,0.0982 -1.29011,0.17655 -0.40401,0.0784 -0.95401,-0.0769 -1.22223,-0.34511 z m 8.57358,-0.0574 c -0.1471,-0.38332 -0.14448,-1.01741 0.006,-1.40909 0.40753,-1.062 7.45163,-0.73796 8.58392,0.39487 1.15987,1.16044 0.34593,1.46112 -4.31949,1.59571 -3.29704,0.0951 -4.04996,-0.007 -4.27025,-0.58149 z m -34.70168,-1.9603 c -0.24679,-0.16071 -0.68569,-0.74221 -0.97533,-1.29221 -0.40376,-0.76671 -0.91697,-1 -2.19987,-1 -1.81621,0 -2.73992,-0.62228 -2.73992,-1.84581 0,-0.70263 1.34295,-1.55047 3.66667,-2.31488 0.43179,-0.14204 0.78407,-0.70691 0.79191,-1.26981 0.023,-1.65274 1.09827,-2.721312 2.4076,-2.392692 0.94186,0.23639 1.13382,0.544632 1.13382,1.820552 0,1.38914 0.1912,1.62308 2,2.44708 2.44723,1.11485 2.64492,2.2549 0.52401,3.02183 -0.8118,0.29355 -1.8118,0.53373 -2.22223,0.53373 -0.49077,0 -0.74622,0.36407 -0.74622,1.06356 0,1.09989 -0.85491,1.7402 -1.64044,1.22865 z M 290.15318,91.235673 c -0.13178,-0.3434 -0.1755,-1.2934 -0.0972,-2.11111 0.11129,-1.1617 0.36641,-1.51851 1.16689,-1.63198 1.8708,-0.26521 2.86289,1.51766 2.0391,3.66443 -0.33819,0.88131 -2.77714,0.94302 -3.10882,0.0787 z m -13.15275,-0.82009 c -0.34854,-0.6195 -0.62562,-3.27707 -0.72821,-6.98438 l -0.1656,-5.984374 -1.96584,-1.730408 c -1.08122,-0.951725 -2.57017,-2.608755 -3.30878,-3.682289 l -1.34293,-1.95188 h -6.42309 c -6.15297,0 -6.4231,-0.03784 -6.4231,-0.899889 0,-1.348804 1.76591,-1.82115 8.01874,-2.144861 l 5.57428,-0.288583 2.98102,-2.666667 2.98103,-2.666666 2.4e-4,-6.991533 2.5e-4,-6.991532 1.13383,-0.284572 c 2.03665,-0.511169 2.39177,0.625691 2.40759,7.707522 l 0.0141,6.328775 2.90124,3.481724 2.90125,3.481724 4.81559,-0.198411 c 5.72942,-0.23604 8.04862,0.309539 8.04862,1.893398 0,1.35518 -0.89704,1.559286 -6.88889,1.567439 l -4.88888,0.0067 -3.44253,2.999416 -3.44252,2.999416 -0.002,5.859961 c -10e-4,3.22297 -0.19697,6.37297 -0.43537,7 -0.53491,1.40692 -1.57213,1.46952 -2.32012,0.14004 z m 3.90664,-17.72365 c 1.44359,-1.253565 2.6764,-2.321924 2.73958,-2.374131 0.2355,-0.194609 -5.59277,-6.013328 -6.0232,-6.013328 -0.2465,0 -1.44796,1.154074 -2.66993,2.564607 l -2.22175,2.564607 2.47476,2.768726 c 1.36112,1.5228 2.61001,2.768727 2.7753,2.768727 0.16529,0 1.48165,-1.025644 2.92524,-2.279208 z m -39.39397,17.14559 c -0.73835,-0.88966 0.0524,-2.67614 1.36965,-3.0942 1.3344,-0.42353 1.89131,0.26937 1.35348,1.68398 -0.60082,1.58028 -1.98646,2.29786 -2.72313,1.41022 z m -47.3553,-3.09229 c -0.34023,-1.35559 0.2536,-2.14887 1.43788,-1.9208 1.2814,0.24678 1.14541,2.76781 -0.15931,2.95334 -0.74849,0.10643 -1.05479,-0.14093 -1.27857,-1.03254 z m -32.18158,-3.76399 c -0.54838,-0.34608 -0.69092,-1.99411 -0.80334,-9.288463 -0.13383,-8.684125 -0.11729,-8.873889 0.79911,-9.164742 2.02092,-0.641414 2.22645,0.186753 2.22645,8.971186 0,9.251679 -0.33335,10.674069 -2.22222,9.482019 z m 56.8618,-4.30356 c -0.24724,-0.65029 -0.47774,-2.254835 -0.51223,-3.565655 -0.0708,-2.691945 0.55401,-3.739432 1.77377,-2.973575 0.56036,0.351834 0.80094,1.210146 0.89761,3.202306 0.19003,3.916285 -1.15094,5.988724 -2.15915,3.336924 z m -68.6339,-7.252912 c -0.61929,-1.002021 1.95583,-3.845159 3.08888,-3.41037 0.98752,0.378948 0.83889,1.888192 -0.28948,2.939427 -1.03638,0.965538 -2.35648,1.187617 -2.7994,0.470943 z m 21.78708,-2.214854 c -1.00653,-1.112197 -0.58647,-2.238776 0.83476,-2.238776 1.09327,0 2.48359,1.423768 2.48359,2.543336 0,0.893788 -2.43621,0.670191 -3.31835,-0.30456 z m 45.92343,-0.6409 c -0.66733,-1.464628 0.17579,-2.587081 1.80132,-2.398124 0.99158,0.115264 1.14916,0.346884 1.14916,1.689137 0,1.365401 -0.14895,1.572702 -1.21847,1.695825 -0.9455,0.108847 -1.33351,-0.112224 -1.73201,-0.986838 z m -62.87377,-2.74702 c 0.65223,-2.735823 2.67344,-4.347612 4.20514,-3.353333 1.24919,0.810889 -0.81772,3.249153 -3.66964,4.32896 -0.74577,0.282367 -0.80826,0.168511 -0.5355,-0.975627 z m 12.50573,-1.75456 c -1.74683,-1.746828 -1.85679,-2.083086 -0.93212,-2.850495 0.80177,-0.66541 1.80511,-0.166033 3.50713,1.745556 2.44149,2.742117 0.0768,3.756792 -2.57501,1.104939 z m -28.01481,-4.16612 c -1.81097,-0.214743 -2.24675,-0.435207 -2.35478,-1.191289 -0.0729,-0.510279 0.13725,-1.151704 0.46702,-1.425389 0.66828,-0.554618 14.84982,-0.816162 16.85559,-0.31086 1.97894,0.498539 2.12876,2.547663 0.22364,3.058608 -1.2003,0.321916 -12.16949,0.227275 -15.19147,-0.13107 z m 29.28179,-0.681992 c -0.13522,-0.352388 -0.17478,-1.002388 -0.0879,-1.444444 0.14719,-0.748976 0.83868,-0.799689 10.1487,-0.744291 6.03037,0.03588 10.47524,0.251746 11.21297,0.544555 1.34547,0.534026 1.6184,1.59331 0.5192,2.015112 -0.38666,0.148375 -5.39293,0.269773 -11.12506,0.269773 -8.66635,0 -10.46346,-0.107933 -10.6679,-0.640705 z m -2.79088,-4.823928 c -0.72321,-0.723211 -0.62907,-1.013758 0.88846,-2.742124 1.44073,-1.640906 2.61849,-1.977965 3.44244,-0.985176 0.6444,0.776457 -0.30188,2.130694 -2.32144,3.322265 -1.1082,0.653854 -1.65119,0.763301 -2.00946,0.405035 z m -12.10124,-2.094868 c -1.94149,-2.040927 -2.01999,-2.814655 -0.30636,-3.019586 1.64782,-0.197062 4.00499,1.903562 3.82935,3.412581 -0.21518,1.848716 -1.53003,1.702042 -3.52299,-0.392995 z m 7.69921,-1.418256 c -0.38063,-0.380627 -0.53333,-3.180247 -0.53333,-9.777778 0,-8.985816 0.0252,-9.244444 0.89989,-9.244444 0.56385,0 1.08712,0.456407 1.40129,1.222222 0.75618,1.843272 1.04538,15.358594 0.36384,17.003964 -0.58525,1.412918 -1.26206,1.66566 -2.13169,0.796036 z M 149.86511,48.71334 c -0.42778,-0.249158 -0.77778,-0.943076 -0.77778,-1.542041 0,-0.912186 0.21513,-1.089026 1.32486,-1.089026 1.03431,0 1.38464,0.238138 1.5974,1.085851 0.46276,1.843771 -0.47356,2.518439 -2.14448,1.545216 z m 21.7004,-0.354258 c -0.13252,-0.214422 0.21364,-1.064422 0.76925,-1.888889 1.22481,-1.817489 2.69521,-2.015828 2.87589,-0.38792 0.0939,0.846224 -0.20605,1.296532 -1.25824,1.888889 -1.5529,0.874237 -2.03765,0.953019 -2.3869,0.38792 z m 75.82417,-1.069152 c -0.26024,-0.313566 -0.67978,-1.113566 -0.93231,-1.777778 -0.41488,-1.091208 -0.67298,-1.207657 -2.67674,-1.207657 -2.50686,0 -3.57253,-1.023805 -2.72128,-2.614378 0.56536,-1.056395 1.42545,-1.385622 3.61988,-1.385622 h 1.74143 v -2.222222 c 0,-2.105448 0.0616,-2.222222 1.17323,-2.222222 1.46481,0 2.34981,1.121101 2.36819,3 0.0119,1.215206 0.17964,1.444444 1.05697,1.444444 1.22989,0 3.84606,1.223658 3.84606,1.798916 0,0.577474 -2.44356,1.756348 -3.6446,1.758305 -0.79244,0.0013 -1.2067,0.450633 -1.84387,2 -0.86614,2.106146 -1.21576,2.357452 -1.98696,1.428214 z"
       id="path1"
       clip-path="url(#clipPath2)"
       transform="matrix(1.6906734,0,0,1.5850341,4.2060114,-150.81873)"
       inkscape:transform-center-x="-139.38062"
       inkscape:transform-center-y="-73.377923" />
  </g>
</svg>
