<svg xmlns="http://www.w3.org/2000/svg" viewBox="174.93376 89.17337600000002 299.52000000000004 200.96" id="svg1" version="1.1" style="max-height: 500px" width="299.52000000000004" height="200.96">
  <defs id="defs1"/>
  
  <g id="g1">
    <path id="path2" d="m 264.7592,515.33584 -65,-0.5 -0.2592,-50.16852 -0.2592,-50.16852 3.0092,-0.66093 c 3.45971,-0.75988 3.58454,-1.15444 1.43311,-4.52952 -1.4713,-2.30812 -1.42144,-2.29574 0.75,0.18616 2.27193,2.59676 2.41342,2.62338 6.07609,1.14305 2.0625,-0.83359 3.75,-1.95268 3.75,-2.48686 0,-0.53418 1.74683,-2.62355 3.88185,-4.64305 4.95229,-4.68434 5.59009,-6.86663 3.16993,-10.84628 -2.24061,-3.68437 -10.37094,-8.80076 -12.61605,-7.93923 -0.84678,0.32494 -1.2865,0.18127 -0.97715,-0.31926 0.52692,-0.85259 -4.72158,-4.06704 -6.64059,-4.06704 -0.48111,0 -0.81011,4.05 -0.73111,9 0.079,4.95 0.56833,9 1.0874,9 0.51907,0 0.66564,0.45 0.32572,1 -2.02727,3.2802 -2.5,-0.88997 -2.5,-22.05368 v -23.05369 l 11.09456,0.27217 c 6.10201,0.14969 10.59921,0.43728 9.99377,0.63909 -0.60543,0.20182 -0.84643,0.7785 -0.53554,1.28153 0.31089,0.50302 -0.60831,0.91458 -2.04266,0.91458 -2.09885,0 -2.98448,0.8296 -4.53706,4.25 -3.777,8.32093 -3.04695,10.29631 7.27413,19.6824 4.20923,3.82792 4.94582,4.16136 6.5,2.94238 1.56389,-1.2266 1.61463,-1.19791 0.4708,0.26624 -1.1111,1.42227 -0.85792,1.78886 1.89923,2.75 1.74967,0.60994 4.74969,1.10898 6.6667,1.10898 1.91701,0 6.36641,0.53084 9.88754,1.17963 7.49532,1.38107 14.08626,0.17045 21.17758,-3.88986 l 4.34905,-2.49017 -3.34905,-3.6498 -3.34905,-3.6498 3.54761,3.25 c 1.95119,1.7875 4.33603,3.25 5.29966,3.25 2.6171,0 7.80577,-2.94336 7.12641,-4.04258 -0.32544,-0.52658 0.28025,-0.95742 1.34599,-0.95742 1.24506,0 2.41584,-1.16172 3.27536,-3.25 0.73571,-1.7875 2.12112,-3.925 3.07867,-4.75 0.95756,-0.825 2.03399,-2.7375 2.39207,-4.25 0.52869,-2.23314 0.30176,-2.76483 -1.20736,-2.82894 -1.05274,-0.0447 -1.3165,-0.29761 -0.60841,-0.58334 2.79796,-1.12899 -0.22857,-5.63868 -4.40426,-6.56257 -1.01515,-0.22461 33.70426,-0.29158 77.15426,-0.14882 l 79,0.25956 v 80.30706 80.30705 h -55.5 c -30.525,0 -84.75,-0.225 -120.5,-0.5 z m 71.75,-31.64204 c 0.9625,-0.271 1.75,-0.91241 1.75,-1.42534 0,-0.51294 0.635,-0.93262 1.41111,-0.93262 1.89674,0 6.81864,-5.9589 6.21697,-7.52683 -0.30491,-0.79458 0.16576,-1.07833 1.29767,-0.78233 0.97685,0.25545 2.46461,-0.22405 3.30613,-1.06557 0.84152,-0.84151 1.76678,-1.29327 2.05615,-1.00391 0.28936,0.28936 1.89061,-0.17949 3.55834,-1.04191 5.71567,-2.95568 8.32424,-9.44807 3.90363,-9.71563 l -2.25,-0.13618 2.25,-0.43337 c 1.2375,-0.23835 2.25,-0.86061 2.25,-1.38279 0,-1.9169 -10.42919,-11.91177 -12.44506,-11.92679 -1.56276,-0.0116 -1.72396,-0.22493 -0.67305,-0.89053 1.08993,-0.6903 0.84818,-1.22491 -1.14423,-2.53039 -3.6554,-2.39511 -9.35933,-3.11589 -11.42115,-1.44323 -0.9915,0.80435 -1.40209,0.8822 -0.98483,0.18671 1.26467,-2.10795 -7.83269,-5.36596 -13.709,-4.90956 -2.81747,0.21882 -6.56952,0.44386 -8.33788,0.50009 -2.0425,0.0649 -4.46145,1.19644 -6.63201,3.10222 -1.87925,1.65 -4.33311,3 -5.45301,3 -2.77132,0 -5.28994,1.0451 -4.72429,1.96033 0.25519,0.41292 -0.54638,0.55762 -1.78127,0.32155 -1.59281,-0.30448 -3.67588,0.8272 -7.16845,3.89446 l -4.92318,4.32366 4.44871,0.59981 4.4487,0.59981 -4.64301,0.15019 c -4.90824,0.15877 -5.85699,1.09463 -5.85699,5.77744 0,3.21293 4.28711,7.54735 6.69447,6.76835 1.23462,-0.39952 1.41131,-0.29925 0.5588,0.31707 -1.42366,1.02924 3.07289,5.62921 8.30824,8.49934 2.83423,1.55378 19.2678,4.29202 20.19486,3.36497 0.22566,-0.22567 1.2728,0.45219 2.32697,1.50636 1.05416,1.05416 2.92916,1.92356 4.16666,1.93198 1.2375,0.008 2.925,0.45762 3.75,0.99822 1.36205,0.89252 4.55559,0.66618 9.25,-0.65558 z m -21.17105,-12.94129 c 0.048,-1.16494 0.28494,-1.4019 0.60417,-0.60417 0.28887,0.72188 0.25334,1.58438 -0.0789,1.91667 -0.33229,0.33229 -0.56864,-0.25833 -0.52522,-1.3125 z m 20.42813,-5.40521 c -0.35034,-0.56686 0.0511,-0.73451 0.94099,-0.39301 1.73241,0.66479 2.04938,1.38155 0.61095,1.38155 -0.51754,0 -1.21591,-0.44484 -1.55194,-0.98854 z m -13.01716,-3.02777 c -0.34546,-0.55897 -1.04702,-0.75741 -1.55901,-0.44098 -0.512,0.31643 -0.93091,-0.09 -0.93091,-0.90308 0,-1.21437 -0.64184,-1.30119 -3.59377,-0.48612 -1.97657,0.54576 -3.79753,0.78853 -4.04657,0.53949 -0.24904,-0.24904 0.73407,-0.75069 2.18469,-1.11477 1.7659,-0.44321 2.45259,-1.14383 2.07796,-2.1201 -0.40894,-1.06567 0.17219,-1.43921 2.15908,-1.38784 2.41876,0.0625 2.49802,0.16508 0.71861,0.92971 -1.90835,0.82005 -1.8969,0.86265 0.25,0.92972 1.2375,0.0387 2.25,-0.37582 2.25,-0.92106 0,-0.54524 1.575,-3.05471 3.5,-5.5766 1.925,-2.52189 3.5,-4.11644 3.5,-3.54345 0,0.57299 -1.4625,2.71835 -3.25,4.76747 -2.50527,2.87195 -2.7917,3.55321 -1.25,2.97303 1.81708,-0.6838 1.79421,-0.5605 -0.25,1.34808 -2.56916,2.39871 -2.73095,3.14186 -1.05,4.82281 0.66,0.66 0.91156,1.2 0.55902,1.2 -0.35254,0 -0.92363,-0.45734 -1.2691,-1.01631 z m 25.77912,-3.67668 c 0.97296,-0.25354 2.32296,-0.23687 3,0.0371 0.67703,0.27392 -0.11904,0.48137 -1.76904,0.46099 -1.65,-0.0204 -2.20393,-0.2445 -1.23096,-0.49805 z m -14.26904,-0.70002 c 0,-0.94863 2.99338,-1.42672 3.527,-0.56331 0.32507,0.52598 -0.33552,0.95632 -1.46798,0.95632 -1.13246,0 -2.05902,-0.17685 -2.05902,-0.39301 z m -23.75,-1.29631 c 0.9625,-0.25153 2.5375,-0.25153 3.5,0 0.9625,0.25153 0.175,0.45732 -1.75,0.45732 -1.925,0 -2.7125,-0.20579 -1.75,-0.45732 z m -10.48834,-1.01794 c 1.24392,-0.23919 3.04392,-0.23011 4,0.0202 0.95609,0.2503 -0.0617,0.446 -2.26166,0.4349 -2.2,-0.0111 -2.98225,-0.21588 -1.73834,-0.45508 z m 9.67947,-2.8479 c -1.86402,-1.49339 -1.85175,-1.51186 0.30887,-0.46482 1.2375,0.59969 2.25,1.29952 2.25,1.55517 0,0.76522 -0.5186,0.54424 -2.55887,-1.09035 z m 8.55887,0.11418 c 0,-0.79254 0.40804,-1.69316 0.90675,-2.00138 0.4987,-0.30822 0.67122,0.34023 0.38336,1.44098 -0.61061,2.33499 -1.29011,2.63015 -1.29011,0.5604 z m -46,-13.5279 c 1.925,-0.52675 8.09099,-1.1252 13.70219,-1.3299 8.85407,-0.32299 10.70404,-0.70361 14,-2.88046 2.0888,-1.37957 5.59781,-3.09509 7.79781,-3.81228 4.72154,-1.5392 8.08868,-4.82909 8.91825,-8.71364 1.13775,-5.3277 -0.99454,-10.29484 -4.41937,-10.29484 -0.98786,0 -2.27252,-1.24641 -2.93627,-2.84885 -1.71017,-4.12873 -7.93497,-7.27834 -14.69759,-7.43668 -4.4321,-0.10376 -5.87457,0.2619 -6.97621,1.76849 -0.82975,1.13475 -1.38881,1.37676 -1.38881,0.60119 0,-0.71708 -0.64249,-1.05158 -1.43539,-0.74731 -0.78946,0.30295 -1.59172,0.0818 -1.78278,-0.49137 -0.5651,-1.69529 -9.19153,-2.23715 -11.8854,-0.74656 -1.31803,0.7293 -2.81741,1.20257 -3.33196,1.0517 -1.87761,-0.55051 -5.48292,0.9099 -8.48739,3.438 -1.69239,1.42405 -3.07708,2.29539 -3.07708,1.9363 0,-1.605 -8.29722,4.21994 -10.0494,7.05504 -2.85054,4.61227 -2.50037,8.10407 1.15516,11.51885 1.70816,1.59566 3.65992,2.9012 4.33723,2.9012 0.67732,0 3.11218,1.78907 5.41081,3.9757 3.41291,3.24663 7.19949,5.26067 11.1462,5.92854 0.275,0.0465 2.075,-0.34637 4,-0.87312 z m 9.07895,-10.61445 c 0.048,-1.16494 0.28494,-1.4019 0.60417,-0.60417 0.28887,0.72188 0.25334,1.58438 -0.0789,1.91667 -0.33229,0.33229 -0.56864,-0.25833 -0.52522,-1.3125 z m 10.92105,-2.41667 c -1.28189,-0.82842 -1.24554,-0.9716 0.25,-0.98468 0.9625,-0.008 1.75,0.43468 1.75,0.98468 0,1.21962 -0.11278,1.21962 -2,0 z m -12.3361,-1.83178 c 0.18486,-0.73249 0.3361,-1.74499 0.3361,-2.25 0,-0.50502 0.675,-0.91822 1.5,-0.91822 0.825,0 1.5,-0.675 1.5,-1.5 0,-1.59923 1.67403,-1.728 6.5,-0.5 2.81549,0.71643 2.73861,0.77065 -1.25,0.88169 -3.13202,0.0872 -4.25,0.52842 -4.25,1.67733 0,0.85746 -0.45,1.2809 -1,0.94098 -0.55515,-0.3431 -1.00681,0.40913 -1.01531,1.69099 -0.0112,1.68465 -0.24884,1.94042 -0.87895,0.94586 -0.475,-0.74973 -1.06935,-0.97473 -1.32079,-0.5 -0.25144,0.47474 -0.30591,0.26385 -0.12105,-0.46863 z m -14.9139,-4.8305 c 0.6875,-0.27741 1.8125,-0.27741 2.5,0 0.6875,0.27742 0.125,0.50439 -1.25,0.50439 -1.375,0 -1.9375,-0.22697 -1.25,-0.50439 z m 16.32029,-3.0287 c -0.0387,-1.20504 0.37971,-2.4691 0.92971,-2.80902 1.18279,-0.731 1.18279,0.24752 0,3 -0.82859,1.92824 -0.86195,1.92139 -0.92971,-0.19098 z m 7.91921,-3.08094 c 1.28071,-1.73225 2.707,-2.91565 3.16953,-2.62979 1.28341,0.79319 1.08696,1.09037 -2.32856,3.52243 l -3.16953,2.25691 z m 69.46345,15.61141 c 1.40088,-0.63828 2.54705,-1.43737 2.54705,-1.77576 0,-0.33838 2.83055,-0.46458 6.2901,-0.28045 5.26233,0.28009 6.7428,-0.0213 9.06079,-1.84464 1.54124,-1.21234 2.53578,-2.7916 2.24129,-3.55903 -0.29241,-0.762 0.0883,-1.37961 0.85031,-1.37961 1.63799,0 6.14587,-5.12767 7.07134,-8.04356 0.77537,-2.44297 -1.87011,-6.95644 -4.07737,-6.95644 -0.83459,0 -2.85136,-0.9862 -4.48169,-2.19156 l -2.96426,-2.19157 -3.74525,3.44157 -3.74526,3.44156 3.43165,-3.73501 c 1.88741,-2.05427 3.23741,-3.8691 3,-4.03297 -0.2374,-0.16387 -1.21915,-0.90072 -2.18165,-1.63743 -1.43277,-1.09666 -2.03214,-1.10532 -3.30642,-0.0478 -1.28691,1.06804 -1.50336,1.04595 -1.25,-0.12755 0.19938,-0.92349 -0.55114,-1.41928 -2.14849,-1.41928 -1.76647,0 -2.64993,0.7011 -3.15032,2.5 l -0.69541,2.5 -0.0997,-2.75 c -0.0926,-2.55553 -0.40021,-2.74891 -4.34968,-2.73468 -4.60541,0.0166 -7.35965,1.18923 -6.40837,2.72842 0.34933,0.56523 -0.4288,0.77109 -1.87189,0.49523 -3.39999,-0.64995 -3.09412,0.76352 1.03026,4.76103 2.25015,2.18093 3.52901,2.87591 3.58122,1.94617 0.0447,-0.79539 0.60717,-0.27418 1.25,1.15825 0.64283,1.43242 1.81485,3.37922 2.60448,4.32621 1.2476,1.49622 1.2476,1.83948 0,2.61994 -1.06639,0.66711 -1.52009,0.32596 -1.76379,-1.32621 -0.18045,-1.2234 -2.598,-4.54425 -5.37234,-7.37969 -4.59656,-4.69777 -5.28722,-5.07063 -7.78172,-4.20104 -5.02043,1.75013 -10.79841,9.93115 -10.49256,14.85637 0.21585,3.47587 1.69676,6.12877 3.11699,5.58378 0.80388,-0.30848 1.19482,-0.12921 0.86876,0.39836 -0.32606,0.52758 0.62215,1.26417 2.10713,1.63688 1.48499,0.37271 4.54089,1.73048 6.7909,3.01727 4.89853,2.80149 7.11758,2.96005 8.58899,0.61371 0.94724,-1.51048 1.01325,-1.44205 0.48231,0.5 -0.70893,2.59306 0.89928,2.94541 4.97258,1.08949 z m -9.45295,-11.2325 c 0,-0.21615 0.69838,-0.661 1.55194,-0.98854 0.88993,-0.3415 1.29132,-0.17385 0.94098,0.39301 -0.58725,0.9502 -2.49292,1.40545 -2.49292,0.59553 z m 9.52636,-2.35699 c 0.40718,-0.9625 0.67889,-2.9125 0.6038,-4.33333 -0.0873,-1.65217 0.38583,-2.58333 1.31265,-2.58333 1.09537,0 1.20963,0.44758 0.468,1.83333 -0.75339,1.40772 -0.62478,1.83333 0.55401,1.83333 2.10751,0 1.92455,0.92772 -0.61783,3.13271 -2.68371,2.32757 -3.26818,2.35712 -2.32063,0.11729 z m 6.97364,-5.25 c 0.33992,-0.55 0.81648,-1 1.05902,-1 0.24254,0 0.44098,0.45 0.44098,1 0,0.55 -0.47655,1 -1.05901,1 -0.58246,0 -0.7809,-0.45 -0.44099,-1 z m -0.5,-8 c 0.58871,-1.1 1.29537,-2 1.57037,-2 0.275,0 0.0183,0.9 -0.57037,2 -0.5887,1.1 -1.29536,2 -1.57036,2 -0.275,0 -0.0183,-0.9 0.57036,-2 z m -166,1.5 c 0,-0.825 0.17686,-1.5 0.39301,-1.5 0.21616,0 0.65204,0.675 0.96862,1.5 0.31658,0.825 0.13973,1.5 -0.39301,1.5 -0.53274,0 -0.96862,-0.675 -0.96862,-1.5 z m 49,-33.53222 c 0,-1.17286 -0.95145,-2.41466 -2.25,-2.93661 -1.30494,-0.52453 -1.61996,-0.93745 -0.75,-0.98309 0.88765,-0.0466 1.09177,-0.37863 0.5,-0.81339 -0.55,-0.40408 -1.65541,-1.63469 -2.45646,-2.73469 -0.80106,-1.1 0.18178,-0.47797 2.18408,1.38229 3.66705,3.40689 7.35261,3.79333 6.14418,0.64423 -0.43001,-1.1206 -0.14869,-1.37813 1.01686,-0.93087 2.13521,0.81936 2.03216,1.66046 -0.38866,3.17228 -1.1,0.68696 -2,2.14521 -2,3.24055 0,1.09534 -0.45,1.99152 -1,1.99152 -0.55,0 -1,-0.9145 -1,-2.03222 z m 10.50708,0.0437 c -0.35034,-0.56686 0.0511,-0.73451 0.94099,-0.39301 1.73241,0.66479 2.04938,1.38155 0.61095,1.38155 -0.51754,0 -1.21591,-0.44484 -1.55194,-0.98854 z m -24.50708,-1.15015 c 0,-0.47373 1.125,-0.86133 2.5,-0.86133 1.375,0 2.5,0.17255 2.5,0.38343 0,0.21088 -1.125,0.59848 -2.5,0.86133 -1.375,0.26284 -2.5,0.0903 -2.5,-0.38343 z m -5.75,-0.55065 c 0.9625,-0.25153 2.5375,-0.25153 3.5,0 0.9625,0.25153 0.175,0.45732 -1.75,0.45732 -1.925,0 -2.7125,-0.20579 -1.75,-0.45732 z m 37.01904,-5.00367 c 0.97296,-0.25354 2.32296,-0.23687 3,0.0371 0.67703,0.27392 -0.11904,0.48137 -1.76904,0.46099 -1.65,-0.0204 -2.20393,-0.2445 -1.23096,-0.49805 z m 7.48096,-0.96929 c 0.6875,-0.27741 1.8125,-0.27741 2.5,0 0.6875,0.27742 0.125,0.50439 -1.25,0.50439 -1.375,0 -1.9375,-0.22697 -1.25,-0.50439 z m 6,0 c 0.6875,-0.27741 1.8125,-0.27741 2.5,0 0.6875,0.27742 0.125,0.50439 -1.25,0.50439 -1.375,0 -1.9375,-0.22697 -1.25,-0.50439 z m -18.75,-5.71527 c 0,-0.20766 0.7875,-0.99516 1.75,-1.75 1.58606,-1.24387 1.62143,-1.2085 0.37756,0.37755 -1.30637,1.66575 -2.12756,2.19548 -2.12756,1.37245 z m -0.73096,-103.31544 c 0.97296,-0.25354 2.32296,-0.23687 3,0.0371 0.67703,0.27392 -0.11904,0.48137 -1.76904,0.46099 -1.65,-0.0204 -2.20393,-0.2445 -1.23096,-0.49805 z m 28.5501,-0.0563 c 13.37552,-0.15761 34.97552,-0.15745 48,3.5e-4 13.02447,0.15781 2.08086,0.28676 -24.31914,0.28657 -26.4,-2e-4 -37.05639,-0.12931 -23.68086,-0.28692 z m 73.93086,0.0436 c 1.2375,-0.23835 3.2625,-0.23835 4.5,0 1.2375,0.23835 0.225,0.43337 -2.25,0.43337 -2.475,0 -3.4875,-0.19502 -2.25,-0.43337 z m -137.26237,-63.79427 0.0124,-62.99999 13.2597,-0.27909 c 7.29284,-0.1535 13.18389,0.0715 13.09124,0.5 -0.0926,0.4285 0.16357,1.53387 0.56939,2.45637 0.40581,0.9225 0.58975,2.68725 0.40876,3.92167 -0.34036,2.32126 -1.99139,3.1147 -9.32909,4.48334 -2.24698,0.41912 -3.23305,0.92539 -2.25,1.15522 1.0735,0.25098 1.75,1.34722 1.75,2.83581 0,1.95956 0.51106,2.42667 2.65499,2.42667 2.64128,0 2.64515,0.0111 0.75,2.15481 l -1.90499,2.1548 2.64241,-1.69932 c 2.57541,-1.65622 2.6955,-1.63182 4.73638,0.96274 1.15168,1.46413 1.83635,3.07887 1.5215,3.58832 -0.31486,0.50944 -0.0619,1.54149 0.56218,2.29343 0.78,0.93984 0.8069,1.56973 0.0861,2.01521 -0.5767,0.35643 -1.04856,0.17149 -1.04856,-0.41097 0,-0.58246 -0.47655,-1.05902 -1.05901,-1.05902 -0.58246,0 -0.74981,0.50032 -0.37189,1.11181 1.75722,2.84324 -4.58645,3.72398 -9.42758,1.3089 -1.74117,-0.86861 -3.72281,-1.36884 -4.40364,-1.11162 -1.21119,0.45759 6.0609,4.23379 7.48378,3.88614 0.85533,-0.20899 -0.58328,3.80971 -2.41212,6.73815 -2.21004,3.53883 -9.38457,2.17104 -12.34976,-2.35443 -1.54507,-2.35806 -1.52651,-2.6792 0.30591,-5.29463 1.07291,-1.53137 2.50945,-3.85112 3.1923,-5.15499 1.02068,-1.94893 1.00455,-2.22421 -0.0906,-1.54734 -0.7327,0.45283 -2.09985,0.87989 -3.03811,0.94901 -1.31436,0.0968 -1.08887,-0.46963 0.98242,-2.46791 1.47859,-1.42647 3.39478,-2.44294 4.2582,-2.25881 0.86342,0.18412 2.12243,-0.33104 2.79779,-1.1448 1.02795,-1.2386 0.73021,-1.58889 -1.82817,-2.15081 -1.68086,-0.36917 -3.56332,-1.64715 -4.18325,-2.83995 -0.61992,-1.19279 -1.23303,-2.29806 -1.36245,-2.45616 -0.12943,-0.15809 -1.41473,0.24994 -2.85623,0.90673 l -2.6209,1.19416 -0.27069,55.59328 -0.2707,55.59327 z m 11.85608,-25.70632 c 0.78364,-2.99667 -0.0541,-3.55783 -1.82224,-1.22067 -1.84828,2.44305 -1.88793,3.42699 -0.1381,3.42699 0.76086,0 1.64301,-0.99284 1.96034,-2.20632 z m -2.79268,-3.26156 c 2.35068,-5.62597 1.81699,-7.4195 -1.05103,-3.53212 -2.57547,3.49086 -3.30185,7 -1.44897,7 0.57807,0 1.70307,-1.56054 2.5,-3.46788 z m 9.44897,1.5255 c 0,-0.93853 -4.16619,-2.22475 -4.88333,-1.50762 -0.25886,0.25887 0.39152,1.10112 1.44531,1.87166 1.89838,1.38813 3.43802,1.2251 3.43802,-0.36404 z m 5.34508,-7.60074 c -0.32568,-0.84872 -0.80662,-1.32866 -1.06875,-1.06653 -0.26213,0.26212 -0.17998,0.95653 0.18256,1.54312 0.98604,1.59547 1.56237,1.28551 0.88619,-0.47659 z m -6.34508,-1.45688 c -0.825,-0.53315 -1.95,-0.96937 -2.5,-0.96937 -0.55,0 -0.325,0.43622 0.5,0.96937 0.825,0.53316 1.95,0.96938 2.5,0.96938 0.55,0 0.325,-0.43622 -0.5,-0.96938 z m 8,-3.5 c 1.3513,-1.6282 1.02807,-1.83173 -1.41821,-0.89301 -0.86998,0.33385 -1.58179,1.00885 -1.58179,1.5 0,1.38324 1.62035,1.05539 3,-0.60699 z m -16.33772,-10.75 c -0.27741,-0.6875 -0.50438,-0.125 -0.50438,1.25 0,1.375 0.22697,1.9375 0.50438,1.25 0.27742,-0.6875 0.27742,-1.8125 0,-2.5 z m 6.33772,-3.35764 c 0,-0.82763 -1.94173,-1.29566 -2.38691,-0.57533 -0.28881,0.4673 0.1301,0.84964 0.9309,0.84964 0.80081,0 1.45601,-0.12344 1.45601,-0.27431 z m -3.77186,-5.97924 c -0.36057,-1.88623 -1.09086,-2.41311 -3.34471,-2.41311 -3.03729,0 -3.50786,0.96472 -1.91883,3.93384 0.64804,1.21088 1.74567,1.65304 3.34471,1.34737 1.89765,-0.36276 2.28662,-0.94416 1.91883,-2.8681 z m 137.42685,107.75814 c -2.05664,-2.27255 -2.12097,-3.2873 -0.16073,-2.53509 0.82184,0.31537 1.2645,0.94516 0.98369,1.39952 -0.28081,0.45437 0.0177,1.15258 0.66327,1.55159 0.81246,0.50213 1.00031,0.0619 0.61019,-1.42991 -0.31001,-1.18545 -0.15589,-2.40738 0.34247,-2.71539 2.34508,-1.44934 0.55624,-2.3124 -2.02559,-0.97729 -2.75583,1.4251 -2.95885,1.39573 -3.38404,-0.48951 -0.28614,-1.26869 -0.40308,-1.02165 -0.31829,0.67238 0.0737,1.47287 -0.47592,2.88303 -1.22144,3.13369 -1.04591,0.35166 -1.19278,-0.28504 -0.64306,-2.78786 0.49775,-2.26628 0.37888,-3.03747 -0.39452,-2.55947 -0.60882,0.37626 -1.10694,2.00756 -1.10694,3.6251 0,2.27432 -0.45336,2.94098 -2,2.94098 -1.1,0 -2,-0.43587 -2,-0.96861 0,-0.53274 -0.61028,-0.73443 -1.35619,-0.44819 -1.03033,0.39537 -1.30494,-0.51323 -1.14286,-3.78139 0.29842,-6.01757 0.2275,-5.89016 2.99905,-5.38758 1.375,0.24933 2.5,0.0331 2.5,-0.48045 0,-0.51357 -0.7875,-0.94067 -1.75,-0.94909 -1.48339,-0.013 -1.52304,-0.1588 -0.26023,-0.9572 1.87197,-1.18353 9.34334,-0.52817 9.80612,0.86017 0.18961,0.56882 1.56094,0.79098 3.04741,0.49369 1.99396,-0.3988 3.22109,0.0499 4.67968,1.71095 1.08736,1.23832 1.41452,1.92258 0.72702,1.52058 -0.6875,-0.402 -1.25,-0.25435 -1.25,0.32811 0,0.58246 0.45,1.05901 1,1.05901 0.55,0 0.98503,0.7875 0.96673,1.75 -0.0279,1.4681 -0.35008,1.36971 -2,-0.61078 -2.33241,-2.79973 -2.64466,-1.55211 -0.41002,1.63828 1.43987,2.05571 1.20309,2.67819 -0.88104,2.31615 -0.45338,-0.0788 -0.55327,0.29537 -0.22199,0.8314 0.33129,0.53604 -0.28068,1.44719 -1.35993,2.02478 -2.53736,1.35796 -2.49917,1.36466 -4.43876,-0.77857 z m 2.90685,-8.94275 c -0.3352,-0.3352 -1.38624,0.20382 -2.33565,1.19783 -1.65022,1.72776 -1.6234,1.75458 0.60946,0.60946 1.28461,-0.65881 2.06139,-1.47209 1.72619,-1.80729 z m -9.80687,0.34986 c 0.3181,-0.3181 -0.84663,-0.57837 -2.5883,-0.57837 -1.74167,0 -3.16667,0.38812 -3.16667,0.86249 0,0.92109 4.78605,0.6848 5.75497,-0.28412 z m 2.73795,-2.56691 c 0.35034,-0.56686 -0.051,-0.73451 -0.94098,-0.39301 -1.73242,0.66479 -2.04939,1.38155 -0.61095,1.38155 0.51754,0 1.21591,-0.44484 1.55193,-0.98854 z m 45.66498,8.98854 c 0,-1.375 0.22697,-1.9375 0.50438,-1.25 0.27742,0.6875 0.27742,1.8125 0,2.5 -0.27741,0.6875 -0.50438,0.125 -0.50438,-1.25 z m 0.078,-10.25 c -0.14348,-1.67295 -0.82334,-2.75 -1.73586,-2.75 -0.85451,0 -1.54991,-0.96822 -1.616,-2.25 -0.0678,-1.31603 -0.29843,-1.62735 -0.5555,-0.75 -0.67692,2.3103 -7.36948,7 -9.98953,7 -2.615,0 -2.94777,-0.91727 -1.08897,-3.00177 1.04675,-1.17384 0.99114,-1.20777 -0.34201,-0.20867 -2.03626,1.52603 -2.90799,0.62014 -2.90799,-3.02196 0,-3.94238 1.51004,-6.46287 4.93215,-8.23251 2.61252,-1.35098 2.93756,-1.32927 3.58678,0.23965 0.49102,1.18661 0.86035,1.33305 1.18291,0.46903 0.25794,-0.69092 0.8754,-1.00505 1.37212,-0.69806 0.49672,0.30699 0.63514,-0.1402 0.3076,-0.99377 -0.46593,-1.21419 0.13504,-1.5486 2.76145,-1.53662 2.6445,0.0121 3.03863,0.24046 1.85699,1.07613 -1.33333,0.94295 -1.33333,1.01602 0,0.65767 0.85585,-0.23001 1.63924,-1.82828 1.82423,-3.72178 0.3029,-3.10043 0.21438,-3.2088 -1.34628,-1.64814 -1.96163,1.96163 -8.16097,1.8892 -8.92595,-0.10429 -0.38012,-0.99058 -1.01172,-0.81518 -2.52932,0.70241 -2.27859,2.2786 -3.7157,2.47009 -7.56221,1.00765 -2.26873,-0.86257 -2.57251,-1.42583 -2.02246,-3.75 0.88663,-3.74631 4.34837,-6.5054 7.24877,-5.77744 2.95831,0.74248 3.01391,-0.67392 0.0773,-1.9704 -3.19931,-1.41247 -4.47189,-5.7073 -2.72508,-9.19684 2.3959,-4.78617 2.35046,-4.87529 -0.78547,-1.54029 -3.7247,3.96117 -4.55844,4.03117 -5.95543,0.5 -1.05773,-2.6736 -1.08686,-2.63888 -1.04857,1.25 0.0564,5.73041 -1.1915,10.5 -2.74723,10.5 -3.39185,0 -4.41861,-1.16799 -3.81561,-4.34045 0.34931,-1.83773 0.2267,-2.81092 -0.29309,-2.32621 -0.4915,0.45833 -0.94989,1.24583 -1.01864,1.75 -0.0688,0.50416 -0.18125,1.32454 -0.25,1.82305 -0.28699,2.08102 -3.96806,-0.32063 -4.96843,-3.24158 l -1.0839,-3.16481 0.5893,3.5 c 0.32411,1.925 1.02049,3.77488 1.54751,4.11084 0.52702,0.33596 0.24548,0.88434 -0.62563,1.21862 -0.93071,0.35714 -1.58385,1.77902 -1.58385,3.44803 0,3.72647 -2.57784,7.30568 -3.85994,5.35936 -0.75812,-1.15087 -0.99467,-1.15087 -1.51901,0 -0.48094,1.05563 -0.75265,1.08115 -1.20438,0.11315 -0.32083,-0.6875 -1.22083,-1.25 -2,-1.25 -1.75018,0 -1.81631,-1.16928 -0.16667,-2.94717 1.01842,-1.09759 0.93775,-1.23769 -0.43539,-0.75618 -0.92696,0.32505 -1.93531,0.0538 -2.24077,-0.60282 -0.30545,-0.6566 -0.33006,-0.0688 -0.0547,1.30617 0.43809,2.18742 0.32119,2.1249 -0.93496,-0.5 -0.78961,-1.65 -1.74646,-3.9 -2.12634,-5 -0.43218,-1.25141 -0.86546,-1.53213 -1.1576,-0.75 -0.74818,2.003 -4.05115,1.44373 -5.74354,-0.9725 -2.93333,-4.18792 -1.40674,-14.42465 1.95855,-13.13327 0.81661,0.31336 1.48474,0.0716 1.48474,-0.53724 0,-0.60884 0.93215,-1.10699 2.07143,-1.10699 1.87256,0 1.92235,-0.14907 0.51867,-1.55276 -1.34399,-1.34398 -1.37136,-1.98266 -0.20359,-4.75 0.79577,-1.88576 1.91614,-3.03346 2.73134,-2.79797 0.76019,0.2196 2.73215,0.57543 4.38215,0.79075 l 3,0.39148 -3.4996,-1.9455 c -1.92478,-1.07003 -3.94978,-1.66352 -4.5,-1.31887 -2.38684,1.49508 -3.53824,0.75606 -4.52366,-2.90351 -1.13674,-4.22154 -0.23197,-7.21796 2.49548,-8.26458 0.84028,-0.32245 1.52778,-1.29122 1.52778,-2.15283 0,-1.28209 0.38176,-1.36226 2.10224,-0.44149 1.15622,0.61879 2.92348,0.91032 3.92723,0.64783 1.60266,-0.4191 1.68976,-0.18042 0.71493,1.95909 -0.92685,2.03422 -1.25314,2.18068 -1.97692,0.88735 -1.19484,-2.13506 -3.99977,-1.99369 -3.58106,0.18048 0.20732,1.07654 1.38537,1.81034 3.12041,1.9437 2.12976,0.1637 3.0618,-0.38811 3.95069,-2.33901 0.99013,-2.1731 0.88022,-2.76027 -0.73822,-3.9437 -1.04585,-0.76475 -2.92642,-1.39046 -4.17904,-1.39046 -1.61095,0 -2.10947,-0.43785 -1.70338,-1.49609 0.45188,-1.17757 -0.0338,-1.3847 -2.28138,-0.97287 -1.57052,0.28778 -3.47781,0.10999 -4.23843,-0.39507 -1.16084,-0.77084 -1.12069,-1.2927 0.25,-3.24964 2.43856,-3.48153 1.97095,-4.5525 -0.83625,-1.91528 -1.35804,1.27582 -2.25391,2.66798 -1.9908,3.09369 0.2631,0.42572 -0.25786,1.51025 -1.1577,2.41009 -1.51475,1.51475 -1.51128,1.91279 0.0469,5.36811 1.335,2.96051 1.45808,4.32341 0.59534,6.59257 -1.04666,2.75292 -1.14488,2.78913 -2.61121,0.96251 -1.42376,-1.77359 -1.44613,-1.73924 -0.34127,0.52393 1.06767,2.18698 0.85474,2.69369 -2.19483,5.2231 -1.85746,1.54063 -3.73352,2.81326 -4.16902,2.82805 -1.46864,0.0499 -4.92626,-3.81123 -4.30831,-4.8111 0.78613,-1.27197 -1.18287,-1.92613 -4.11213,-1.36617 -1.50039,0.28682 -2.31194,1.17158 -2.35803,2.57075 -0.0687,2.08688 -0.0909,2.08979 -1.01386,0.13342 -0.80498,-1.70624 -0.88775,-1.59238 -0.56356,0.77522 0.23855,1.74218 -0.17633,3.08656 -1.11456,3.61162 -1.20888,0.67652 -1.24236,0.99227 -0.17517,1.65183 0.78547,0.48545 1.47817,0.33911 1.71175,-0.36161 0.48473,-1.45419 4.45384,-1.5489 5.86284,-0.13989 0.71622,0.71621 1.90205,0.70833 3.83209,-0.0255 1.5372,-0.58445 3.64042,-0.79428 4.6738,-0.46629 2.14195,0.67983 5.24187,6.02277 4.34051,7.4812 -0.329,0.53233 -3.08467,2.18539 -6.12372,3.67347 -5.02287,2.45946 -5.36141,2.8256 -3.72138,4.02482 0.99228,0.72558 2.36744,1.10308 3.05589,0.8389 1.83428,-0.70388 8.30565,5.80512 8.30565,8.35394 0,2.61452 -2.26497,7.22736 -4.4317,9.02559 -1.31402,1.09054 -2.1037,0.88568 -4.94766,-1.28351 -1.86124,-1.41964 -3.67509,-3.74065 -4.03078,-5.1578 -0.35568,-1.41715 -1.1964,-2.46116 -1.86827,-2.32001 -0.67187,0.14114 -2.47313,-0.57803 -4.00279,-1.59815 -3.84509,-2.56426 -4.55152,-1.31299 -0.77637,1.37515 1.68166,1.19745 3.05757,2.67498 3.05757,3.2834 0,0.60842 -1.12322,0.051 -2.49605,-1.2387 -1.37283,-1.28971 -2.83533,-2.00281 -3.25,-1.58468 -0.41467,0.41814 0.45543,1.73241 1.93356,2.92061 2.1613,1.73737 2.48657,2.51668 1.66127,3.98014 -0.99237,1.7597 -1.07292,1.7597 -2.43997,0 -1.28144,-1.64951 -1.35669,-1.65604 -0.80427,-0.0698 0.40054,1.15016 0.10484,1.75 -0.86269,1.75 -2.07954,0 -6.50496,-3.67827 -7.25013,-6.02608 -0.34457,-1.08565 -1.22302,-1.97392 -1.95212,-1.97392 -1.84631,0 -2.80222,2.97864 -1.47076,4.58295 0.60684,0.73119 0.77007,1.86869 0.36275,2.52776 -0.48646,0.78711 -0.31557,0.93563 0.498,0.43281 0.87617,-0.5415 1.14084,-0.0847 0.90451,1.56113 -0.18468,1.28609 -1.84253,3.34072 -3.70692,4.5941 -3.45333,2.3216 -5.68069,2.18607 -4.73134,-0.2879 0.2927,-0.76277 0.21088,-1.33896 -0.18182,-1.28043 -2.13843,0.31874 -2.37883,-0.30675 -0.65515,-1.70457 1.06763,-0.86579 1.37546,-1.28727 0.68407,-0.93662 -2.04741,1.03838 -2.63207,-2.40175 -0.75979,-4.4706 0.94914,-1.04879 2.65597,-2.04453 3.79296,-2.21276 2.45511,-0.36325 3.5931,-2.80587 1.30723,-2.80587 -1.88507,0 -2.10441,-1.59016 -0.33334,-2.41666 1,-0.46667 1,-0.7 0,-1.16667 -3.64163,-1.69943 0.60437,-7.72402 4.78688,-6.79203 2.00747,0.44732 2.18564,0.3357 0.96312,-0.6034 -1.20571,-0.92619 -1.01028,-1.01275 0.99617,-0.44123 1.37288,0.39107 3.00172,1.40243 3.61963,2.24747 2.21754,3.03267 8.2892,2.33553 8.36889,-0.9609 0.0294,-1.2172 -5.48033,-1.68267 -6.21683,-0.52521 -0.41753,0.6562 -0.74387,-0.0595 -0.75254,-1.65038 -0.0102,-1.87119 0.37013,-2.5708 1.13919,-2.09549 0.71626,0.44267 0.88303,0.27425 0.43931,-0.44369 -0.50026,-0.80944 -1.27825,-0.85587 -2.58876,-0.15451 -3.96415,2.12155 -11.56126,0.70056 -8.00506,-1.4973 0.55,-0.33991 1,-1.12748 1,-1.75014 0,-0.62266 -0.61576,-0.29001 -1.36836,0.73924 -1.32807,1.81624 -1.40065,1.81103 -2.46459,-0.17697 -0.79549,-1.48638 -1.78679,-1.91631 -3.61339,-1.56713 -2.01419,0.38503 -2.71568,-0.041 -3.51066,-2.13191 -0.54642,-1.43719 -1.25619,-2.61309 -1.57726,-2.61309 -0.32107,0 -0.31863,0.429 0.005,0.95333 1.31775,2.13217 -6.45869,8.31212 -9.21944,7.32671 -0.80226,-0.28635 -1.01813,-1.36255 -0.60415,-3.01195 0.45095,-1.79672 0.30048,-2.35401 -0.50172,-1.85822 -0.63022,0.38949 -1.14585,1.56749 -1.14585,2.61777 0,1.29372 -0.48788,1.72238 -1.51273,1.3291 -0.83201,-0.31927 -2.10018,-0.093 -2.81816,0.50292 -0.71799,0.59588 -2.84976,1.20872 -4.73727,1.36188 -3.38355,0.27455 -3.43184,0.22219 -3.43184,-3.72154 0,-2.60079 0.42467,-3.91674 1.21402,-3.76199 0.671,0.13155 0.97411,-0.38715 0.67767,-1.15966 -0.53563,-1.39583 1.58218,-2.48335 5.95787,-3.05943 3.03131,-0.39909 5.65044,-1.58609 5.65044,-2.5608 0,-2.11971 -2.0823,-5.95653 -3.22525,-5.9428 -0.88274,0.0106 -0.81347,0.31341 0.22525,0.98468 1.28825,0.83253 1.25792,0.97154 -0.21481,0.98469 -3.83351,0.0342 -4.93002,-6.46135 -1.709,-10.1239 1.1419,-1.29843 1.76855,-1.76302 1.39256,-1.03243 -0.51619,1.003 0.13872,1.24794 2.67381,1 3.19473,-0.31244 4.80845,-1.35803 4.84213,-3.13737 0.008,-0.44496 -0.40359,-0.55012 -0.91559,-0.23369 -2.06946,1.279 -1.94112,-1.43352 0.13668,-2.88887 1.23158,-0.86264 1.65697,-1.56843 0.9453,-1.56843 -0.71166,0 -1.96258,0.66865 -2.77982,1.48589 -1.18094,1.18094 -1.75625,1.23333 -2.80327,0.25526 -0.72456,-0.67684 -1.0723,-1.86931 -0.77275,-2.64993 0.34737,-0.90523 0.12089,-1.15741 -0.6253,-0.69624 -1.89915,1.17374 -1.35455,-1.91793 0.6588,-3.73999 2.14541,-1.94157 4.57053,-2.2102 3.65612,-0.40499 -0.34824,0.6875 -0.0185,0.50467 0.73272,-0.4063 1.85567,-2.25022 4.53828,-0.67227 6.38954,3.75843 0.8974,2.14777 2.10829,3.39787 3.29129,3.39787 1.71637,0 5.14296,3.8615 5.07119,5.71482 -0.0167,0.43185 -0.48909,-0.002 -1.0497,-0.96482 -0.5606,-0.9625 -1.47756,-1.75 -2.03768,-1.75 -0.56012,0 -0.0878,1.30697 1.04969,2.90438 2.8776,4.04121 2.52839,5.24492 -0.4629,1.59562 -2.28734,-2.79048 -2.45942,-2.84682 -2.46404,-0.8067 -0.003,1.20631 0.92808,2.84683 2.06848,3.64559 1.47841,1.03552 1.7276,1.66604 0.86832,2.19711 -0.69982,0.43251 -1.60305,0.0337 -2.15417,-0.95105 -0.7473,-1.33536 -1.25074,-1.44546 -2.36832,-0.51795 -0.7806,0.64784 -1.38765,1.91029 -1.34899,2.80545 0.0541,1.25222 0.26848,1.16633 0.92971,-0.37245 0.47269,-1.1 0.9596,-1.55 1.08203,-1 0.12243,0.55 0.32715,1.45 0.45494,2 0.12778,0.55 0.28709,1.675 0.35401,2.5 0.0669,0.825 1.47289,2.26891 3.12439,3.20868 1.65149,0.93978 3.41781,2.80047 3.92516,4.13489 0.83611,2.19915 1.34998,2.37802 5.49096,1.91127 3.94082,-0.44419 4.56851,-0.26472 4.56851,1.30624 0,1.71529 0.0816,1.70962 1.40292,-0.0974 1.30879,-1.78988 1.09075,-2.00101 -3.25,-3.147 -2.55911,-0.67562 -4.98759,-1.24826 -5.39664,-1.27253 -0.40905,-0.0243 -0.55499,-1.05664 -0.32431,-2.29414 0.23068,-1.2375 0.45285,-2.49713 0.49372,-2.79919 0.0409,-0.30206 1.76181,-0.41773 3.82431,-0.25704 3.38899,0.26404 3.24148,-0.0674 -0.56338,-1.26593 -0.72236,-0.22754 -1.05003,-0.83982 -0.72816,-1.36062 0.34904,-0.56476 2.03256,-0.34218 4.17147,0.55152 1.97243,0.82413 3.8307,1.25397 4.12948,0.9552 0.29877,-0.29878 -0.98737,-1.20753 -2.85809,-2.01944 -2.95467,-1.28236 -3.22612,-2.12562 -0.52497,-1.6308 0.482,0.0883 1.51757,-0.75493 2.30129,-1.87384 2.02204,-2.88687 5.32145,-4.44109 8.93178,-4.20741 1.77913,0.11516 3.64977,-0.44982 4.37244,-1.32059 1.46888,-1.76988 3.47772,-2.07448 2.42265,-0.36735 -0.41954,0.67883 -0.27652,0.88443 0.34711,0.49901 0.58334,-0.36053 0.84658,-1.47399 0.58498,-2.47437 -0.2616,-1.00037 0.23064,-2.40502 1.09388,-3.12145 0.86324,-0.71642 1.56952,-1.75258 1.56952,-2.30258 0,-0.55 -0.70929,-0.41134 -1.57621,0.30814 -1.30606,1.08393 -1.74578,1.06207 -2.56551,-0.12756 -0.72047,-1.04558 -0.80651,-0.79028 -0.31665,0.93953 0.45057,1.59106 0.3142,2.1537 -0.41307,1.70423 -0.59714,-0.36906 -2.34904,0.26301 -3.89311,1.40459 -1.54406,1.14158 -4.7037,2.30417 -7.02142,2.58354 -4.16637,0.50219 -4.21403,0.47237 -4.21403,-2.63682 0,-2.38448 0.36264,-3.00559 1.5,-2.56914 0.825,0.31658 1.5,0.13973 1.5,-0.39301 0,-0.53274 -0.675,-0.96862 -1.5,-0.96862 -1.94947,0 -1.90792,-1.97259 0.102,-4.84216 0.8811,-1.25794 1.4436,-2.37962 1.25,-2.49262 -0.1936,-0.11299 -1.702,-0.70354 -3.352,-1.31232 -1.65,-0.60878 -3.7875,-1.43537 -4.75,-1.83687 -1.52006,-0.63409 -1.75,-0.12056 -1.75,3.90837 0,3.08847 0.47539,4.8208 1.42268,5.18431 0.78248,0.30026 1.67569,1.20526 1.98492,2.0111 0.45752,1.19228 -0.13338,1.34154 -3.17268,0.80139 -2.94162,-0.52279 -3.48784,-0.40156 -2.57166,0.57077 0.63979,0.679 2.55229,1.29132 4.25,1.3607 1.69771,0.0694 3.08674,0.662 3.08674,1.31693 0,0.84763 -0.86453,0.94285 -3,0.3304 -1.65,-0.47321 -3,-0.48994 -3,-0.0372 0,0.9223 3.05173,2.45451 4.32433,2.17117 0.45338,-0.10095 0.52037,0.30829 0.14885,0.90941 -0.37151,0.60112 -1.30496,0.8514 -2.07433,0.55616 -0.82225,-0.31553 -1.39885,0.0929 -1.39885,0.99085 0,0.84019 -0.45734,1.24498 -1.01631,0.89951 -0.55897,-0.34546 -0.7606,-1.04186 -0.44806,-1.54756 0.31488,-0.50949 -0.20113,-0.62421 -1.1573,-0.25729 -1.33715,0.51311 -1.5765,0.27376 -1.06339,-1.06339 0.39403,-1.02682 0.26186,-1.47816 -0.32639,-1.1146 -1.03154,0.63753 -1.4439,-1.37212 -1.0943,-5.33315 0.1672,-1.89436 -0.21754,-2.26555 -2.07299,-2 -2.59934,0.37202 -7.31533,-3.71303 -8.80264,-7.62497 -0.7016,-1.84533 -0.56034,-2.86438 0.55114,-3.97585 1.81447,-1.81447 7.57132,-3.00549 10.71431,-2.21665 1.86787,0.46881 2.6461,-0.0713 4.16404,-2.88994 1.64885,-3.06173 2.34471,-3.47438 5.95936,-3.53391 2.2509,-0.0371 6.11753,-0.207 8.59253,-0.37761 2.475,-0.17062 22.05,-0.40391 43.5,-0.51844 l 39,-0.20822 v 15.83583 c 0,13.39966 -0.23076,15.83929 -1.5,15.85828 -0.91583,0.0137 -1.39202,0.79259 -1.22274,2 0.27387,1.95344 0.25863,1.95388 -1.25,0.0364 -1.91393,-2.43259 -1.93116,-0.88941 -0.0273,2.44112 0.79679,1.39383 1.44481,1.85842 1.46457,1.05 0.024,-0.97992 0.36413,-1.1213 1.04934,-0.43609 0.65566,0.65566 0.91566,12.6511 0.73585,33.95 -0.15292,18.11485 -0.38418,31.69859 -0.5139,30.18609 z m -12.23586,-0.75 c 0,-0.55 -0.19844,-1 -0.44098,-1 -0.24254,0 -0.7191,0.45 -1.05902,1 -0.33991,0.55 -0.14147,1 0.44099,1 0.58246,0 1.05901,-0.45 1.05901,-1 z m -1,-6.16346 c 0,-0.46941 -0.9,-0.29142 -2,0.39554 -1.1,0.68696 -2,1.88552 -2,2.66346 0,1.08741 0.46242,0.99596 2,-0.39554 1.1,-0.99548 2,-2.19404 2,-2.66346 z m 2.34508,2.62034 c -0.32568,-0.84872 -0.80662,-1.32866 -1.06875,-1.06653 -0.26213,0.26212 -0.17998,0.95653 0.18256,1.54312 0.98604,1.59547 1.56237,1.28551 0.88619,-0.47659 z m -76.70086,-17.8712 c -0.10815,-1.8106 -0.45679,-2.15507 -1.39422,-1.37756 -1.48191,1.22913 -1.69527,3.18511 -0.25,2.29188 0.55,-0.33991 1,-0.14147 1,0.44099 0,0.58246 0.1774,1.05901 0.39422,1.05901 0.21681,0 0.32931,-1.08644 0.25,-2.41432 z m 18.35578,1.41432 c 0,-0.55 -0.19844,-1 -0.44098,-1 -0.24254,0 -0.7191,0.45 -1.05902,1 -0.33991,0.55 -0.14147,1 0.44099,1 0.58246,0 1.05901,-0.45 1.05901,-1 z m -2,-2.11803 c 0,-0.55 -0.45,-0.72188 -1,-0.38197 -0.55,0.33992 -1,1.06804 -1,1.61804 0,0.55 0.45,0.72188 1,0.38196 0.55,-0.33991 1,-1.06803 1,-1.61803 z m -16.2831,-5.99023 c -0.1718,-2.28065 -1.04478,-2.40652 -2.7169,-0.39174 -1.94409,2.3425 -2.69475,1.78029 -2.19246,-1.64204 0.31946,-2.17659 0.11261,-2.92664 -0.67319,-2.44099 -1.31586,0.81325 -1.4778,4.49332 -0.28076,6.38037 0.65732,1.03621 1.08143,0.9859 2.10713,-0.25 0.7063,-0.85103 1.75751,-1.54734 2.33604,-1.54734 0.57853,0 0.0734,1.04151 -1.12244,2.31446 -2.96877,3.16011 -2.76098,4.58531 0.25538,1.75159 1.33633,-1.25542 2.36557,-3.13386 2.2872,-4.17431 z m 15.2831,3.10826 c 0.58871,-1.1 0.71278,-2 0.27573,-2 -0.43705,0 -1.35669,0.9 -2.04365,2 -0.69188,1.10788 -0.81488,2 -0.27573,2 0.53531,0 1.45495,-0.9 2.04365,-2 z m 6,-0.5 c -0.68469,-0.825 -1.72579,-1.5 -2.31357,-1.5 -0.58778,0 -0.19518,0.66069 0.87244,1.4682 2.50847,1.89731 2.99834,1.90812 1.44113,0.0318 z m 64.5,0.5 c -0.33991,-0.55 -1.51803,-1 -2.61803,-1 -1.1,0 -1.72188,0.45 -1.38197,1 0.33992,0.55 1.51804,1 2.61804,1 1.1,0 1.72188,-0.45 1.38196,-1 z m -70.37156,-5.5 0.9819,-2 -1.62844,2 c -0.89565,1.1 -2.0703,2.9 -2.61034,4 l -0.98189,2 1.62844,-2 c 0.89564,-1.1 2.07029,-2.9 2.61033,-4 z m 22.67844,1.97354 c -0.30789,-0.30788 -0.86705,0.24712 -1.24258,1.23334 -0.54269,1.4252 -0.42782,1.54006 0.55979,0.55979 0.68342,-0.67833 0.99067,-1.48524 0.68279,-1.79313 z m -46.12376,-0.66104 c -0.31923,-0.79773 -0.55618,-0.56077 -0.60417,0.60417 -0.0434,1.05417 0.19293,1.64479 0.52522,1.3125 0.33229,-0.33229 0.36782,-1.19479 0.0789,-1.91667 z m 92.60438,1.075 c -0.78947,-0.78947 -1.93639,-0.81239 -3.95,-0.0789 -2.80599,1.02207 -2.79364,1.03443 1.1125,1.1125 2.89963,0.058 3.65417,-0.21689 2.8375,-1.03356 z m -37.7875,-2.8875 c -0.37543,-1.18289 -0.90761,-1.92572 -1.18261,-1.65072 -0.275,0.275 -0.19282,1.46783 0.18261,2.65072 0.37544,1.1829 0.90762,1.92573 1.18262,1.65073 0.275,-0.275 0.19282,-1.46783 -0.18262,-2.65073 z m -4.00708,1.01146 c 0.35034,-0.56686 -0.051,-0.73451 -0.94098,-0.39301 -1.73242,0.66479 -2.04939,1.38155 -0.61095,1.38155 0.51754,0 1.21591,-0.44484 1.55193,-0.98854 z m -44.49292,-2.57047 c 0,-0.79254 -0.45,-1.44099 -1,-1.44099 -0.55,0 -1,0.92656 -1,2.05902 0,1.13246 0.45,1.7809 1,1.44098 0.55,-0.33991 1,-1.26647 1,-2.05901 z m 6.5,1.55901 c -0.33991,-0.55 -1.15397,-0.9931 -1.80901,-0.98468 -0.71562,0.009 -0.59228,0.40223 0.30901,0.98468 1.92113,1.24153 2.26731,1.24153 1.5,0 z m -14.5,-0.39301 c 0,-0.21615 -0.675,-0.65203 -1.5,-0.96861 -0.825,-0.31658 -1.5,-0.13973 -1.5,0.39301 0,0.53274 0.675,0.96861 1.5,0.96861 0.825,0 1.5,-0.17685 1.5,-0.39301 z m 52.06575,-0.64217 c 2.87447,-1.53837 2.37213,-3.12145 -0.56575,-1.78286 -1.375,0.62649 -2.5,1.51684 -2.5,1.97856 0,1.10503 0.72135,1.05898 3.06575,-0.1957 z m 40.93425,-3.02383 c 0,-1.61754 0.45,-2.94099 1,-2.94099 0.55,0 1,0.47656 1,1.05902 0,0.58246 0.44312,0.78516 0.9847,0.45044 0.54158,-0.33471 0.8952,-1.68989 0.78582,-3.01151 -0.10938,-1.32161 -0.38666,-2.21514 -0.61617,-1.98562 -0.22952,0.22952 -1.25814,-0.0327 -2.28583,-0.58269 -1.26536,-0.6772 -1.86852,-0.66584 -1.86852,0.0352 0,0.56935 -0.69539,1.03518 -1.54531,1.03518 -1.22982,0 -1.41808,0.7656 -0.92209,3.75 0.34278,2.0625 0.80999,4.34103 1.03825,5.06339 0.71091,2.24973 2.42915,0.21796 2.42915,-2.8724 z m -54,0.98341 c 0,-0.47389 -0.675,-0.6026 -1.5,-0.28602 -0.825,0.31658 -1.5,0.96333 -1.5,1.43723 0,0.47389 0.675,0.6026 1.5,0.28602 0.825,-0.31658 1.5,-0.96333 1.5,-1.43723 z m -36.25,-0.61372 c -0.9625,-0.25153 -2.5375,-0.25153 -3.5,0 -0.9625,0.25153 -0.175,0.45732 1.75,0.45732 1.925,0 2.7125,-0.20579 1.75,-0.45732 z m 41.88191,-3.44434 c -0.80782,-1.85149 -1.50547,-2.83313 -1.55033,-2.18143 -0.12185,1.76996 1.89456,6.6723 2.49674,6.07011 0.28729,-0.28729 -0.13859,-2.0372 -0.94641,-3.88868 z m -5.55147,0.32714 c -1.59427,-0.53142 -4.08044,0.53709 -4.08044,1.7537 0,0.63381 0.97334,0.56647 2.61342,-0.18081 1.43739,-0.65491 2.09754,-1.36271 1.46702,-1.57289 z m 13.77034,1.7087 c 4.31604,-1.50458 4.00137,-2.9765 -0.35078,-1.64079 -1.925,0.5908 -3.5,1.44868 -3.5,1.9064 0,1.05596 0.0744,1.05083 3.85078,-0.26561 z m -5.78568,-5.23095 c -0.55858,-1.46917 -1.44053,-2.67123 -1.9599,-2.67123 -0.51937,0 -0.19716,1.90206 0.71602,4.22679 0.91319,2.32474 1.79514,3.52679 1.95991,2.67123 0.16476,-0.85556 -0.15745,-2.75762 -0.71603,-4.22679 z m 27.49046,-0.22678 c -0.37649,-2.00685 -0.90952,-3.42381 -1.18452,-3.14881 -0.275,0.275 -0.19197,2.14196 0.18452,4.14881 0.37649,2.00685 0.90952,3.42381 1.18452,3.14881 0.275,-0.275 0.19197,-2.14196 -0.18452,-4.14881 z m -60.37222,1.33889 c -0.71757,-0.71756 -1.18334,-0.77661 -1.18334,-0.15 0,1.33478 1.18261,2.51739 1.85,1.85 0.28417,-0.28417 -0.0158,-1.04917 -0.66666,-1.7 z m 24.86632,-0.30902 c 1.62269,-0.83912 2.95034,-1.75068 2.95034,-2.02568 0,-0.275 -1.29294,0.16861 -2.87321,0.9858 -1.58027,0.81719 -3.15527,1.20375 -3.5,0.85902 -0.34473,-0.34474 -0.62679,-0.10179 -0.62679,0.53988 0,1.51833 0.50602,1.47347 4.04966,-0.35902 z m 13.93503,0.18207 c 0.009,0.65979 0.86935,0.93304 2.00407,0.63631 1.09381,-0.28604 1.81604,-0.80641 1.60496,-1.15639 -0.21109,-0.34997 0.19806,-1.17366 0.90922,-1.83043 1.02102,-0.94293 1.40712,-0.75783 1.83539,0.87988 0.37297,1.42625 1.05502,1.87728 2.18381,1.44413 0.90279,-0.34644 2.27963,-0.62989 3.05965,-0.62989 0.78002,0 1.41821,-0.63924 1.41821,-1.42054 0,-0.7813 1.35,-1.71705 3,-2.07946 1.65,-0.3624 3,-1.10348 3,-1.64684 0,-0.5601 -0.97438,-0.69234 -2.25,-0.30536 -3.91586,1.18793 -4.2358,1.01934 -3.88482,-2.04712 0.32553,-2.8441 0.24734,-2.91554 -1.51094,-1.38048 -1.01983,0.89035 -2.41674,1.41505 -3.10424,1.16598 -0.76203,-0.27606 -1.27743,0.45803 -1.32028,1.88049 -0.0561,1.86247 -0.2075,1.98758 -0.75024,0.61996 -0.49128,-1.23794 -1.09612,-1.45031 -2.17972,-0.76532 -0.82486,0.52144 -2.53881,0.95496 -3.80877,0.96338 -1.26996,0.008 -2.07108,0.40031 -1.78027,0.87086 0.29082,0.47055 -0.6563,0.629 -2.10471,0.35212 -2.18195,-0.41711 -2.51967,-0.20686 -1.96974,1.22625 0.36505,0.95131 0.66373,2.10986 0.66373,2.57455 0,1.29056 3.40163,1.7216 4.23469,0.5366 0.49221,-0.70014 0.73974,-0.6634 0.75,0.11132 z m 24.16937,-3.77025 -0.97368,-3.38614 -0.0902,4.45 c -0.0637,3.14477 0.22186,4.13796 0.97368,3.38614 0.72424,-0.72424 0.75303,-2.14485 0.0902,-4.45 z m -72.15406,0.0885 c 0,-0.52527 -0.9,-0.18443 -2,0.75742 -1.1,0.94185 -2,1.85328 -2,2.0254 0,0.17212 0.9,-0.16872 2,-0.75743 1.1,-0.5887 2,-1.50013 2,-2.02539 z m 2.52647,1.21852 c -0.30789,-0.30788 -1.1148,-6.3e-4 -1.79313,0.68279 -0.98027,0.98761 -0.86541,1.10248 0.55979,0.55979 0.98622,-0.37553 1.54122,-0.93469 1.23334,-1.24258 z m 61.96645,0.81833 c 0.35034,-0.56686 -0.051,-0.73451 -0.94098,-0.39301 -1.73242,0.66479 -2.04939,1.38155 -0.61095,1.38155 0.51754,0 1.21591,-0.44484 1.55193,-0.98854 z m -87.5732,-3.01146 c 1.12264,-2.35726 1.10183,-2.38917 -0.36455,-0.55887 -0.85534,1.06763 -1.55517,2.38013 -1.55517,2.91667 0,1.27054 0.4619,0.70324 1.91972,-2.3578 z m 97.42962,-0.53202 c -0.79322,-2.06711 -1.34934,-1.82352 -1.34934,0.59104 0,1.13246 0.43035,1.79305 0.95633,1.46798 0.52598,-0.32508 0.70283,-1.25163 0.39301,-2.05902 z m -57.34934,0.53202 c 1.29269,-0.83539 1.2663,-0.97149 -0.19098,-0.98468 -0.93004,-0.008 -1.9691,0.43468 -2.30902,0.98468 -0.78218,1.2656 0.54163,1.2656 2.5,0 z m 72.88844,-2.25 c 0.99181,-2.97336 0.95758,-3.08477 -0.40217,-1.30887 -0.81745,1.06763 -1.48627,2.53013 -1.48627,3.25 0,2.22996 0.75649,1.45236 1.88844,-1.94113 z m -75.63844,0.51992 c 0.9625,-0.27675 1.75,-0.90069 1.75,-1.38655 0,-1.38471 -1.25395,-1.04233 -4.5,1.2287 -1.66783,1.16687 -2.11189,1.77964 -1,1.37996 1.1,-0.39541 2.7875,-0.94536 3.75,-1.22211 z m -13.88837,-0.76992 c -0.62715,-1.63432 -2.36163,-2.06275 -2.36163,-0.58333 0,0.759 0.70084,1.27572 2.71862,2.00439 0.12024,0.0434 -0.0404,-0.59606 -0.35699,-1.42106 z m 41.63837,0.55902 c 0,-0.51754 -0.45,-1.2191 -1,-1.55902 -0.55,-0.33991 -1,0.0835 -1,0.94099 0,0.85746 0.45,1.55901 1,1.55901 0.55,0 1,-0.42344 1,-0.94098 z m 2.60417,-1.78818 c -1.01652,-1.01652 -1.85525,0.51389 -1.02122,1.86338 0.63004,1.01942 0.86558,1.02021 1.20431,0.004 0.23159,-0.69478 0.1492,-1.53512 -0.18309,-1.86741 z m -73.875,1.125 c -0.33229,-0.33229 -1.19479,-0.36782 -1.91667,-0.0789 -0.79773,0.31923 -0.56077,0.55618 0.60417,0.60417 1.05417,0.0434 1.64479,-0.19293 1.3125,-0.52522 z m 40.77083,-1.39584 c 1.65,-1.09275 2.55,-1.98682 2,-1.98682 -0.55,0 -2.35,0.89407 -4,1.98682 -1.65,1.09276 -2.55,1.98683 -2,1.98683 0.55,0 2.35,-0.89407 4,-1.98683 z m 27.86163,0.5 c 0.73444,-1.91392 -0.28976,-4.66245 -1.46641,-3.93523 -1.16482,0.7199 -1.16674,5.43523 -0.002,5.43523 0.49116,0 1.15204,-0.675 1.46862,-1.5 z m 49.02239,-1.25 c 0.3395,-0.9625 0.8709,-2.425 1.18088,-3.25 0.30999,-0.825 -0.3653,-0.43764 -1.50064,0.86079 -2.1808,2.49406 -2.65015,4.13921 -1.18089,4.13921 0.48586,0 1.16114,-0.7875 1.50065,-1.75 z m -116.13402,0.0877 c -0.6875,-0.27741 -1.8125,-0.27741 -2.5,0 -0.6875,0.27742 -0.125,0.50439 1.25,0.50439 1.375,0 1.9375,-0.22697 1.25,-0.50439 z m 88.71404,-5.49544 c -0.0198,-0.73825 -1.118,-0.0185 -2.44049,1.59951 -1.32249,1.61798 -2.17043,3.32056 -1.88431,3.7835 0.65426,1.05862 4.37336,-3.5705 4.3248,-5.38301 z m -84.96404,4.76471 c 0,-0.21615 -0.69837,-0.661 -1.55193,-0.98854 -0.88993,-0.3415 -1.29133,-0.17385 -0.94099,0.39301 0.58726,0.9502 2.49292,1.40545 2.49292,0.59553 z m 68.5746,-0.48628 c -0.57644,-0.9327 -4.5746,-2.23919 -4.5746,-1.49486 0,0.24123 1.0125,0.84558 2.25,1.34299 2.93366,1.17919 2.96061,1.18095 2.3246,0.15187 z m -54.64331,-1.71866 c 0.23946,-0.23946 -0.0934,-0.88163 -0.73962,-1.42705 -0.64625,-0.54541 -0.94312,-0.67729 -0.65972,-0.29305 0.2834,0.38424 -0.73285,1.29054 -2.25833,2.01401 l -2.77362,1.31539 2.99795,-0.58695 c 1.64888,-0.32283 3.19388,-0.78288 3.43334,-1.02235 z m 12.46172,-0.98383 c 0.84395,-2.19929 0.78237,-2.41822 -0.6802,-2.41822 -0.70796,0 -1.35499,0.9 -1.43785,2 -0.17932,2.38046 1.2563,2.66392 2.11805,0.41822 z m 3.65972,-1.0569 c 1.44062,-3.78913 0.38471,-4.10789 -1.50467,-0.45425 -0.93729,1.81253 -1.16456,3.09293 -0.54899,3.09293 0.57774,0 1.50189,-1.1874 2.05366,-2.63868 z m 54.41611,-4.22581 c -0.85772,-0.85772 -6.42484,5.12667 -5.76396,6.19599 0.35767,0.57873 1.85788,-0.44084 3.44371,-2.34042 1.54548,-1.85123 2.58959,-3.58623 2.32025,-3.85557 z m -74.4978,4.90356 c 0.80908,-0.51168 1.13586,-1.2655 0.72619,-1.67517 -0.40966,-0.40967 -1.50556,0.0159 -2.43532,0.94563 -1.80738,1.80738 -0.72544,2.26921 1.70913,0.72954 z m 88.19486,-1.28907 c 1.09256,-1.2375 1.70064,-1.6875 1.35127,-1 -0.40701,0.80095 0.10449,1.25 1.42382,1.25 1.13246,0 2.05901,-0.24834 2.05901,-0.55188 0,-1.1998 -4.54979,-8.43319 -5.30901,-8.44041 -0.92956,-0.009 -0.0732,1.69406 2.15505,4.28533 1.39357,1.62061 1.38867,1.73426 -0.051,1.18183 -0.87603,-0.33617 -1.88986,-0.13053 -2.25295,0.45696 -0.36309,0.5875 -1.58871,1.06817 -2.7236,1.06817 -1.82134,0 -1.90241,-0.20531 -0.69098,-1.75 1.24387,-1.58605 1.2085,-1.62142 -0.37756,-0.37755 -0.9625,0.75484 -1.75,2.31285 -1.75,3.46223 0,1.81053 -0.39544,1.62713 -2.95936,-1.37245 -3.33318,-3.89958 -4.17704,-2.67665 -0.96806,1.40292 2.65751,3.37847 7.29422,3.55527 10.09332,0.38485 z m 15.8341,-3.29941 c 0,-2.77704 -2.46178,-6.13046 -3.3936,-4.62274 -0.38439,0.62195 -0.22807,2.01054 0.34736,3.08575 1.59478,2.97987 1.23793,4.92393 -0.48556,2.64528 -1.44667,-1.91267 -1.4682,-1.91145 -1.4682,0.0833 0,1.11345 0.27352,2.29798 0.60782,2.63227 1.11907,1.11908 4.39218,-1.73053 4.39218,-3.82389 z m -45.32077,2.15587 c -1.00334,-2.61465 3.43763,-5.47731 8.2478,-5.31655 2.94626,0.0985 4.57845,-0.30632 4.87973,-1.21018 0.31059,-0.93176 0.0196,-1.09719 -0.92702,-0.52696 -1.15926,0.69834 -1.16624,0.56779 -0.0436,-0.817 0.73485,-0.90649 1.0458,-2.11787 0.69099,-2.69196 -0.35481,-0.57409 -0.11345,-1.04381 0.53635,-1.04381 0.87499,0 0.89255,-0.34812 0.0677,-1.342 -0.61257,-0.73811 -0.81767,-1.63811 -0.45577,-2 0.36189,-0.3619 -0.092,-0.658 -1.00868,-0.658 -1.94463,0 -2.24214,1.62781 -0.41667,2.27977 0.6875,0.24553 0.90179,0.81875 0.47619,1.27381 -0.42559,0.45506 -1.50238,0.0988 -2.39285,-0.79167 -1.42058,-1.42058 -1.4398,-1.7983 -0.1568,-3.0813 1.03391,-1.03391 1.9656,-1.18057 3.18053,-0.50065 0.94506,0.52887 2.26383,0.75838 2.93061,0.51002 0.66678,-0.24837 0.0498,-0.91557 -1.37101,-1.48266 -3.41419,-1.3627 -3.26215,-3.5379 0.48437,-6.9299 1.98216,-1.7946 2.39913,-1.98123 1.17834,-0.52742 -1.07265,1.27741 -1.39009,2.25 -0.73436,2.25 0.63524,0 2.0714,0.91642 3.19146,2.03648 1.12006,1.12006 2.47973,1.76252 3.02149,1.4277 0.54931,-0.33949 -0.0198,-1.47576 -1.28647,-2.56877 l -2.2715,-1.95999 3.87213,1.53229 c 2.12967,0.84276 4.13217,1.53229 4.45,1.53229 0.31783,0 0.0379,0.54 -0.62213,1.2 -2.33468,2.33469 -1.40543,4.05715 1.92508,3.56834 2.71259,-0.39812 3.39126,-0.008 5.14164,2.95915 1.86009,3.15262 2.14136,3.29139 3.62492,1.78855 1.47826,-1.49747 1.4668,-1.7096 -0.14164,-2.62234 -1.14656,-0.65064 -1.75,-2.20549 -1.75,-4.50913 0,-3.93794 1.6377,-7.72651 2.98108,-6.89626 0.4844,0.29937 1.20635,0.0174 1.60433,-0.6265 0.45193,-0.73123 0.29014,-0.90292 -0.4309,-0.4573 -1.93292,1.19461 -1.2872,-0.84641 0.84549,-2.67248 1.86132,-1.5937 2,-1.59586 2,-0.0311 0,1.47639 0.16807,1.45149 1.37875,-0.2042 1.18294,-1.61777 1.14743,-2.34071 -0.25,-5.09047 -0.89581,-1.76269 -1.79031,-3.05114 -1.98777,-2.86321 -0.19746,0.18792 -1.65996,-1.08266 -3.25,-2.82353 -1.59004,-1.74087 -2.89098,-2.83382 -2.89098,-2.42879 0,0.95191 2.11337,4.7268 3.8818,6.93367 1.18801,1.48253 1.13773,2.09687 -0.35848,4.38037 l -1.74027,2.65599 -2.29913,-2.88037 -2.29912,-2.88038 0.52195,2.73835 c 0.28707,1.50609 0.9205,2.49203 1.4076,2.19098 1.05948,-0.65479 1.03643,0.35583 -0.0701,3.07067 -0.7414,1.8191 -0.8836,1.73902 -1.57209,-0.88535 l -0.75696,-2.88535 -1.21511,2.27045 c -0.78829,1.47293 -1.46153,1.87174 -1.91664,1.13535 -0.38584,-0.6243 -0.22497,-1.1351 0.35749,-1.1351 0.58246,0 1.05901,-0.45857 1.05901,-1.01905 0,-0.58616 -1.1682,-0.77174 -2.75,-0.43688 -2.52221,0.53395 -2.58433,0.47877 -0.75,-0.66617 2.84495,-1.77574 4.5,-3.55839 4.5,-4.84693 0,-0.61154 -1.2375,0.0412 -2.75,1.45055 l -2.75,2.56246 -1,-2.38836 c -0.85189,-2.0346 -1.36816,-2.25188 -3.48574,-1.46699 -1.36716,0.50673 -3.3264,0.7015 -4.35387,0.43281 -1.55438,-0.40646 -1.78387,-0.0477 -1.3664,2.1361 0.54068,2.82842 -1.91339,7.59572 -3.42815,6.65955 -0.50346,-0.31116 -0.79174,-0.026 -0.64061,0.63359 0.15112,0.65963 -0.35036,1.42645 -1.11442,1.70406 -0.9296,0.33774 -1.15319,0.0483 -0.67584,-0.875 0.39234,-0.75886 -0.0164,-0.47974 -0.90838,0.62026 -0.938,1.15679 -2.55029,1.87574 -3.82416,1.70525 -1.78044,-0.23827 -1.91502,-0.0975 -0.70243,0.73469 0.825,0.56619 2.47037,1.03633 3.65638,1.04475 1.62618,0.0115 2.03373,0.48433 1.65755,1.92286 -0.27436,1.04915 -1.35181,2.13061 -2.39434,2.40323 -1.99839,0.52259 -4.33117,5.21425 -3.36772,6.77314 0.31139,0.50385 0.0982,0.91608 -0.4738,0.91608 -0.57198,0 -1.31861,1.11022 -1.65918,2.46715 -0.57256,2.28127 -0.95069,2.4217 -5.01905,1.86407 -2.97148,-0.40729 -4.39984,-0.2343 -4.39984,0.53286 0,0.62476 0.7875,1.15187 1.75,1.17136 0.9625,0.0195 2.875,0.67854 4.25,1.46456 3.1504,1.80093 3.33223,1.80816 2.67923,0.10646 z m 4.32077,-9.48285 c 0,-0.65251 0.64659,-1.43449 1.43686,-1.73775 0.79027,-0.30325 1.19213,-1.18913 0.89301,-1.96861 -0.29911,-0.77949 -0.31884,-1.41725 -0.0438,-1.41725 1.53699,0 1.29945,3.06517 -0.35347,4.56104 -1.17464,1.06303 -1.93256,1.28366 -1.93256,0.56257 z m 10.42173,5.96289 c 2.33623,-2.58151 1.29224,-4.0426 -1.24675,-1.74485 -1.0105,0.9145 -2.21041,1.32424 -2.66645,0.91054 -0.45605,-0.4137 -0.52469,-0.22078 -0.15254,0.42872 0.37215,0.64949 0.2193,1.46355 -0.33967,1.80901 -0.55898,0.34547 -1.01632,1.06739 -1.01632,1.60429 0,1.32626 3.01137,-0.34429 5.42173,-3.00771 z m 23.99418,1.27206 c 0.54837,-1.42904 0.40046,-1.46565 -1.14301,-0.28297 -0.97509,0.74717 -1.9604,1.48581 -2.18956,1.64145 -0.22917,0.15563 0.28519,0.28296 1.14301,0.28296 0.85782,0 1.84312,-0.73864 2.18956,-1.64144 z m -17.25161,-0.66059 c -0.59433,-0.71612 -0.82194,-2.29112 -0.50581,-3.5 0.31613,-1.20888 0.16388,-2.19797 -0.33832,-2.19797 -0.5022,0 -0.83771,1.2375 -0.74558,2.75 0.24634,4.04395 0.32138,4.25 1.54786,4.25 0.8085,0 0.8202,-0.36417 0.0419,-1.30203 z m -45.67138,-0.68651 c 0.35034,-0.56686 -0.051,-0.73451 -0.94098,-0.39301 -1.73242,0.66479 -2.04939,1.38155 -0.61095,1.38155 0.51754,0 1.21591,-0.44484 1.55193,-0.98854 z m 50.90224,-3.90396 c -0.55728,-0.63067 -3.39516,2.03566 -3.39516,3.18991 0,0.57889 0.84195,0.18629 1.87099,-0.87244 1.02905,-1.05873 1.71492,-2.10159 1.52417,-2.31747 z m 12.74406,0.92577 c 3.07213,-2.55934 1.12882,-2.58956 -2.13922,-0.0333 -1.375,1.07555 -1.98735,1.96554 -1.36078,1.97777 0.62657,0.0122 2.20157,-0.86279 3.5,-1.9445 z m -103.45408,-0.41141 c -0.29087,-0.75798 -0.024,-1.88298 0.59301,-2.5 1.41954,-1.41954 -0.28179,-1.44226 -2.27815,-0.0304 -1.13483,0.80257 -1.19417,1.1848 -0.24377,1.5701 0.69093,0.2801 1.00187,0.92084 0.69099,1.42387 -0.31089,0.50302 -0.0405,0.91458 0.60076,0.91458 0.6413,0 0.92802,-0.62016 0.63716,-1.37814 z m 41.43458,-0.2661 c 1.22138,-1.47168 1.10304,-1.56483 -1.12756,-0.88761 -3.51099,1.06597 -4.85109,2.53185 -2.3146,2.53185 1.14265,0 2.69163,-0.73991 3.44216,-1.64424 z m -52.11972,-0.96274 c 0,-0.21616 -0.675,-0.39302 -1.5,-0.39302 -0.825,0 -1.5,0.43588 -1.5,0.96862 0,0.53274 0.675,0.70959 1.5,0.39301 0.825,-0.31658 1.5,-0.75246 1.5,-0.96861 z m 106.6183,-2.05461 c -1.30809,-2.41375 -1.54421,-2.5317 -1.57826,-0.78841 -0.022,1.1275 0.49246,2.5825 1.1433,3.23334 1.88589,1.88589 2.10735,0.64106 0.43496,-2.44493 z m -48.49622,-0.0134 c -1.17885,-2.02722 -1.46352,-1.37836 -0.49854,1.13634 0.34295,0.8937 0.8342,1.41425 1.09167,1.15679 0.25747,-0.25747 -0.009,-1.28938 -0.59313,-2.29313 z m 43.01714,0.70826 c 1.29843,-1.0817 2.04446,-1.9817 1.65784,-2 -1.39693,-0.0661 -5.79706,2.30756 -5.79706,3.12725 0,1.3978 1.6465,0.9494 4.13922,-1.12725 z m -100.49544,-1.82737 c -1.02092,-0.2164 -2.29254,0.0429 -2.82582,0.57615 -0.62614,0.62613 0.0314,0.76551 1.85622,0.39345 2.09296,-0.42673 2.34442,-0.67819 0.9696,-0.9696 z m 52.35622,-0.3406 c 0.97908,-0.58272 0.45815,-0.66952 -1.5,-0.24992 -1.65,0.35356 -3.45,1.08532 -4,1.62613 -1.14601,1.12686 3.06467,0.0733 5.5,-1.37621 z m 43.34897,1.32107 c 0.2136,-0.3775 0.71259,-2.48637 1.10888,-4.68637 0.80181,-4.45127 -0.28804,-4.04728 -2.21687,0.82177 l -1.25903,3.17823 0.57979,-3 c 0.70528,-3.6493 -1.10076,-2.29529 -2.04495,1.53313 -0.50798,2.0597 -0.24454,2.56177 1.40955,2.68637 1.11885,0.0843 2.20904,-0.15562 2.42263,-0.53313 z m -84.09897,-1.91645 c 2.00239,-0.57575 2.37935,-2.27679 0.5,-2.25626 -2.98848,0.0326 -5.75,1.33414 -5.75,2.70997 0,1.02717 0.54388,1.26645 1.75,0.76991 0.9625,-0.39624 2.5375,-0.94687 3.5,-1.22362 z m 79.73469,-1.51992 c 0.008,-0.4125 -0.43469,-0.75 -0.98469,-0.75 -0.55,0 -0.99311,1.0125 -0.98468,2.25 0.0124,1.81944 0.20081,1.96296 0.98468,0.75 0.53316,-0.825 0.97627,-1.8375 0.98469,-2.25 z m 25.01531,-1.25 c 0,-0.825 -0.17685,-1.5 -0.39301,-1.5 -0.21615,0 -0.65203,0.675 -0.96861,1.5 -0.31658,0.825 -0.13973,1.5 0.39301,1.5 0.53274,0 0.96861,-0.675 0.96861,-1.5 z m 2.66228,-1.75 c -0.27741,-0.6875 -0.50438,-0.125 -0.50438,1.25 0,1.375 0.22697,1.9375 0.50438,1.25 0.27742,-0.6875 0.27742,-1.8125 0,-2.5 z m -104.27973,-0.73254 c 0.68994,-0.68994 0.0518,-1.01746 -1.98255,-1.01746 -2.82189,0 -5.4,1.49444 -5.4,3.1302 0,0.94714 6.05569,-0.78588 7.38255,-2.11274 z m 64.41064,0.78936 c 1.76528,-1.76528 -4.23891,-4.17382 -6.88052,-2.76008 -3.50076,1.87356 -1.97639,3.27993 4.13733,3.81708 0.8525,0.0749 2.08694,-0.40075 2.74319,-1.057 z m -22.79319,-4.0517 c 0,-0.55783 -0.66326,-0.44955 -1.5,0.24488 -0.825,0.68469 -1.5,1.69489 -1.5,2.24489 0,0.55783 0.66326,0.44955 1.5,-0.24489 0.825,-0.68468 1.5,-1.69488 1.5,-2.24488 z m 34.55822,0.76843 c -1.61798,-1.32248 -3.28583,-2.19189 -3.70633,-1.93201 -1.19501,0.73856 0.13645,3.24642 1.98326,3.73554 3.97507,1.05277 4.51989,0.48251 1.72307,-1.80353 z m -49.55822,0.47645 c 0,-0.55 -0.19844,-1 -0.44098,-1 -0.24254,0 -0.7191,0.45 -1.05902,1 -0.33991,0.55 -0.14147,1 0.44099,1 0.58246,0 1.05901,-0.45 1.05901,-1 z m 25.01366,-0.25 c 0.008,-0.6875 0.27631,-2.375 0.59734,-3.75 0.55355,-2.37093 0.47575,-2.34512 -1.50707,0.5 -2.48747,3.56927 -2.61239,4.5 -0.60393,4.5 0.825,0 1.50615,-0.5625 1.51366,-1.25 z m 52.66946,-0.9375 c -0.31923,-0.79773 -0.55618,-0.56077 -0.60417,0.60417 -0.0434,1.05417 0.19293,1.64479 0.52522,1.3125 0.33229,-0.33229 0.36782,-1.19479 0.0789,-1.91667 z m -115.68312,0.1875 c 0,-0.55 -0.19844,-1 -0.44098,-1 -0.24254,0 -0.7191,0.45 -1.05902,1 -0.33991,0.55 -0.14147,1 0.44099,1 0.58246,0 1.05901,-0.45 1.05901,-1 z m 67,-1.5 c 0,-1.375 -0.45,-2.5 -1,-2.5 -0.55,0 -1,1.125 -1,2.5 0,1.375 0.45,2.5 1,2.5 0.55,0 1,-1.125 1,-2.5 z m -26,0.5 c 0,-0.55 -0.19844,-1 -0.44098,-1 -0.24254,0 -0.7191,0.45 -1.05902,1 -0.33991,0.55 -0.14147,1 0.44099,1 0.58246,0 1.05901,-0.45 1.05901,-1 z m -37.87792,-2.67499 c -1.17885,-2.02722 -1.46352,-1.37836 -0.49854,1.13634 0.34295,0.8937 0.8342,1.41425 1.09167,1.15679 0.25747,-0.25747 -0.009,-1.28938 -0.59313,-2.29313 z m -2.12208,1.29744 c 0,-0.20766 -0.6853,-0.94631 -1.52289,-1.64144 -1.27335,-1.05679 -1.41968,-0.99492 -0.89301,0.37755 0.5379,1.40174 2.4159,2.38422 2.4159,1.26389 z m 4.95417,-1.70809 c -0.61391,-1.14711 -1.36887,-1.83298 -1.67769,-1.52417 -0.30881,0.30882 0.008,1.24736 0.70347,2.08565 1.79781,2.16623 2.28406,1.88599 0.97422,-0.56148 z m 109.54583,1.08564 c 0.33992,-0.55 0.25398,-1.03443 -0.19098,-1.07651 -0.44496,-0.0421 -1.59652,-0.22726 -2.55902,-0.41151 -0.9625,-0.18426 -1.75,1.7e-4 -1.75,0.40984 0,2.03649 3.40372,2.85201 4.5,1.07818 z m -65.73207,-2 c -1.31483,-2.10537 -2.76793,-2.65643 -2.76793,-1.04969 0,0.52268 0.7875,1.40899 1.75,1.9696 2.39586,1.39545 2.43935,1.35615 1.01793,-0.91991 z m 24.23207,-0.5 c 1.29175,-1.375 2.05607,-2.5 1.69849,-2.5 -1.46597,0 -6.64161,3.72355 -6.02823,4.33693 1.10306,1.10306 1.87574,0.77525 4.32974,-1.83693 z m 5,0 c 1.86371,-1.375 2.92113,-2.5 2.34982,-2.5 -0.5713,0 -2.34623,1.12446 -3.94428,2.49878 -3.74971,3.22478 -2.77583,3.22553 1.59446,0.001 z m -44,0.5 c 0,-0.55 -0.19844,-1 -0.44098,-1 -0.24254,0 -0.7191,0.45 -1.05902,1 -0.33991,0.55 -0.14147,1 0.44099,1 0.58246,0 1.05901,-0.45 1.05901,-1 z m 3.52647,-0.80687 c -0.30789,-0.30788 -1.1148,-6.3e-4 -1.79313,0.68279 -0.98027,0.98761 -0.86541,1.10248 0.55979,0.55979 0.98622,-0.37553 1.54122,-0.93469 1.23334,-1.24258 z m 77.99734,-0.81217 c -0.89047,-0.89048 -1.92208,-1.31601 -2.29246,-0.94563 -0.37039,0.37038 -0.0115,1.09206 0.79761,1.60374 2.36246,1.49406 3.25437,1.1014 1.49485,-0.65811 z m -65.47217,-1.34904 c -2.3103,-1.42784 -0.0218,-7.12384 3.9806,-9.90757 1.90727,-1.32654 2.63016,-2.11709 1.60642,-1.75677 -1.31773,0.46379 -1.71013,0.26106 -1.34358,-0.69413 0.40151,-1.04631 -0.84258,-1.32951 -5.54118,-1.26134 -4.97128,0.0721 -6.10555,0.40291 -6.31863,1.84267 -0.14283,0.96512 0.1508,1.50106 0.65252,1.19098 1.7057,-1.05418 0.92074,2.2737 -1.16037,4.91939 -1.71807,2.18417 -1.80359,2.63485 -0.5,2.63485 0.90592,0 1.57258,0.84787 1.57258,2 0,2.36079 2.79104,2.70812 3.65567,0.45494 0.49579,-1.292 0.83494,-1.19951 2.07062,0.56466 0.81274,1.16036 1.75628,1.83117 2.09675,1.4907 0.34047,-0.34047 -0.007,-1.00575 -0.7714,-1.47838 z m -2.05164,-9.40946 c 0,-0.20766 0.7875,-0.99516 1.75,-1.75 1.58606,-1.24387 1.62143,-1.2085 0.37756,0.37755 -1.30637,1.66575 -2.12756,2.19548 -2.12756,1.37245 z m 12,10.44493 c 0,-1.07501 -3.89023,-2.51048 -4.67549,-1.72522 -0.28863,0.28862 -0.22816,1.00471 0.13438,1.5913 0.8106,1.31159 4.54111,1.42161 4.54111,0.13392 z m -42,-4.06739 c 0,-2.57749 -0.45393,-3.99999 -1.27642,-3.99999 -0.88608,0 -1.15977,1.22327 -0.89497,3.99999 0.20981,2.2 0.7842,4 1.27643,4 0.49223,0 0.89496,-1.8 0.89496,-4 z m 2.68312,1.8125 c -0.31923,-0.79773 -0.55618,-0.56077 -0.60417,0.60417 -0.0434,1.05417 0.19293,1.64479 0.52522,1.3125 0.33229,-0.33229 0.36782,-1.19479 0.0789,-1.91667 z m -7.46981,-2.8125 c -0.24217,-1.64999 -0.81339,-2.99999 -1.26939,-2.99999 -0.86802,0 -0.50088,3.28978 0.55841,5.00375 1.00884,1.63235 1.17565,1.16224 0.71098,-2.00376 z m 47.78669,2 c 0,-0.55 -0.45,-1 -1,-1 -0.55,0 -1,0.45 -1,1 0,0.55 0.45,1 1,1 0.55,0 1,-0.45 1,-1 z m 16.48208,-4.01834 c -2.95082,-3.02192 -3.45982,-3.98165 -2.1117,-3.98165 1.15131,0 1.65963,-0.61571 1.44476,-1.75 -0.36186,-1.91016 -6.81514,-3.1835 -6.81514,-1.34474 0,0.56759 -0.675,0.77295 -1.5,0.45637 -0.825,-0.31658 -1.5,-0.0775 -1.5,0.53139 0,0.60884 0.43588,1.10698 0.96862,1.10698 0.53274,0 0.72219,0.64217 0.42101,1.42704 -0.38806,1.01126 0.004,1.28279 1.34567,0.93194 1.29193,-0.33785 3.23053,0.84215 6.1035,3.71511 2.31562,2.31562 4.50745,3.91299 4.87074,3.54971 0.36328,-0.36329 -1.08908,-2.45226 -3.22746,-4.64215 z m -3.45227,2.07404 c -1.11795,-2.0889 -2.90604,-3.51278 -3.57334,-2.84549 -0.22575,0.22576 0.2797,1.39581 1.12324,2.60013 1.93482,2.76234 3.90261,2.9594 2.4501,0.24536 z m 31.98765,-1.52307 c -0.72539,-1.35539 -1.70173,-2.22775 -2.16965,-1.93855 -0.46792,0.28919 -0.0626,1.57975 0.90071,2.86792 2.20249,2.94522 3.02153,2.34536 1.26894,-0.92937 z m -38.59046,-0.0112 c -2.30814,-1.74621 -3.427,-1.89719 -3.427,-0.46245 0,0.58245 0.39902,0.81241 0.8867,0.511 0.48768,-0.30139 1.4518,0.13292 2.1425,0.96515 0.69069,0.83224 1.49633,1.27263 1.7903,0.97866 0.29398,-0.29398 -0.33265,-1.19054 -1.3925,-1.99236 z m 31.10819,-2.13648 c 1.35565,-0.88825 2.46481,-2.02481 2.46481,-2.52568 0,-1.05386 -5.56759,1.63204 -6.4956,3.13358 -0.94923,1.53587 1.26971,1.20123 4.03079,-0.6079 z m -37.01127,-1.46035 c 0.74935,-2.36098 0.11357,-3.43666 -1.45739,-2.46575 -1.31159,0.8106 -1.4216,4.54111 -0.13391,4.54111 0.51293,0 1.22902,-0.93391 1.5913,-2.07536 z m -4.02392,0.0754 c 0.33992,-0.55 0.14148,-1 -0.44098,-1 -0.58246,0 -1.05902,0.45 -1.05902,1 0,0.55 0.19845,1 0.44099,1 0.24254,0 0.7191,-0.45 1.05901,-1 z m 7.5,-1.5 c 0,-1.375 -0.45,-2.5 -1,-2.5 -0.55,0 -1,1.125 -1,2.5 0,1.375 0.45,2.5 1,2.5 0.55,0 1,-1.125 1,-2.5 z m 38.5,1.5 c 0.33992,-0.55 0.14148,-1 -0.44098,-1 -0.58246,0 -1.05902,0.45 -1.05902,1 0,0.55 0.19845,1 0.44099,1 0.24254,0 0.7191,-0.45 1.05901,-1 z m -4.5,-3 c 0.825,-0.53315 1.05,-0.96937 0.5,-0.96937 -0.55,0 -1.675,0.43622 -2.5,0.96937 -0.825,0.53316 -1.05,0.96938 -0.5,0.96938 0.55,0 1.675,-0.43622 2.5,-0.96938 z m -14.99086,95.51101 c -0.67966,-0.81895 -1.63476,-1.24239 -2.12244,-0.94099 -0.48768,0.30141 -0.8867,0.0556 -0.8867,-0.54619 0,-0.77193 -0.56969,-0.78931 -1.93425,-0.059 -2.99813,1.60455 -4.75913,1.25089 -7.52029,-1.51027 -3.11794,-3.11794 -3.42897,-7.91133 -0.6112,-9.41936 3.16226,-1.69239 8.86637,-1.23456 10.98241,0.88148 1.05417,1.05417 2.17917,1.65417 2.5,1.33333 1.0758,-1.0758 0.59743,-2.25 -0.91667,-2.25 -0.825,0 -1.5,-0.42416 -1.5,-0.94258 0,-0.51842 0.9,-0.76926 2,-0.55742 1.1,0.21185 2,-0.039 2,-0.55741 0,-0.51842 -1.125,-0.94259 -2.5,-0.94259 -1.375,0 -2.5,-0.40787 -2.5,-0.90638 0,-0.4985 0.97037,-0.65262 2.15638,-0.34247 1.47745,0.38636 1.93113,0.19946 1.44098,-0.59362 -0.39347,-0.63664 -1.36383,-1.15753 -2.15637,-1.15753 -1.83973,0 -1.78163,-0.98924 0.20557,-3.5 1.10302,-1.39362 1.72565,-1.61912 2.05361,-0.74376 0.25886,0.69092 0.84619,1.02413 1.30517,0.74047 0.99963,-0.61781 4.99466,4.22982 4.99466,6.0606 0,0.70818 1.60585,1.81757 3.56855,2.46532 2.45886,0.81149 3.39531,1.62917 3.01146,2.62949 -0.34087,0.88827 -0.13182,1.18892 0.53858,0.77459 2.67864,-1.65549 -2.71263,8.80491 -5.57041,10.80798 -1.82956,1.28237 -7.25583,0.8225 -8.53904,-0.72367 z m 6.90753,0.083 c -0.91353,-0.89017 -6.89461,-1.36732 -6.3633,-0.50764 0.31057,0.50251 1.96311,0.91365 3.67232,0.91365 1.7092,0 2.92015,-0.1827 2.69098,-0.40601 z m 4.01297,-3.4625 c 1.24077,-2.3184 0.48385,-3.14173 -2.8463,-3.09605 l -2.58334,0.0354 2.5,1.52511 2.5,1.52511 -3.21122,-0.52779 c -3.37917,-0.5554 -5.58076,0.9247 -2.55102,1.71501 3.61969,0.9442 5.21946,0.64014 6.19188,-1.17683 z m 1.57036,-4.13149 c -0.33991,-0.55 -1.15397,-0.9931 -1.80901,-0.98468 -0.71562,0.009 -0.59228,0.40223 0.30901,0.98468 1.92113,1.24153 2.26731,1.24153 1.5,0 z m -9.21025,-2 c 0.28766,-1.1 0.11514,-2 -0.38337,-2 -0.49851,0 -0.90638,0.9 -0.90638,2 0,1.1 0.17252,2 0.38337,2 0.21086,0 0.61873,-0.9 0.90638,-2 z m 3.07188,0.5 c 0.31658,-0.825 0.18787,-1.5 -0.28602,-1.5 -0.4739,0 -1.12065,0.675 -1.43723,1.5 -0.31658,0.825 -0.18787,1.5 0.28602,1.5 0.47389,0 1.12065,-0.675 1.43723,-1.5 z m 1.13837,-3.5 c 0.33992,-0.55 0.14148,-1 -0.44098,-1 -0.58246,0 -1.05902,0.45 -1.05902,1 0,0.55 0.19845,1 0.44099,1 0.24254,0 0.7191,-0.45 1.05901,-1 z m -86.5,-16.05901 c 0,-0.58246 -0.40939,-0.806 -0.90975,-0.49676 -1.86349,1.1517 -4.09025,-0.70819 -4.09025,-3.41636 0,-4.2001 3.51118,-8.03421 7.32258,-7.99606 5.7135,0.0572 8.33639,3.61907 6.02987,8.18855 -1.96002,3.88302 -8.35245,6.73055 -8.35245,3.72063 z m 5.80688,-3.46745 c -0.30789,-0.30788 -0.86705,0.24712 -1.24258,1.23334 -0.54269,1.4252 -0.42782,1.54006 0.55979,0.55979 0.68342,-0.67833 0.99067,-1.48524 0.68279,-1.79313 z m -2.80688,-6.47354 c -0.825,-0.53315 -1.95,-0.96937 -2.5,-0.96937 -0.55,0 -0.325,0.43622 0.5,0.96937 0.825,0.53316 1.95,0.96938 2.5,0.96938 0.55,0 0.325,-0.43622 -0.5,-0.96938 z m -30.5,-10 c 0.33992,-0.55 0.81648,-1 1.05902,-1 0.24254,0 0.44098,0.45 0.44098,1 0,0.55 -0.47655,1 -1.05901,1 -0.58246,0 -0.7809,-0.45 -0.44099,-1 z m 81.22046,-1.33178 c -0.39625,-1.00749 -0.70677,-2.58249 -0.69005,-3.5 0.0271,-1.48833 0.14222,-1.47612 1.06728,0.1132 0.57027,0.97979 0.88079,2.55479 0.69004,3.5 -0.31673,1.56952 -0.40931,1.5597 -1.06727,-0.1132 z m -82.97046,-0.72151 c 0.6875,-0.74069 1.23503,-2.26921 1.21673,-3.39671 -0.0319,-1.965 -0.1148,-1.95212 -2,0.31079 -1.0817,1.29843 -1.96673,2.00243 -1.96673,1.56445 0,-0.43798 0.97678,-1.83606 2.17061,-3.10684 1.19384,-1.27078 1.88009,-2.60103 1.52501,-2.95611 -0.35509,-0.35509 -1.55774,0.43064 -2.67258,1.74605 -1.66829,1.96845 -1.90524,2.04559 -1.33907,0.43594 1.66193,-4.72493 5.53137,-7.03145 6.69759,-3.99234 0.3415,0.88993 0.17385,1.29132 -0.39301,0.94099 -2.24191,-1.38558 -0.77937,1.50293 1.76145,3.47887 2.27802,1.77156 2.34914,1.9436 0.41436,1.00239 -2.81116,-1.36755 -3.92829,-0.59959 -2.18441,1.50165 0.69572,0.83829 0.98484,1.58041 0.6425,1.64916 -0.34235,0.0687 -0.95995,0.18815 -1.37245,0.26532 -0.4125,0.0772 -1.425,0.53694 -2.25,1.0217 -1.22106,0.71749 -1.26755,0.63096 -0.25,-0.46531 z m -9.75,-9.91532 c 0,-0.53274 -0.62948,-0.72706 -1.39885,-0.43183 -0.76936,0.29524 -1.66638,0.10392 -1.99336,-0.42515 -0.61293,-0.99175 1.99203,-8.17441 2.96465,-8.17441 0.30008,0 0.26748,0.45 -0.0724,1 -0.33991,0.55 -0.17828,1 0.3592,1 0.53748,0 1.68903,0.27315 2.55902,0.60699 0.86998,0.33385 1.58178,0.10885 1.58178,-0.5 0,-0.60884 -0.675,-1.10699 -1.5,-1.10699 -0.825,0 -1.5,-0.45 -1.5,-1 0,-0.55 0.64845,-1 1.44099,-1 0.79254,0 1.7191,0.45 2.05901,1 0.33992,0.55 1.04148,1 1.55902,1 0.51754,0 0.041,-0.9 -1.05902,-2 -2.61547,-2.61547 -2.57344,-7.38784 0.0869,-9.86632 1.66696,-1.553 2.69878,-1.76874 5.12773,-1.07212 1.83568,0.52646 3.75681,0.48892 4.84737,-0.0947 2.71115,-1.45096 5.64771,-1.16572 6.33102,0.61496 0.90818,2.36666 0.73291,6.31443 -0.37199,8.37895 -0.71119,1.32887 -0.57442,2.16502 0.5,3.0567 2.16398,1.79595 1.80622,3.78043 -0.77102,4.27683 l -2.25,0.43337 2.33334,0.13618 c 2.57639,0.15037 2.50241,1.89122 -0.15148,3.56474 -2.30108,1.45104 -7.07113,-1.22731 -7.50141,-4.21197 -0.17575,-1.21912 -0.72413,-2.21659 -1.21861,-2.21659 -0.49449,0 -0.63809,-0.6801 -0.31911,-1.51134 0.41499,-1.08144 0.12162,-1.33545 -1.03139,-0.89301 -0.95475,0.36638 -1.61134,1.76759 -1.61134,3.43876 0,1.85589 -0.90108,3.52922 -2.63485,4.89301 -2.74049,2.15567 -6.36515,2.78433 -6.36515,1.10397 z m 3.3047,-2.08854 c 0.44141,-1.68796 0.28288,-1.84545 -0.88337,-0.87755 -1.59084,1.32028 -1.88678,2.9347 -0.53796,2.9347 0.48586,0 1.12545,-0.92571 1.42133,-2.05715 z m 2.6953,-1.44285 c 0,-1.375 -0.17254,-2.5 -0.38342,-2.5 -0.21088,0 -0.59848,1.125 -0.86133,2.5 -0.26285,1.375 -0.0903,2.5 0.38343,2.5 0.47373,0 0.86132,-1.125 0.86132,-2.5 z m -5.27083,-1.10416 c -0.33229,-0.33229 -1.19479,-0.36782 -1.91667,-0.0789 -0.79773,0.31923 -0.56077,0.55618 0.60417,0.60417 1.05417,0.0434 1.64479,-0.19293 1.3125,-0.52522 z m 10.52083,-8.78788 c 2.81233,-2.13486 2.11979,-3.97047 -0.71857,-1.90464 -2.41662,1.75887 -3.27286,3.32812 -1.78143,3.26488 0.4125,-0.0175 1.5375,-0.6296 2.5,-1.36024 z m 0.31184,-5.37945 c -0.3352,-0.3352 -1.38624,0.20382 -2.33565,1.19783 -1.65022,1.72776 -1.6234,1.75458 0.60946,0.60946 1.28461,-0.65881 2.06139,-1.47209 1.72619,-1.80729 z m 87.93816,14.77149 c 0.33992,-0.55 0.81648,-1 1.05902,-1 0.24254,0 0.44098,0.45 0.44098,1 0,0.55 -0.47655,1 -1.05901,1 -0.58246,0 -0.7809,-0.45 -0.44099,-1 z m -135.5298,-1.9443 c 1.07417,-2.00711 3.0298,-3.65238 3.0298,-2.54897 0,1.37386 -2.13157,4.49327 -3.07036,4.49327 -0.65276,0 -0.63868,-0.67514 0.0406,-1.9443 z m 59.64825,-18.60763 c -0.3415,-0.88993 -0.17385,-1.29132 0.39301,-0.94099 0.5437,0.33603 0.98854,0.1344 0.98854,-0.44806 0,-0.58246 -0.5625,-1.07931 -1.25,-1.10412 -0.6875,-0.0248 0.1,-0.70471 1.75,-1.5109 2.24209,-1.09548 2.43157,-1.36037 0.75,-1.04851 -2.9281,0.54305 -2.85412,-0.88226 0.20455,-3.94093 1.78869,-1.78869 2.04174,-2.45455 0.93285,-2.45455 -0.83694,0 -3.00712,1.575 -4.82263,3.5 -2.57568,2.73102 -4.08592,3.5 -6.87383,3.5 -3.63656,0 -5.72711,-1.41645 -3.44717,-2.33564 0.83698,-0.33743 0.8703,-0.53281 0.0999,-0.58541 -0.6445,-0.044 -0.92995,-0.9448 -0.64486,-2.03499 0.47043,-1.79894 -0.11939,-1.98357 -7.34362,-2.29875 -4.32032,-0.1885 5.64486,-0.35466 22.14486,-0.36925 16.5,-0.0146 28.0603,0.14704 25.68955,0.3592 -2.51004,0.22463 -5.12057,1.19587 -6.25,2.3253 -1.18052,1.18052 -3.30924,1.93954 -5.43955,1.93954 -3.00498,0 -3.5,0.33167 -3.5,2.34502 0,1.28974 -0.82293,3.08974 -1.82874,3.99999 -2.01693,1.8253 -5.17126,2.22482 -5.17126,0.65498 0,-0.55 -0.43587,-1 -0.96861,-1 -0.53274,0 -0.70959,0.675 -0.39301,1.5 0.41705,1.08683 -0.11302,1.5 -1.9244,1.5 -1.375,0 -2.76799,-0.69837 -3.09553,-1.55193 z m 10.83885,-1.37897 c 0.31643,-0.51199 0.11799,-1.21355 -0.44098,-1.55901 -0.55898,-0.34547 -1.01632,0.0734 -1.01632,0.9309 0,1.75652 0.60006,2.01516 1.4573,0.62811 z m -15.4573,-7.06909 c 0,-0.55 -0.19844,-1 -0.44098,-1 -0.24254,0 -0.7191,0.45 -1.05902,1 -0.33991,0.55 -0.14147,1 0.44099,1 0.58246,0 1.05901,-0.45 1.05901,-1 z m 3,-1.72568 c 0,-1.89506 -1.29356,-0.88183 -1.60782,1.25939 -0.11913,0.8117 0.19389,1.22212 0.69561,0.91204 0.50172,-0.31008 0.91221,-1.28722 0.91221,-2.17143 z" style="fill:#030081;fill-opacity:1;fill-rule:nonzero"/>
  </g>
</svg>